<?xml version="1.0" encoding="utf-8"?>
<!-- Generator: Adobe Illustrator 21.0.2, SVG Export Plug-In . SVG Version: 6.00 Build 0)  -->
<svg version="1.1" id="Layer_1" xmlns="http://www.w3.org/2000/svg" xmlns:xlink="http://www.w3.org/1999/xlink" x="0px" y="0px"
	 viewBox="0 0 55 55" style="enable-background:new 0 0 55 55;" xml:space="preserve">
<style type="text/css">
	.st0{clip-path:url(#SVGID_2_);fill:#AADD22;}
	.st1{clip-path:url(#SVGID_2_);fill:#FFFFFF;}
</style>
<g>
	<defs>
		<rect id="SVGID_1_" width="55" height="55"/>
	</defs>
	<clipPath id="SVGID_2_">
		<use xlink:href="#SVGID_1_"  style="overflow:visible;"/>
	</clipPath>
	<path class="st0" d="M55,27.5C55,42.7,42.7,55,27.5,55S0,42.7,0,27.5S12.3,0,27.5,0S55,12.3,55,27.5"/>
	<path class="st1" d="M27.5,12.1c-1.3,0-2.6,0.1-3.7,0.3c-0.6,0.1-1.1,0.9-0.9,1.5c0.2,0.6,0.2,1.1,0.2,1.6h-1.9
		c-0.2-0.5-0.6-0.8-1.1-0.8h-2.4c-0.5,0-0.9,0.3-1,0.8h-1.1c-2,0-3.9,1.4-3.9,3.4v17.1c0,2,1.9,3.4,3.9,3.4h23.9
		c2,0,3.9-1.4,3.9-3.4V19c0-2-1.9-3.4-3.9-3.4h-1.2c-0.2-0.5-0.6-0.8-1.1-0.8h-2.4c-0.5,0-0.9,0.3-1,0.8h-1.8c0-0.4,0-1,0.2-1.6
		c0.2-0.6-0.2-1.4-0.9-1.5C30.1,12.2,28.8,12.1,27.5,12.1 M27.5,14.5c0.7,0,1.4,0,2.1,0.1c0,0.3-0.1,0.6,0,0.9h-4.2
		c0-0.3,0-0.6,0-0.9C26.1,14.6,26.8,14.5,27.5,14.5 M15.6,17.8h23.9c1,0,1.6,0.6,1.6,1.1v17.1c0,0.5-0.6,1.1-1.6,1.1H15.6
		c-1,0-1.6-0.6-1.6-1.1V19C14,18.4,14.6,17.8,15.6,17.8 M24.8,20.6v4.3h-4.2v5.4h4.2v4.3h5.4v-4.3h4.2v-5.4h-4.2v-4.3H24.8z"/>
</g>
</svg>
