<?xml version="1.0" encoding="utf-8"?>
<!-- Generator: Adobe Illustrator 21.0.2, SVG Export Plug-In . SVG Version: 6.00 Build 0)  -->
<svg version="1.1" id="Layer_1" xmlns="http://www.w3.org/2000/svg" xmlns:xlink="http://www.w3.org/1999/xlink" x="0px" y="0px"
	 viewBox="0 0 55 55" style="enable-background:new 0 0 55 55;" xml:space="preserve">
<style type="text/css">
	.st0{clip-path:url(#SVGID_2_);fill:#FF0033;}
	.st1{clip-path:url(#SVGID_2_);fill:#FFFFFF;}
</style>
<g>
	<defs>
		<rect id="SVGID_1_" width="55" height="55"/>
	</defs>
	<clipPath id="SVGID_2_">
		<use xlink:href="#SVGID_1_"  style="overflow:visible;"/>
	</clipPath>
	<path class="st0" d="M55,27.5C55,42.7,42.7,55,27.5,55S0,42.7,0,27.5S12.3,0,27.5,0S55,12.3,55,27.5"/>
	<path class="st1" d="M39.1,36.8c0,0.8-0.7,1.5-1.5,1.5c-0.8,0-1.5-0.7-1.5-1.5V24.4c0-0.8,0.7-1.5,1.5-1.5c0.8,0,1.5,0.7,1.5,1.5
		V36.8z"/>
	<path class="st1" d="M18.7,24.4c0-0.8-0.7-1.5-1.5-1.5s-1.5,0.7-1.5,1.5v12.4c0,0.8,0.7,1.5,1.5,1.5s1.5-0.7,1.5-1.5V24.4z"/>
	<path class="st1" d="M25.5,24.4c0-0.8-0.7-1.5-1.5-1.5s-1.5,0.7-1.5,1.5v12.4c0,0.8,0.7,1.5,1.5,1.5s1.5-0.7,1.5-1.5V24.4z"/>
	<path class="st1" d="M32.3,24.4c0-0.8-0.7-1.5-1.5-1.5s-1.5,0.7-1.5,1.5v12.4c0,0.8,0.7,1.5,1.5,1.5s1.5-0.7,1.5-1.5V24.4z"/>
	<path class="st1" d="M39.9,15.3l-8.2-3.8c-2.7-1.2-5.8-1.2-8.4,0l-8.2,3.8c-0.5,0.2-0.3,0.9,0.2,0.9h24.4
		C40.2,16.2,40.4,15.5,39.9,15.3"/>
	<path class="st1" d="M43.1,20c0-0.8-0.6-1.4-1.4-1.4H13.3c-0.8,0-1.4,0.6-1.4,1.4c0,0.8,0.6,1.4,1.4,1.4h28.4
		C42.5,21.3,43.1,20.7,43.1,20"/>
	<path class="st1" d="M43.8,41.2c0-0.8-0.6-1.4-1.4-1.4H12.7c-0.8,0-1.4,0.6-1.4,1.4c0,0.8,0.6,1.4,1.4,1.4h29.7
		C43.1,42.6,43.8,42,43.8,41.2"/>
</g>
</svg>
