<?xml version="1.0" encoding="utf-8"?>
<!-- Generator: Adobe Illustrator 21.0.2, SVG Export Plug-In . SVG Version: 6.00 Build 0)  -->
<svg version="1.1" id="Layer_1" xmlns="http://www.w3.org/2000/svg" xmlns:xlink="http://www.w3.org/1999/xlink" x="0px" y="0px"
	 viewBox="0 0 55 55" style="enable-background:new 0 0 55 55;" xml:space="preserve">
<style type="text/css">
	.st0{clip-path:url(#SVGID_2_);fill:#FFAA00;}
	.st1{clip-path:url(#SVGID_2_);fill:#FFFFFF;}
</style>
<g>
	<defs>
		<rect id="SVGID_1_" width="55" height="55"/>
	</defs>
	<clipPath id="SVGID_2_">
		<use xlink:href="#SVGID_1_"  style="overflow:visible;"/>
	</clipPath>
	<path class="st0" d="M55,27.5C55,42.7,42.7,55,27.5,55S0,42.7,0,27.5S12.3,0,27.5,0S55,12.3,55,27.5"/>
	<path class="st1" d="M18.4,15.1c-2,0-3.6,1.6-3.6,3.6c0,2,1.6,3.6,3.6,3.6s3.6-1.6,3.6-3.6C22,16.7,20.4,15.1,18.4,15.1"/>
	<path class="st1" d="M35.6,15.1c-2,0-3.6,1.6-3.6,3.6c0,2,1.6,3.6,3.6,3.6s3.6-1.6,3.6-3.6C39.2,16.7,37.6,15.1,35.6,15.1"/>
	<path class="st1" d="M43.3,19.2L39,23.5c-0.9,0.9-2.1,1.4-3.4,1.4c-1.3,0-2.5-0.5-3.3-1.4L28,19.2c-0.2-0.2-0.5-0.3-0.8-0.3
		c-0.4-0.1-0.8,0.1-1.1,0.3l-4.3,4.3c-0.9,0.9-2.2,1.4-3.4,1.4c-1.3,0-2.5-0.5-3.3-1.4l-4.3-4.3c-0.2-0.2-0.5-0.4-0.9-0.4
		c-0.4,0-0.6,0.1-0.8,0.3c-0.3,0.2-0.4,0.6-0.4,0.9c0,0.3,0.1,0.6,0.4,0.9l5.8,5.8v13c0,0.4,0.1,0.7,0.4,0.9
		c0.2,0.2,0.5,0.3,0.8,0.3c0.7,0,1.2-0.5,1.2-1.2v-5.6c0-0.7,0.5-1.2,1.2-1.2s1.2,0.5,1.2,1.2v5.5c0,0.4,0.1,0.7,0.4,0.9
		c0.2,0.2,0.5,0.3,0.8,0.3c0.7,0,1.2-0.5,1.2-1.2V26.7l5-5l5.1,5.1l-2.1,9h2.1v3.9c0,0.4,0.1,0.7,0.4,0.9c0.2,0.2,0.5,0.3,0.8,0.3
		c0.7,0,1.2-0.5,1.2-1.2v-3.9h2.3v3.9c0,0.4,0.1,0.7,0.4,0.9c0.2,0.2,0.5,0.3,0.8,0.3c0.7,0,1.2-0.5,1.2-1.2v-3.9h2.1l-2.2-9.1
		l5.9-5.9c0.2-0.2,0.4-0.5,0.4-0.8c0-0.3-0.1-0.7-0.4-0.9C44.6,18.7,43.8,18.7,43.3,19.2"/>
</g>
</svg>
