<?xml version="1.0" encoding="utf-8"?>
<!-- Generator: Adobe Illustrator 21.0.2, SVG Export Plug-In . SVG Version: 6.00 Build 0)  -->
<svg version="1.1" id="Layer_1" xmlns="http://www.w3.org/2000/svg" xmlns:xlink="http://www.w3.org/1999/xlink" x="0px" y="0px"
	 viewBox="0 0 55 55" style="enable-background:new 0 0 55 55;" xml:space="preserve">
<style type="text/css">
	.st0{clip-path:url(#SVGID_2_);fill:#FF7700;}
	.st1{clip-path:url(#SVGID_2_);fill:#FFFFFF;}
</style>
<g>
	<defs>
		<rect id="SVGID_1_" width="55" height="55"/>
	</defs>
	<clipPath id="SVGID_2_">
		<use xlink:href="#SVGID_1_"  style="overflow:visible;"/>
	</clipPath>
	<path class="st0" d="M55,27.5C55,42.7,42.7,55,27.5,55S0,42.7,0,27.5S12.3,0,27.5,0S55,12.3,55,27.5"/>
	<path class="st1" d="M33.7,37.7c1.3,0,2.4,1.1,2.4,2.4c0,1.3-1.1,2.4-2.4,2.4c-1.3,0-2.4-1.1-2.4-2.4
		C31.3,38.7,32.3,37.7,33.7,37.7"/>
	<path class="st1" d="M24.6,37.7c1.3,0,2.4,1.1,2.4,2.4c0,1.3-1.1,2.4-2.4,2.4c-1.3,0-2.4-1.1-2.4-2.4
		C22.2,38.7,23.3,37.7,24.6,37.7"/>
	<path class="st1" d="M33.3,23.3c0.6,0.5,0.6,1.4,0.1,1.9l-4.2,4.5c-0.3,0.3-0.6,0.4-1,0.4c-0.4,0-0.7-0.1-1-0.4L25,27.5
		c-0.5-0.6-0.5-1.4,0.1-1.9c0.5-0.5,1.4-0.5,1.9,0.1l1.1,1.2l3.2-3.5C31.9,22.9,32.7,22.8,33.3,23.3"/>
	<path class="st1" d="M21.8,31.4c0.1,0.6,0.7,1.1,1.3,1.1h12.5c0.7,0,1.2-0.5,1.3-1.1l1.5-9.1l0-0.2c0-0.7-0.6-1.4-1.4-1.4H20
		l1.7,9.9L21.8,31.4L21.8,31.4L21.8,31.4z M23.1,35.2c-1.9,0-3.5-1.3-4-3.1c0-0.1-0.1-0.2-0.1-0.3v0l-2.6-15.4
		c-0.1-0.7-0.7-1.1-1.3-1.1h-2.5c-0.7,0-1.4-0.6-1.4-1.4c0-0.7,0.6-1.4,1.4-1.4h2.5c2,0,3.7,1.4,4,3.4l0.3,2h17.6
		c2.3,0,4.1,1.9,4.1,4.1c0,0.2,0,0.5-0.1,0.7l-1.5,9.1c-0.3,2-2,3.4-4,3.4H23.1z"/>
</g>
</svg>
