<?xml version="1.0" encoding="utf-8"?>
<!-- Generator: Adobe Illustrator 21.0.2, SVG Export Plug-In . SVG Version: 6.00 Build 0)  -->
<svg version="1.1" id="Layer_1" xmlns="http://www.w3.org/2000/svg" xmlns:xlink="http://www.w3.org/1999/xlink" x="0px" y="0px"
	 viewBox="0 0 55 55" style="enable-background:new 0 0 55 55;" xml:space="preserve">
<style type="text/css">
	.st0{clip-path:url(#SVGID_2_);fill:#9911AA;}
	.st1{clip-path:url(#SVGID_2_);fill:#FFFFFF;}
</style>
<g>
	<defs>
		<rect id="SVGID_1_" width="55" height="55"/>
	</defs>
	<clipPath id="SVGID_2_">
		<use xlink:href="#SVGID_1_"  style="overflow:visible;"/>
	</clipPath>
	<path class="st0" d="M55,27.5C55,42.7,42.7,55,27.5,55C12.3,55,0,42.7,0,27.5S12.3,0,27.5,0C42.7,0,55,12.3,55,27.5"/>
	<path class="st1" d="M39.9,20.2c2.3-2.8,2.9-6.9,0.8-8.7s-6.1-0.4-8.4,2.3c-2,2.4-1.9,4.8-0.6,6.5L14.9,39.8l0,0.1
		c-0.1,0.7,0.2,1.3,0.7,1.7c0.5,0.4,1.2,0.6,1.8,0.4l0.1,0l16.1-20.1C35.6,22.9,38,22.5,39.9,20.2"/>
	<path class="st1" d="M14.2,15.2L14.2,15.2c-0.3,0.3-0.4,0.8-0.1,1.1l9.1,10.9l1.1-1.2l-9-10.7C15,15,14.5,15,14.2,15.2"/>
	<polygon class="st1" points="36.9,44.3 38.5,43 28.6,31.2 27.5,32.6 	"/>
	<polygon class="st1" points="39.7,42 41.3,40.6 30.7,28.6 29.6,30 	"/>
	<path class="st1" d="M16.6,13.3L16.6,13.3c-0.3,0.3-0.4,0.8-0.1,1.1l8.8,10.5l1-1.2l-8.7-10.3C17.4,13,16.9,13,16.6,13.3"/>
</g>
</svg>
