<?xml version="1.0" encoding="utf-8"?>
<!-- Generator: Adobe Illustrator 21.0.2, SVG Export Plug-In . SVG Version: 6.00 Build 0)  -->
<svg version="1.1" id="Layer_1" xmlns="http://www.w3.org/2000/svg" xmlns:xlink="http://www.w3.org/1999/xlink" x="0px" y="0px"
	 viewBox="0 0 55 55" style="enable-background:new 0 0 55 55;" xml:space="preserve">
<style type="text/css">
	.st0{clip-path:url(#SVGID_2_);fill:#0088FF;}
	.st1{clip-path:url(#SVGID_2_);fill:#FFFFFF;}
</style>
<g>
	<defs>
		<rect id="SVGID_1_" width="55" height="55"/>
	</defs>
	<clipPath id="SVGID_2_">
		<use xlink:href="#SVGID_1_"  style="overflow:visible;"/>
	</clipPath>
	<path class="st0" d="M55,27.5C55,42.7,42.7,55,27.5,55S0,42.7,0,27.5S12.3,0,27.5,0S55,12.3,55,27.5"/>
	<path class="st1" d="M14,37.1l0.5-0.1c3.4-1.1,7.1-0.6,10.1,1.5l1.7,1.1c0.4,0.2,0.9,0.2,1.2,0l1.6-1.1c3-2.1,6.8-2.6,10.2-1.5
		l0.4,0.1c0.6,0.2,1.1-0.2,1.1-0.8V16.9c0-0.5-0.3-0.9-0.7-1l-0.6-0.2c-3.6-1.2-7.5-0.7-10.6,1.5l-1.5,1c-0.4,0.2-0.9,0.2-1.2,0
		l-1.6-1.1c-3-2-6.8-2.6-10.2-1.5l-0.8,0.2c-0.4,0.1-0.7,0.6-0.7,1v19.4C12.9,36.9,13.5,37.3,14,37.1"/>
	<rect x="26.1" y="15" class="st0" width="1.8" height="32"/>
</g>
</svg>
