<?xml version="1.0" encoding="utf-8"?>
<!-- Generator: Adobe Illustrator 21.0.2, SVG Export Plug-In . SVG Version: 6.00 Build 0)  -->
<svg version="1.1" id="Layer_1" xmlns="http://www.w3.org/2000/svg" xmlns:xlink="http://www.w3.org/1999/xlink" x="0px" y="0px"
	 viewBox="0 0 55 55" style="enable-background:new 0 0 55 55;" xml:space="preserve">
<style type="text/css">
	.st0{clip-path:url(#SVGID_2_);fill:#0088FF;}
	.st1{clip-path:url(#SVGID_2_);fill:#FFFFFF;}
	.st2{clip-path:url(#SVGID_2_);fill:none;stroke:#FFFFFF;stroke-width:1.5;stroke-miterlimit:10;}
</style>
<g>
	<defs>
		<rect id="SVGID_1_" width="55" height="55"/>
	</defs>
	<clipPath id="SVGID_2_">
		<use xlink:href="#SVGID_1_"  style="overflow:visible;"/>
	</clipPath>
	<path class="st0" d="M55,27.5C55,42.7,42.7,55,27.5,55S0,42.7,0,27.5S12.3,0,27.5,0S55,12.3,55,27.5"/>
	<path class="st1" d="M28.4,14.2c-1.5,0-3,0.2-4.1,0.8l-13.3,6.1c-0.6,0.3-1,0.6-1.4,0.9C9.2,22.4,9,22.9,9,23.4c0,0.1,0,0.1,0,0.2
		v7c-0.5,0.2-0.9,0.8-0.9,1.4c0,0.8,0.6,1.5,1.3,1.5c0.7,0,1.3-0.7,1.3-1.5c0-0.7-0.4-1.2-0.9-1.4V25c0.3,0.2,0.6,0.5,1.1,0.7
		l5.5,2.5v7.1c0,0.9,0.4,1.6,1.1,2.3c0.6,0.7,1.5,1.2,2.6,1.7c2.2,0.9,5.1,1.5,8.3,1.5s6.2-0.6,8.3-1.5c1.1-0.5,2-1,2.6-1.7
		c0.6-0.7,1.1-1.5,1.1-2.3v-7.1l5.5-2.5c0.6-0.3,1-0.6,1.4-1s0.5-0.8,0.5-1.3c0-0.5-0.2-0.9-0.5-1.3s-0.8-0.7-1.4-0.9L32.5,15
		C31.3,14.5,29.9,14.2,28.4,14.2 M28.4,15.2c1.4,0,2.8,0.2,3.8,0.7L45.5,22c0.5,0.2,0.9,0.5,1.1,0.7c0.2,0.2,0.3,0.5,0.3,0.6
		s-0.1,0.4-0.3,0.6c-0.2,0.2-0.6,0.5-1.1,0.7l-13.3,6.1c-2.1,0.9-5.6,0.9-7.6,0L17,27.4c0,0,0,0,0,0l-5.7-2.6
		c-0.5-0.2-0.9-0.5-1.1-0.7c-0.2-0.2-0.3-0.4-0.3-0.6v0c0-0.2,0.1-0.4,0.3-0.6c0.2-0.2,0.6-0.5,1.1-0.7l13.3-6.1
		C25.6,15.4,27,15.2,28.4,15.2 M39.5,28.5v6.7c0,0.5-0.2,1.1-0.8,1.6c-0.5,0.5-1.3,1.1-2.4,1.5c-2,0.9-4.9,1.4-8,1.4s-6-0.6-8-1.4
		c-1-0.4-1.8-1-2.3-1.5c-0.5-0.5-0.8-1.1-0.8-1.6v-6.7l7,3.2c2.3,1.1,5.9,1.1,8.3,0L39.5,28.5z M9.4,31.4c0.3,0,0.4,0.2,0.4,0.5
		c0,0.3-0.2,0.5-0.4,0.5c-0.3,0-0.5-0.2-0.5-0.5C9,31.6,9.2,31.4,9.4,31.4"/>
	<path class="st2" d="M28.4,14.2c-1.5,0-3,0.2-4.1,0.8l-13.3,6.1c-0.6,0.3-1,0.6-1.4,0.9C9.2,22.4,9,22.9,9,23.4c0,0.1,0,0.1,0,0.2
		v7c-0.5,0.2-0.9,0.8-0.9,1.4c0,0.8,0.6,1.5,1.3,1.5c0.7,0,1.3-0.7,1.3-1.5c0-0.7-0.4-1.2-0.9-1.4V25c0.3,0.2,0.6,0.5,1.1,0.7
		l5.5,2.5v7.1c0,0.9,0.4,1.6,1.1,2.3c0.6,0.7,1.5,1.2,2.6,1.7c2.2,0.9,5.1,1.5,8.3,1.5s6.2-0.6,8.3-1.5c1.1-0.5,2-1,2.6-1.7
		c0.6-0.7,1.1-1.5,1.1-2.3v-7.1l5.5-2.5c0.6-0.3,1-0.6,1.4-1s0.5-0.8,0.5-1.3c0-0.5-0.2-0.9-0.5-1.3s-0.8-0.7-1.4-0.9L32.5,15
		C31.3,14.5,29.9,14.2,28.4,14.2z M28.4,15.2c1.4,0,2.8,0.2,3.8,0.7L45.5,22c0.5,0.2,0.9,0.5,1.1,0.7c0.2,0.2,0.3,0.5,0.3,0.6
		s-0.1,0.4-0.3,0.6c-0.2,0.2-0.6,0.5-1.1,0.7l-13.3,6.1c-2.1,0.9-5.6,0.9-7.6,0L17,27.4c0,0,0,0,0,0l-5.7-2.6
		c-0.5-0.2-0.9-0.5-1.1-0.7c-0.2-0.2-0.3-0.4-0.3-0.6v0c0-0.2,0.1-0.4,0.3-0.6c0.2-0.2,0.6-0.5,1.1-0.7l13.3-6.1
		C25.6,15.4,27,15.2,28.4,15.2z M39.5,28.5v6.7c0,0.5-0.2,1.1-0.8,1.6c-0.5,0.5-1.3,1.1-2.4,1.5c-2,0.9-4.9,1.4-8,1.4s-6-0.6-8-1.4
		c-1-0.4-1.8-1-2.3-1.5c-0.5-0.5-0.8-1.1-0.8-1.6v-6.7l7,3.2c2.3,1.1,5.9,1.1,8.3,0L39.5,28.5z M9.4,31.4c0.3,0,0.4,0.2,0.4,0.5
		c0,0.3-0.2,0.5-0.4,0.5c-0.3,0-0.5-0.2-0.5-0.5C9,31.6,9.2,31.4,9.4,31.4z"/>
</g>
</svg>
