<svg version="1" xmlns="http://www.w3.org/2000/svg" width="933.333" height="933.333" viewBox="0 0 700.000000 700.000000"><path d="M199 166.9V272l2.8.1 2.7.1-2.5.7c-1.9.5-2.9.2-4.2-1.5-2.1-2.6-2.3-4.4-.6-4.4.7 0 0-1.1-1.5-2.5s-2.7-3-2.7-3.5c0-.6-.5-1-1.1-1-.8 0-.8.4 0 1.3.8 1 .7 1.7-.1 2.5-1.2 1.2-.3 4.6 1.1 3.8.5-.3 1.2.1 1.5 1 .9 2.5.7 2.7-1.1 1.3-.9-.8-1.4-.9-1-.2.4.6.2 1.3-.5 1.5-.7.3-.9 1.2-.5 2.2.5 1.2 1.3 1.5 2.7 1.1 1.5-.5 2-.2 1.9 1.2 0 1-.3 1.3-.5.7-.3-.6-1.6-.9-3-.6-1.4.2-2.4.1-2.3-.4.1-.5.1-1.7 0-2.7-.1-2.1-3.1-2.3-3.1-.1 0 .8-.4 1.2-1 .9-.6-.3-.7.1-.4.9.3.9.1 1.6-.5 1.6-1.2 0-1.4-1.1-1.2-4.6.2-1.6-.3-2-2-1.9-2.6.2-3.7 2.6-3.5 7.8.1 2-.2 3.6-.7 3.4-.5-.1-.9-.7-.9-1.2 0-2.8-1.9-3.1-7.3-1.3-4.6 1.5-5.9 1.6-7.7.6-3-1.7-3.7-2.8-3.1-4.7.4-1.3.3-1.3-.5-.2-.5.7-1.5 1-2.1.7-.6-.4-1.1 0-1.1.9s-.5 1.3-1 1c-.6-.3-1.3 0-1.6.9-.5 1.2-.8 1.2-2.5-.2-2.5-2.1-9.9-2.6-9.9-.6 0 .8-.6 1.1-1.6.7-.9-.3-2 0-2.5.8-.7 1.2-1.1 1.2-1.8.1-.6-1.1-1.1-1-2.5.3-2 2.1-2.1 6.5-.1 6.5.8 0 1.2.6.9 1.4-.3.9-1.2 1.2-2.1.9-1.3-.5-1.5-.1-1 1.7.4 1.7.3 2-.6 1.1-.9-.9-.9-1.6 0-3 1-1.6.9-2.2-.3-3.2-1.3-1-1.7-1-2.5.2-.6.9-.9-.1-.9-3.3 0-6-4.1-10.7-5.3-6.1-.4 1.7-.5 1.7-.6.1-.1-1.3-.8-1.7-3.1-1.4-1.7.2-3.3-.1-3.7-.7-.4-.6-1-.3-1.4.9-.6 1.5-.8 1.5-.8.3-.1-1.9-4.1-3.3-5.5-1.9-.6.6-1.8 1-2.8 1-1 0-1.7.3-1.7.7.5 2.8-.3 5.3-1.6 5.3-1.4 0-1.9 1.1-1.6 3.7.1.7-.3 1.3-.9 1.3-.5 0-1-1.5-1.1-3.3 0-1.7-.4-4.1-.9-5.2-.9-1.9-.9-1.9-1.6.3-.6 2-1.1 2.2-3.7 1.6-1.8-.4-2.7-.2-2.3.4.3.5 2.3 1.3 4.3 1.7 3.2.6 3.5.9 1.8 1.5-1.1.5-1.4.9-.7.9.6.1 1.2.8 1.2 1.7 0 .8-.4 1.2-1 .9-.5-.3-1.1-.1-1.1.4-.1.6-.2 1.5-.3 2.1 0 .5-.4 1-.8 1h-1.3c-.2 0 0-1.1.5-2.5.6-1.6.6-2.5 0-2.5s-1 .7-1 1.5c0 2.3-1.8 1.8-2.3-.8l-.4-2.2-.2 2.2c0 1.3-.5 2.3-1.1 2.3-.5 0-1-1-1.1-2.3-.1-1.7-.3-1.5-1 1-.5 1.8-1.4 3.3-2 3.3-.6 0-.7-.5-.4-1 .3-.6 0-1.3-.8-1.6-.8-.3-1.7-1.4-2-2.5-.5-1.7-1.2-1.9-6.1-1.6-4.2.3-5.6.1-5.6-1 0-1.7-.8-1.7-2.6.2-.9.8-2.4 1.5-3.4 1.5-1.5 0-1.7-.6-1.3-3.2.5-3.3.5-3.3-1.6-1.4-1.2 1.1-2.1 1.5-2.1 1 0-1.4-2 1.9-2 3.3 0 .7.9 1.3 2 1.3 1 0 2.3.8 2.9 1.7.5 1 1.3 1.5 1.6 1.1.4-.4 1.4-.1 2.1.7.8.8 2.1 1.2 2.8.9.8-.3 2.6.2 4 1.1 1.4 1 3.3 1.5 4.1 1.1.9-.3 2 .3 2.7 1.4.9 1.4 1.6 1.6 2.5.8.9-.7 1.3-.7 1.3.1 0 .8.8 1 2.1.6 1.6-.5 2.2-.2 2.6 1.5.4 1.6.8 1.8 1.4.8.7-1 1.2-1.1 2.8-.1 1.4.9 2.2.9 2.7.2.4-.8.9-.7 1.4.1.9 1.5 8 2.1 8 .7 0-.6.6-.3 1.3.6.6 1 2.6 1.9 4.2 2 2.8.2 3 0 2.8-3.3-.1-3.4-.1-3.5 1.2-1.1.7 1.4 1.1 3 .9 3.5-.2.6 1.4 2.1 3.6 3.3 2.2 1.2 4 1.7 4 1.2s.9-.9 2-.9 2 .4 2 .9c0 .4 1.3.8 3 .7 1.7-.1 3-.7 3-1.4 0-.6.7-1.2 1.5-1.2 1.8 0 2 2.6.3 3.3-.8.3-.5.6.6.6 1.2.1 1.6.6 1.2 1.6-.6 1.7 2.2 5.5 4.1 5.5.7 0 1-.7.7-1.8-.5-1.4-.3-1.4 1 .2 1.6 1.9 1.6 1.9 1.6-.6 0-2.1.5-2.6 2.5-2.6 1.7 0 2.5.6 2.5 1.8 0 .9.9 2.5 2 3.5s2 1.3 2 .7c0-.7.9-1.2 2.1-1.2 1.5 0 1.9.5 1.5 1.5-.3.9 0 1.5 1 1.5s1.3-.7.9-2.8l-.5-2.7 1.1 2.5c1.1 2.4 1.1 2.4 1.9.5.5-1.1.9-1.6.9-1 .1.5.6.3 1.1-.5.8-1.2 1-1.1 1 .7 0 1.6.4 2.1 1.5 1.7.8-.4 1.5-.1 1.5.5s.7 1.1 1.5 1.1 1.5-.7 1.5-1.5.5-1.5 1-1.5c.6 0 1 .4 1 1 0 1.7 2.8 1.1 4-.8.9-1.4 1-1.4.5.6-.5 1.7-.1 2.9 1.4 4.3 1.2 1.1 1.8 2.6 1.4 3.5-.4 1.2-.8 1.3-1.4.3-.4-.7-.6-1.6-.4-1.9.2-.3-.5-1.1-1.5-1.8-1.4-.9-1.9-.8-2.4.3-.3.9.1 1.5.9 1.5s1.5.5 1.5 1.1c0 .5-.8.9-1.7.8-3.1-.3-4.4.1-3.8 1 .9 1.6-1.3 2.2-2.7.8-1.2-1.2-1.4-.6-1.4 4 0 5.8-1.5 7.9-4.5 6.3-.9-.5-1.9-.6-2.3-.3-.4.4-.9-.3-1.3-1.5-.3-1.2-.9-1.9-1.4-1.6-.5.3-.9-.2-.9-1 0-1.2.6-1.3 3.2-.5 3.5.9 7.3 1.2 5.1.2-.7-.2-1.3-1.1-1.3-1.9 0-.9-.5-1.2-1-.9-.6.3-1.4-.4-1.9-1.7-.6-1.3-1-1.7-1-1.1-.1 2-1.8 1.5-2.4-.7-.6-2.5-3-1.8-4.6 1.3-1.1 2.1-1.1 2.1-.6-.5.3-1.5.1-2.9-.3-3.2-.5-.3-.9 1.1-1 3.1-.2 3.8-1.6 6.2-2.9 4.9-.4-.4-.3-1 .3-1.4.5-.4 1-2.2 1.1-4 0-2.4-.3-3-1.2-2.2-.6.5-1.5.7-1.8.3-.4-.3-.7-.1-.7.5 0 1.5 1.7 2.4 2.3 1.2.3-.6.4-.5.3.2-.4 2-3 1.5-3.6-.7-.3-1.3-1.4-2.1-3.2-2.2-1.6-.1-2.8.2-2.8.7 0 .5 1.2 2.3 2.8 4.1 1.8 2.2 2.2 3.1 1 2.7-.9-.4-1.9-.2-2.2.5-.2.7-.5.1-.5-1.3-.1-1.9-.3-2.2-1-1-.6.8-.8 1.7-.6 2 .2.4-.2.7-1 .7-1.2 0-1.2-.3-.2-1.5 1-1.3.9-1.4-1-.3-1.9 1-2.3.9-2.3-.4 0-.9.5-1.3 1-1 .6.3 1 .2 1-.2 0-1.3-3.3-3-5.2-2.7-1.1.1-1.8-.4-1.8-1.3 0-1.3.3-1.3 1.5-.3 1 .8 1.5.9 1.5.2 0-1.9-3.5-3.3-5-1.9-1 .9-1.4.9-1.7-.1-.3-.6-1.5-1.2-2.7-1.2-3 0-3.9-1-2.4-2.7.6-.7.8-1.6.5-2-.7-.7-3.7 1.6-3.4 2.5.3.9-1 1.2-2.5.8-.7-.3-2-.6-2.8-.9-3.6-1.1-6.9 3.6-3.5 4.9 1.7.7 2.1 3.4.5 3.4-.5 0-1-.7-1-1.6 0-.8-.4-1.3-.9-1-.5.4-1.4-.6-1.9-2.1-.9-2.5-1.1-2.6-1.1-.6-.1 1.6-.5 2.1-1.7 1.6-.8-.3-1.3-1.2-1-2 .4-.8-.4-1.7-1.9-2.3-1.4-.5-2.5-1.5-2.5-2.2 0-1-.2-1-.9.1s-1.3 1-3.5-.4c-1.4-1-2.6-1.3-2.6-.9 0 .5-.7.1-1.4-.9-.8-1-1.7-1.8-2-1.8-.6 0-2.4-.5-5.3-1.5-3.7-1.4-6.3-1-6.3.8 0 1 .7 1.8 1.5 1.8s1.6.6 1.7 1.2c0 .7.2 1.7.2 2.3.2 1.7 1.7 3.6 2.5 3.1.4-.3.7.3.8 1.3.2 2.2-4.3 2.7-5.1.5-.3-.8-1-1.3-1.5-.9-1.4.8-2.3-3-1.6-7.2.3-2 .8-3.9 1-4.1.3-.3 0-1.1-.6-1.9-.6-.7-.9-2.2-.6-3.3.5-2.1-.7-2.8-1.8-1-.4.6-1.1.8-1.6.5-1.1-.8-1.1 2.8 0 7.8.8 3.1.7 3.7-.5 3.3-.8-.3-1.4-.1-1.4.5 0 .5.7 1.2 1.5 1.5.9.4 2 1.5 2.6 2.6.7 1.3.7 1.8.1 1.4-.6-.3-1.4-.1-1.8.5-.4.8-1.2.4-2.1-1.2-1.4-2.3-1.4-2.2-.9 1.5.3 2.2 1.2 4.4 2.1 4.8 2.2 1.3 1.8 2.7-.7 2-1.4-.3-1.9-.2-1.4.6.4.7.2 1.2-.3 1.2-.6 0-1.1-.5-1.1-1.1 0-.5-.5-.7-1-.4-1.9 1.2-3.9-1.5-3.5-4.7.5-4 1.3-4.6 2.4-1.7.8 2 1 2.1 1.6.7.4-1-.1-2.4-1.4-3.7-1.2-1.2-2.1-2.8-2.1-3.7 0-1-.6-1.4-1.4-1.1-1 .4-1.6-.2-2-1.6-.3-1.6-.4-1.4-.4.8 0 7 0 7.1-3.8 7.2-2.3.1-3.7-.4-4.1-1.4-.4-1.1-.8-1.2-1.3-.2-.5.7-.3 2 .3 3 .7 1.1 1.4 1.4 1.8.8.3-.6 1.6-.1 3 1.1l2.4 2.1-2.5-.7c-2.5-.7-2.5-.7-.6 1.5 1.7 1.9 1.7 2.1.3 2.1-1 0-1.7-.5-1.7-1.1 0-.5-.4-.7-1-.4-.5.3-1-.2-1-1.2-.1-1.7-.2-1.7-1.5.1-1.3 1.7-1.5 1.7-1.5.3 0-.9-1.7-2.6-3.8-3.9-2.2-1.3-3.7-2.9-3.5-3.6.3-.7-.4-1.2-1.6-1.2-2.6 0-2.9 3.7-.3 5.7 1.6 1.3 1.6 1.3-.3 1.1-1.1-.1-2.6.2-3.4.6-1.1.7-1.3.5-.8-.7.3-1 .2-1.7-.2-1.7-.5 0-1.2.6-1.4 1.2-.3.7-.6 0-.6-1.5-.1-1.9.3-2.6 1.1-2.1.7.5.8.3.4-.5-.5-.7-1.4-1-2.2-.7-.8.3-1.4-.1-1.4-.9s-.4-1.5-1-1.5c-.5 0-1 .6-1 1.4 0 1.9-2.5 2.7-3.9 1.3-.8-.8-1.1-.7-1.1.4 0 .8.9 2.2 2 3.2 1.1.9 2 2.3 2 3.2 0 .9.6 1.2 1.5.9.8-.4 1.5-.1 1.5.5 0 1-1.3 1.5-3.5 1.2-.5-.1-.1.6 1 1.4 1.2 1 2.1 1.2 2.3.5.6-1.7 3.2-1.1 3.2.7 0 2.2 8 10.3 8 8.2.1-.8.8-.1 1.6 1.4 1.5 2.8 3.8 2.9 2.7.2-.3-.8 0-1.5.6-1.5 1 0 1.5 1.3 1.2 3.2 0 .6 2.9 1.9 4.9 2.3.3 0 1.5.7 2.8 1.4 1.3.7 4.1 1.3 6.3 1.4 2.1.1 3.9.6 3.9 1.2 0 .5.4.4.9-.4.5-.7.6-2.2.3-3.4-.3-1.4-.1-1.8.7-1.3.6.4.9 1.1.6 1.5-.2.5.7 1.9 2 3.1l2.5 2.3-2.1 2c-1.1 1-2.7 1.6-3.4 1.3-1-.3-1.7.3-2.1 1.9-.3 1.4-1 2.5-1.4 2.5-.5 0-1.1 1-1.3 2.2-.4 1.9-.4 1.8-.6-.5 0-1.6-.5-2.6-1.1-2.2-.5.3-1 .1-1-.6 0-.8-.3-.9-1.3 0-1.5 1.2-2.7.5-2.7-1.6 0-.8.5-1.1 1.2-.7.8.5.9-.2.5-2.6-.4-1.8-.7-3.6-.7-4.1 0-.4-1.1-.6-2.4-.3-1.7.3-2.8-.2-3.5-1.3-1-1.7-1-1.6-1.1.3 0 1.4 1.1 2.4 3.5 3.4 3.6 1.4 4.6 3 1.9 3-1.2 0-1.4.7-.9 3.2.4 1.8.4 3 0 2.6-.5-.4-1.4-.3-2.2.3-1 .9-1.3.8-1.3-.3 0-.8-.7-2.3-1.5-3.4-1.1-1.4-1.4-1.5-.9-.2.5 1.3 0 1.6-2.3 1.2-5.9-1-6.6-.9-6.9 1-.3 2 1.5 6.6 2.6 6.6.5 0 .7-.7.6-1.6 0-.9.5-1.9 1.2-2.1.7-.3 1.2.5 1.2 2 0 2.7 2.3 5.2 4.9 5.2 1 0 1.6.9 1.6 2.5 0 1.9.5 2.5 2.2 2.5 1.1 0 2.5.3 2.9.7 1.6 1.6 2.3.7 1.4-1.7-1.1-2.9-.3-3.3 1.6-.8 1.3 1.7 1.4 1.7.8-.2-.5-1.6-.4-1.7.4-.5.8 1 .8 1.8 0 2.7-.6.7-.7 1.3-.2 1.4.5 0 1.6.2 2.5.4.8.1 4.1.6 7.3.9 3.2.4 6.9 1.1 8.2 1.6 1.9.8 2.4.6 2.4-.6 0-1.4.2-1.4 1.6-.3 1.5 1.2 1.6 1 1-2.1-.7-3.5-.7-3.5 1.1-1.4 1 1.1 2.4 1.9 3.1 1.6.6-.2 1.2.1 1.2.8 0 1.3 4.9 6 6.3 6 .5 0 .4-.6-.2-1.4-.9-1.1-.8-1.4.6-1.2 1.1 0 1.7-.5 1.7-1.7-.2-2.5 1.9-2.1 3.1.5.6 1.5 1.8 2.3 3.3 2.2 1.2 0 2.2.5 2.2 1.2 0 1 .6 1 2.7-.1 1.8-1 2.9-1.1 3.4-.4.4.6.9.3 1.3-.8.7-1.7.8-1.7 1.7-.1 1.2 2.1 6.5 2.4 7.2.5.3-.7.6-.5.6.5.1 2 1.6 2.4 2.6.7.4-.6 1.4-.8 2.2-.5 1.1.5 1.3.1.7-1.7-.6-2.1-.6-2.1 1.3-.4 1.1.9 2.3 1.4 2.6 1 .4-.3.7 0 .7.8 0 .9.7.5 1.9-1 1.9-2.4 4.1-2.2 4.1.5 0 .8.5 1.4 1.1 1.4.5 0 .7-.5.4-1-.3-.6-.1-1 .4-1 .6 0 1.1.5 1.1 1.1 0 .6.8.8 1.9.4 1.4-.4 2.1 0 2.4 1.2.3 1.2.5.8.6-1 0-1.5.5-2.7 1.1-2.7.5 0 .7.8.3 1.7-.5 1.7-.5 1.7 1.2.1 1.7-1.6 1.9-1.6 3.2.9.7 1.4 1.3 3.4 1.3 4.4 0 1 .5 2.1 1 2.4.8.5 1.6-5.6 1.1-8.8-.2-1.6 1-.6 1.9 1.5l.9 2.3v-2.4c.1-1.9.5-2.2 2.2-1.8 1.2.3 2.2 0 2.6-.9.4-1.2.7-1.2 1.8.3.7.9 1.1 2.4.8 3.3-.3 1.1 0 1 1.1-.4.8-1 1.9-1.5 2.4-1.2.6.3 1.2.1 1.4-.5.3-.8 1.1-.5 2.2.7 1.8 1.8 1.8 1.7 1.2-.3-.7-2.3.8-4.1 1.9-2.3.4.6-.1 2.2-.9 3.6-1.5 2.2-1.5 2.5-.1 3 .8.3 2.9.1 4.6-.5 4.5-1.6 5.7-1.4 6.1.9.3 2.1 2.4 2.4 2.2.4-.1-.7 1.7-1 4.7-.8 3.7.2 4.9-.1 4.9-1.2 0-1.6 1.6-1.9 2.5-.4.4.6 1 .8 1.5.5.5-.3 1.3.3 1.9 1.2.9 1.7 1 1.7 1.6 0 .8-2 6.5-2.4 6.5-.5 0 1 .3.9.9-.1.6-1 1-1 1.6-.1.6.9 1 .9 1.6-.1.5-.9.9-1 .9-.2 0 1.7 3.8.4 4.3-1.6.4-1.4.5-1.4.6.1 0 1 .8 1.8 1.6 1.8 1.8 0 2 1.6.4 2.6-.6.3-1.5.1-1.9-.6-.5-.9-.9-.9-1.4-.1-.4.6-1.1.9-1.6.6-.4-.3-1 .4-1.3 1.6-.4 1.6-.3 1.8.9.8 1.1-.9 1.4-.8 1.4.2 0 1.1.2 1.1 1-.1.9-1.3 1-1.3 1 0 0 .8-.9 2.5-1.8 3.8-1.6 2.1-2 2.2-3.1.8-.7-.8-1.9-1.2-2.7-.9-.8.3-1.8-.4-2.4-1.8l-1.1-2.4.5 2.4c.3 1.6-.3 3-1.9 4.5-1.7 1.6-2.1 2.6-1.4 3.3.8.8.7 1.3-.1 1.8-1.6 1-2.8-1.1-2.3-3.9.4-2 .1-2.3-2.6-2.3-1.9 0-3.1.5-3.1 1.3 0 .9-1.3 1.2-4 1.1-2.2-.1-4-.5-4-.9s-.4-.8-1-.8c-.5 0-1 .7-1 1.5 0 2-.7 1.9-3.7-.5l-2.5-2-1.9 2.3c-1 1.2-1.8 1.7-1.9 1 0-.6-.9-.9-2-.6-1.1.3-1.7.9-1.4 1.4.3.5-.7 1.4-2.3 2-1.8.7-2.9.7-3.1 0-.2-.5-1-.7-1.8-.4-.8.3-1.4-.1-1.4-.8 0-.8-1-1.4-2.4-1.4-1.8 0-2.2.3-1.4 1.2 1.2 1.5-1.4 2.9-3.2 1.8-.5-.3-1 .2-1 1.1 0 3.1-2.2-.1-3-4.3l-.8-3.8-.1 3.2c-.1 2.3-.6 3.3-1.7 3.3-2 0-.8 1.9 2 3l2.1.9h-2.2c-1.3.1-2.3-.3-2.3-.8 0-1.6-4-2.3-5.5-1.1-.9.7-1.5.8-1.5.2 0-.5-1.3-1.2-2.9-1.4-2.6-.4-3-.1-3.5 2.6-.5 2.2-.9 2.7-1.5 1.7-.7-1-1.1-.9-2.2.6-.8 1.1-2.2 1.9-3.1 1.7-1-.1-2.2.5-2.8 1.4-.8 1.5-.9 1.4-1-.5 0-2.1-.1-2.1-3-.6-2.3 1.1-3.4 1.2-4.4.3-1.1-.8-1.8-.6-3 1.2-1.1 1.5-1.6 1.8-1.6.7 0-.8.4-1.9 1-2.5.6-.6-.3-.9-2.4-1-2.5 0-3.3.3-2.9 1.4.5 1.1.7 1.1 1.4 0 .7-1 .9-.9.9.4 0 2.1-3.6 2.5-4.3.5-.4-.9-.6-.9-.6 0-.1 1.9-2.1 1.6-2.1-.3 0-2.5-1.7-.7-2.4 2.6-.3 1.7-1 2.9-1.5 2.6-.5-.3-.7-1.5-.4-2.6.3-1.1 0-2-.6-2s-1.1 1.1-1.1 2.4c0 1.3-.7 2.6-1.5 3-1.1.4-1.5-.1-1.5-1.7 0-1.8.2-1.9 1-.7.6 1 1 1.1 1 .2 0-.6-.9-2.1-2-3.2s-2-1.6-2-1c0 .5-1.2 1-2.6 1-2.4 0-2.5.2-1.3 1.7 1.3 1.5 1.2 1.5-.9.2-1.8-1.1-2.4-1.2-3.1-.1-.4.7-1.4 1.2-2.1 1-1.6-.4-2.2 4.2-.8 5.9.6.7 2.8 1.3 4.9 1.3 2.6 0 4.1.6 4.8 1.7.9 1.7 1 1.7 1.6.1.6-1.5.9-1.6 2.2-.3 1.5 1.5 3.8 1.1 2.8-.5-.6-1 2.3-2.2 3.6-1.4.5.3.9 0 .9-.6s.4-.9.8-.6c1 .6.3 7.6-.9 7.6-.4 0-1.1-.5-1.5-1.1-.4-.8-.9-.7-1.5.2-.8 1.1-1.1 1.1-2-.4-1.2-2.1-3.3-2.3-2.5-.2.3.8 0 1.4-.7 1.2-.7-.1-1.1.4-.9 1.1.2 1-.2 1-1.8.2-2.9-1.5-7.2-.7-8.1 1.6-.4 1-.8 1.3-.8.5-.1-1.1-.4-1.1-1.6-.1-1.2 1-1.5 1-1.5-.1s-.2-1.1-1 .1c-.8 1.2-1 1-1-.8 0-1.3-.4-2-1-1.7-.6.4-.8 1.1-.5 1.6 1 1.5-1.2 1-2.9-.7-.9-.8-2-1.3-2.5-.9-.6.3-1.4-.3-2-1.2-.9-1.5-1.2-1.6-2-.4-1.5 2.3-.6 5.9 2 8l2.5 2-.4-2.9c-.3-2.5-.1-2.8 1.6-2.3 1.4.3 1.9 1.1 1.7 2.5-.3 1.2-.2 1.8.2 1.4.3-.3 1.2-.1 2 .5 1 .9 1.3.7 1.3-.7.1-1.7.2-1.6 1.3.4.7 1.2 1.6 2 2 1.6.3-.3.9.5 1.3 2 .6 2.4.9 2.5 6.5 2.3 3.3-.2 6.5 0 7.1.4.7.5 1.9.3 2.6-.4 1.1-.9 1.7-.7 2.8.8.9 1.1 1.4 1.4 1.4.6 0-1.1.3-1.1 1.6 0 1.4 1.2 1.4 1.4 0 2.5-1 .7-1.4 1.8-1 2.8.3.9.1 1.6-.6 1.6-.6 0-.8.4-.5 1 .3.5.2 1-.4 1-.5 0-1.1-.5-1.3-1.1-.3-.8-1-.6-2.1.6-1.4 1.3-2.1 1.4-3.2.5-.8-.7-2-.8-2.7-.4-.7.5-2.1.7-3.1.5-1.5-.2-1.7.2-1.2 1.8.9 2.9-1.9 2.8-3.3-.2-.8-1.6-1.1-1.8-1.1-.6-.1 1.9-2.8 3.3-3.6 1.8-.4-.5-1.3-.3-2.2.7-1.9 1.9-3.2.8-3.5-3-.1-1.5-.8-3.2-1.6-3.8-1-.9-1.1-.6-.2 1.6 1.4 3.8 1.3 4.9-.6 4.2-1-.4-1.8 0-2.1 1.3-.5 2-3.3 3.8-3.3 2.1 0-.5-.8-.6-1.7-.3-1.2.5-1.5.2-1-1 .5-1.4.3-1.5-1.3-.5-1.4.9-2.2.9-3.4-.1-1.3-1.1-1.7-1.1-2.2.2-.3.9-.3 2.1.1 2.7.4.6-.4 1-1.9 1-1.8 0-2.5-.6-2.8-2.2-.2-1.3-1.1-2.4-2.3-2.7-1.7-.3-1.8-.1-.5 1.4 1.1 1.4 1.1 1.8 0 2.5s-1.1 1.4 0 3.9c.7 1.8 1 3.4.6 3.8-.3.3-.6-.1-.6-.9 0-.9-.7-1.9-1.6-2.2-1-.4-1.3-1.3-.9-2.7.5-1.5.4-1.9-.5-1.4-.7.4-.9 1.7-.6 3.1.4 1.6.2 2.4-.7 2.4-.9 0-1.2-.9-.9-2.9.2-1.6-.1-3.2-.9-3.6-.9-.6-1.1-.3-.6.9.5 1.2 0 1.9-1.5 2.5-1.4.5-1.7 1-1 1.5.9.5.9 1.3.2 2.6-1.3 2.4.1 3.3 3.4 2 1.7-.6 2.7-.6 3.2.1.3.6 1.5.9 2.5.6 2.2-.6 2.7 2.1.7 4.1-.9.9-.5 1.2 2 1.2 1.9 0 3.2-.5 3.2-1.3 0-.6 1.2.1 2.5 1.6 1.4 1.5 2.5 2.4 2.5 2 0-.5-.4-1.3-.9-1.8-.6-.6-.1-1.1 1.4-1.1 2.1-.2 2.3.1 1.4 1.8-.6 1-.9 2.7-.7 3.6.3 1.3.8 1 2.1-1.3.9-1.7 1.6-2.4 1.7-1.8 0 2 2 1.5 2-.5 0-1.4.2-1.5 1-.2.8 1.2 1.1 1.2 2.8-.3 1-.9 2.2-1.4 2.5-1 .4.3.7 0 .7-.8s.7-.4 1.6.9c1.3 1.8 1.9 2.1 3 1.1 2.3-1.9 1.6 0-1 2.6-2.2 2.2-3.6 2.3-3.6.3 0-.5.5-.6 1.1-.2.7.4 1 .1.7-.6-.7-2.3-2.6-2.2-3.8 0-1.5 2.8-.4 4.1 2.9 3.5 2.3-.4 3-.1 3.4 1.6.3 1.2 1 1.8 1.6 1.5.5-.4 1.1.7 1.3 2.6.2 1.7 1 3.3 1.8 3.6 1.2.4 1.3.2.3-.9-1.6-1.6-1.7-3.3-.2-2.3.8.4.7 0-.1-1.5-.6-1.2-.9-3-.7-3.9.4-1.5.5-1.5.6.1.1 1.4.5 1.6 2 .7 1.6-.8 2.3-.5 4 1.6 1.8 2.3 2.1 2.4 2.2.8 0-1.6.2-1.5 1 .5.6 1.6.6 2.8-.1 3.6-1.3 1.5.3 3 2 2 .6-.3 1.3.1 1.6 1 .5 1.1 1 1.3 1.9.5.6-.5 1.5-.6 1.9-.2.4.4.5-.5.1-2.1s-.3-2.7.3-2.7c.5 0 1.3-1 1.7-2.3l.7-2.2.8 2.5c.4 1.4.9 1.8 1 1 .1-.9.5-.5 1.1 1 .6 1.4.6 2.6.1 2.8-2.2.7-4.6 3.1-3.9 3.8.4.5 1.2.2 1.7-.6.7-1.1 1.4-1.2 3.3-.3 1.7.8 2.8.8 3.5.1.6-.6 1.2-.6 1.6.1.4.6 2.2 1.1 4 1.1 1.9 0 3.9.7 4.6 1.5 1.4 1.7 4 2 4 .5 0-1.3 3.2-.9 4.2.5.5.6.8.6.8-.1 0-1.1 4.8-1 7.6 0 .7.3 2.1-.2 3.3-1 1.9-1.4 2.2-1.4 2.7 0 .6 1.5 4.4 1.8 4.4.4 0-.5 1.2-.8 2.8-.7 3.2.1 7-.6 9.6-1.7 1.6-.6 1.8-.4 1.3 1-.6 1.5-.3 1.7 1.7 1.2 1.4-.3 2.8-.1 3.1.4.5.8 1.1.8 2 0 1-.8 1.4-.7 1.8.2.3 1 .8 1 2.3-.2 1.4-1.1 4-1.5 9.4-1.4 4.1.1 10.5.2 14.3.3l6.7.1v3.9c0 3.5-.2 3.8-2.7 3.9-10.8.4-11.8.7-11.5 2.7.3 1.9.2 1.9-1.5-.2-1.2-1.5-2.2-2-3.2-1.4-.8.5-2.7.5-4.4 0-1.9-.5-3.5-.5-4 0-.6.6-1.9.6-3.3.1-2.2-.9-2.3-.7-1.7 2 .3 1.6.2 4.1-.1 5.6-.6 2.1-.9 2.4-2.1 1.4-1.1-.9-1.5-.9-1.5-.1 0 1.9-4 1.3-4-.7-.1-1.6-.2-1.6-1.5.2-.9 1.1-1.8 1.5-2.7 1-2.1-1.3-7.8-1.4-7.8-.1 0 .8-.3.8-1.2-.1-.7-.7-2.7-.9-5.5-.5-2.3.3-4.3.2-4.3-.3 0-.7-5.6-1-8.9-.5-.3.1 0 .6.7 1.3 1.9 1.9 1.4 3-.9 1.7-1.5-.8-1.9-.8-1.5 0 .4.6 0 1.1-.8 1.1-.9 0-1.6.4-1.6.8 0 .5-1.8.8-4 .8-2.4-.1-4-.6-4-1.3 0-.7-.7-1-1.6-.6-.9.3-2 0-2.5-.8-.6-1-1.1-1.1-1.7-.3-1.7 2.7-8.9 2.7-7.6 0 .3-.6 0-.4-.8.4-.7.8-2.3 1.4-3.5 1.2-1.4-.2-2.6.4-3.3 1.8-.9 1.8-1.4 1.9-2.6.9-1.3-1-1.7-1-2.4 0-1 1.6-.1 5.3 1.1 4.5.5-.3.9.4.9 1.5 0 1.2.4 2.1 1 2.1.5 0 .7-.7.4-1.5-.4-.9 0-1.5 1-1.5.9 0 1.5.6 1.3 1.2-.1.7.7 1.3 1.8 1.3 1.1.1 2.6.4 3.2.8.8.5 1.1.3.8-.5-.4-.9.6-1.4 3-1.5 2.7-.1 3.5.2 3.5 1.5 0 2.2-1.1 3.7-3 4.5-.8.3.2.6 2.3.6 2 .1 3.7-.4 3.7-.9 0-.6-.8-1-1.7-1-.9 0-1.3-.3-1-.7 1-.9 5.7-1 5.7-.1 0 .4-.5.8-1.2.8-.6 0-.8.3-.5.7.4.3 1.6-.2 2.6-1.1 1.5-1.4 2.4-1.5 3.9-.7 1.1.6 3 1 4.3.9 4.9-.2 5.9.2 6 2.4v2.3l.9-2.2c.9-2.2 4.3-3.9 6-2.8.5.3 1-.1 1-.9 0-2.1 1.7-2 2.9.1.6 1 1.1 1.2 1.1.5 0-.6.7-1.2 1.6-1.2.8 0 1.2.4.9 1-.3.5-.1 1 .4 1 .6 0 1.1-.5 1.1-1.1 0-.5.5-.7 1-.4.6.3 1 .1 1-.5s.4-.8 1-.5c.5.3 1 1.3 1 2.1s-.4 1.2-1 .9c-.5-.3-1 .3-1 1.4 0 3 2.2 2.6 4.2-.7 1-1.5 1.8-2.1 1.9-1.5.1.7.2 1.9.3 2.5 0 .7 1.2 1.4 2.6 1.5 1.4.2 3.7.5 5.3.7 1.6.3 2.7 0 2.7-.7s1.4-1.3 3-1.4c1.7-.1 3 .2 3 .7 0 .5 2.1.8 4.7.6 2.7-.2 5.8 0 7 .5 1.7.6 2.5.4 3.2-.9.9-1.5 1-1.5 1.6-.1.4 1.2 1.6 1.4 5.3.9 2.6-.3 5.4-.5 6.2-.5 1.3 0 1.5 7.6 1.8 60.9.2 47.9.5 60.7 1.5 60.3 2.1-.8 63-26.8 67.2-28.7 2.2-1 11.7-5 21-9 9.4-4 18.8-8 21-9 2.2-1 9.6-4.1 16.5-7 6.9-2.9 14.3-6 16.5-7 7.1-3.2 216.8-92.7 223.8-95.6l6.7-2.8v-53.1l3-1.3c1.6-.7 3.2-2.2 3.5-3.3.4-1 1.3-1.9 2-1.9.8 0 2.4-1.4 3.7-3 1.2-1.7 2.6-3 3.1-3s2.9-1.6 5.3-3.6c3.6-3 5-3.5 7.4-3 2.4.4 3 .2 3-1.2 0-.9.7-2.6 1.5-3.6s1.2-2.2 1-2.7c-.8-1.2 1.7-5.9 2.7-5.3.5.3 2-.6 3.3-2 2.9-3.2 6.1-3.3 9.2-.4l2.3 2.1.1-2.4c.1-1.3.1-2.7 0-3.2 0-.4.4-.7.9-.7.6 0 1 .5 1 1.1 0 .8.5.8 1.5-.1.8-.7 1.5-2.8 1.5-4.7 0-2.6.5-3.6 2.2-4.2 2.7-1 5.3-.4 6.9 1.5 1.5 1.9 3 1.8 2.3-.1-.4-.8.1-1.7 1-2.1.8-.3 2.3-3.2 3.2-6.3 1.8-6.8 5.8-12.4 7.2-10.3.7 1.1 1 .9 1.5-.7.3-1.3 1.1-1.9 2-1.5 1.5.6 6.7-3.6 6.7-5.4 0-.6 1.5-2.3 3.4-3.7 1.9-1.4 4.2-4.2 5.1-6.2 1-2 2.6-4.6 3.6-5.6 3-3.2 9.1-18.8 9.1-23.2 0-6.4-.2-8.5-.6-8.5-.3 0-1.6.4-3 1-1.8.6-2.6.6-2.6-.1 0-.6-.9-.8-2-.4-1.9.6-2 .3-1.4-3.5l.7-4.2-5.1 2.6c-3 1.5-6.5 4.5-8.9 7.5-2.1 2.7-4.5 5.1-5.3 5.4-.9.2-1.7 1.8-1.8 3.7-.3 4-1.2 5.4-1.2 1.9 0-1.4-.7-3.4-1.5-4.5-.8-1-1.5-3.1-1.5-4.5 0-2.1.4-2.6 2.3-2.5 2.4.2 4.7-2 4.6-4.4 0-1-.3-.8-1 .5-.9 2-.9 2-.6 0 .1-1.2 1-2 2.1-2 1.6 0 4.4-3.9 6.2-8.8.3-.9 1-1.7 1.4-1.7.4 0 3.8-2.9 7.6-6.5 5.6-5.4 6.6-6.9 5.8-8.3-.9-1.4-6.6-5.1-7.9-5.2H668c-.5 0-1-1.2-1-2.6 0-1.9-.4-2.5-1.5-2-1.3.5-2-.5-1.6-2.7.3-1.7-2.7-.5-3.8 1.5-.9 1.9-1 1.5-.6-2.7.4-3.1.2-4.5-.3-3.7-.5.8-1.2 1.3-1.6 1.3-4.2-.6-4.7-.1-4 3.5.5 2.5.3 3.5-.4 3-.6-.3-1.3 0-1.5.6-.3.8-.6.6-.6-.5-.1-.9.4-1.7.9-1.7.7 0 .8-.6.2-1.7-.7-1.1-.5-3 .4-5.6.8-2.2 1.4-5.2 1.4-6.8 0-2.7 2.7-4.6 5.8-4.1.6.2 1.2-.4 1.2-1.3 0-.8.5-1.5 1.1-1.5.5 0 .7.6.3 1.2-.4.7.5.1 2-1.4 1.6-1.5 3.2-2.5 3.7-2.2.5.3.9-.1.9-.9s.7-1.7 1.5-2.1c.8-.3 1.5-1.3 1.5-2.1 0-1-.5-1.3-1.2-.9-.8.5-.6-.3.4-1.6.9-1.4 2.3-2.4 3.1-2.4 2.2.2 7.2-5.3 7.3-7.9.3-6.2.3-6.4 1.8-4.4 1.3 1.7 1.5 1.5 2.1-2.2 1.6-9.8-.9-20.7-5.5-23.1-1-.5-2.2-1.9-2.5-3-.9-2.9-2.8-2.5-2.3.5.4 2 .3 2.3-.8 1.4-.8-.6-1.4-1.7-1.4-2.4 0-2.1-2.6-2.4-3.8-.4-.7 1.1-1.8 1.6-2.7 1.3-1.1-.5-1.7.3-2.1 2.5-.4 1.7-1.1 3.1-1.6 3.1s-.7-.8-.4-1.8c1.3-4.1 1.5-8.1.6-8.7-.6-.3-1.3.2-1.7 1.2-.3 1-1.8 3.1-3.1 4.8-2.3 2.7-2.5 2.8-1.9.7.3-1.5.1-2.2-.6-1.9-.7.2-1.1 1.7-1 3.3.2 2.1 0 2.5-.7 1.5-.7-1.2-1.1-1.2-2.4-.2-.9.7-1.3 1.7-1 2.2.3.5-.4.9-1.5.9-1.9 0-2.6 1.5-2.2 4.2 0 .4-.6.5-1.4.2-.8-.4-1.7.1-2.1 1-.3.9-1 1.3-1.5 1-.5-.3-.9 0-.9.7s-.3.9-.6.6c-.4-.4-.1-1.3.6-2.2 1-1.2 1-1.5 0-1.5-.9 0-1.1-1-.6-3.2.9-4.6 4.6-6.7 4.6-2.6 0 1.6.3 1.9 1.1 1.1.6-.6.8-2.5.3-4.7-.6-3.3-.9-3.7-3-3.2-1.9.5-2.2.3-1.7-1.1.4-1.1.3-1.4-.5-.9-.7.4-1.4-.3-1.8-1.9-.3-1.3-1-2.3-1.4-2-.4.3-1-.2-1.4-1-.3-.8-1.5-1.5-2.6-1.5-1.4 0-2-.7-2-2.3 0-1.2-.4-1.8-.8-1.2-1.1 1.5-5 3.5-6.8 3.5-.9 0-1.4.6-1.1 1.3.3.8.1 2-.4 2.8-.7 1.1-.9 1.1-.9-.3 0-1.1-.5-1.5-1.5-1.2-.8.4-1.5 1.2-1.5 2s-.4 1.4-1 1.4c-1.5 0-1.2-3.7.5-7 1.3-2.5 1.3-2.9-.1-3.4-1-.4-1.3-.2-.8.7.5.9.3.8-.7-.1-.9-.9-1-1.5-.3-2 .6-.4.7-1.8.4-3.2-.6-2.3-.8-2.2-1.8 1.5-.6 2.2-1.3 4.9-1.5 6-.3 1.2-.5.6-.6-1.5-.1-3-.3-3.2-1.2-1.7-.6 1-.8 3-.5 4.4.5 1.6.3 2.2-.4 1.8-.6-.3-1 .3-1 1.6 0 2.2 0 2.2-1.4.3-1.4-1.8-1.5-1.8-2.6 1-.8 2.2-1.4 2.6-2.2 1.8-1.9-1.9-2.5-1.4-2.6 1.8-.1 3.8-1.2 5.7-2.2 4-.5-.8-1.2.8-1.9 3.9-1.3 6.1-1.4 7.7-.3 6.7.8-.8.9-1.2 1.1-5.4.2-2.4.3-2.5 1.1-.7.8 1.9.9 1.9.9-.3.1-1.3.5-2.1 1-1.8.5.3 1.4-.8 2.1-2.5.8-1.8 1.8-2.8 2.6-2.5.9.4 1.4-.2 1.5-1.7 0-2.1.1-2.1.8-.2.5 1.2.4 2.3-.3 2.7-.6.4-1.1 1.1-1.1 1.5-.2 2.5-1.9 5.3-3.5 5.8-1 .3-2.2 1.9-2.5 3.6-.6 2.5-3 4.9-5 4.9-.4 0-.5-1.9-.3-4.3.3-4.2.2-4.2-3.1-4.2-3.5-.1-5.1 1.7-5.1 5.4 0 1.2-.4 2.1-.9 2.1s-.7-1-.5-2.3c.3-1.6.1-1.5-.7.5-1.1 2.9-2.8 3.8-3 1.5 0-.6-.7.1-1.4 1.8-.8 1.6-1.4 2.4-1.5 1.7 0-.7-.4-1.1-.8-.8-.5.3-.6-1.5-.2-4 .6-4.1.6-4.3-1-2.9-.9.8-1.9 1.3-2.2 1-.3-.4-1.1.8-1.7 2.5-.6 1.7-1.4 2.9-1.8 2.7-.5-.3-14.7-6.4-31.8-13.7-17-7.2-32.3-13.8-34-14.5-1.6-.7-14-6-27.5-11.8-120.9-51.6-182.1-77.8-220-93.9-24.5-10.5-46.7-20-49.5-21.3-2.7-1.2-6-2.5-7.2-2.9l-2.3-.7v105zm38.3-49.5c1.8.8 10.2 4.2 18.7 7.5 8.5 3.4 16.4 6.6 17.5 7.1 1.1.5 23.6 9.5 50 20s48.9 19.5 50 20c1.1.5 35.6 14.4 76.6 30.8 41.1 16.5 75.2 30.2 75.8 30.6 1.5 1 1.4 3.3-.1 3.3-2.4.1-4.2.8-5.7 2.2-1.3 1.1-1.7 1-3.3-.9-1.8-2.2-1.8-2.2-1.8-.1 0 1.2-.5 2.1-1.1 2.1-.6 0-.8-.8-.5-1.8.4-1.1-.1-.9-1.5.7-1.7 2.1-2.2 2.3-3.1 1-.7-1.1-.9-.9-.5.9.4 1.7-.1 2.6-2.5 3.8l-3.1 1.6.5-3.1c.2-1.7.1-3.1-.3-3.1s-.9 1-1.1 2.2c-.2 1.3-.7 2.1-1.2 2-.5-.2-1.2.1-1.5.7-.4.6-1.6.8-2.7.5-1.6-.4-1.9-1.2-1.6-4.2l.3-3.7-1.7 3.5c-1 1.9-1.9 3.7-2 3.8-.1.2-1.1-.1-2.1-.6-1.6-.9-1.6-1.1-.2-1.7 1.1-.4 1.4-1.5 1.1-3.7-.4-2.8-.6-2.9-1.7-1.5-1.1 1.5-1.4 1.6-2.5.2-1.2-1.4-1.5-1.3-3.3.5-1.2 1.4-1.7 3-1.4 4.6.3 1.6 0 2.3-.7 2.1-.6-.2-1.1-1.5-1.2-2.8-.2-5.2-.3-5.4-1.9-3.3-.8 1-1.5 1.4-1.6.9-.1-.6-.4.5-.8 2.4-.6 3.5-3.1 5.6-3.1 2.7 0-.9-.6-1.3-1.4-1-.7.3-1.6-.2-1.9-1-.7-1.7-3.5-1.5-4.7.3-1.1 1.8-3.3.3-2.6-1.8.6-1.4.5-1.5-.6 0-.7.9-2.3 1.5-3.5 1.4-1.7-.1-2.3.4-2.3 2 0 2.5-.9 3.7-2.1 2.9-.5-.2-.4-1.6.1-2.9.5-1.3.6-2.6.2-2.9-1-.6-5.8 3.6-6.6 5.8-.5 1.5-.9 1.6-2.1.6-1.2-1-1.3-1.6-.4-2.7 1.7-1.9.3-2.9-1.5-1-.8.8-1.4 1.6-1.3 1.8.1.2 0 .3-.3.1-.5-.3-.6-.7-.9-3.2-.1-.7-.8-.7-2.2 0-1.1.7-2.3.9-2.6.6-.7-.6-2.8 1.4-3.5 3.4-.3.9-.8.2-1.2-1.7-.4-1.8-1.2-3.6-1.7-3.9-.6-.3-1.4-1.7-1.9-3s-1.4-2.4-2-2.4c-.6 0 .1 1.8 1.5 4 1.3 2.1 2.1 4.2 1.6 4.5-.5.3-1.3-.4-1.6-1.6-.4-1.1-.9-1.9-1.1-1.6-.3.2 0 1.7.6 3.2.9 2.5.9 2.6-.5 1.5-1.3-1.1-1.5-.9-1.5 1.1 0 2.4 0 2.3-1.9-.4-1.3-2-2.1-2.5-2.6-1.7-1.3 2.1-2.5-1.1-1.3-3.4 1.1-2 1-2-.9-.4-2.2 2-4.3 2.4-4.3.8 0-.6-.7-1-1.5-1s-1.5.7-1.5 1.5c0 .9-.7 1.8-1.5 2.1-.8.4-1.5 1.4-1.5 2.3-.1 1.1-.5.8-1.5-.9-1.2-2.2-2-2.1-1.6.2 0 .5-.9.8-2.2.8-1.3 0-2.8.5-3.5 1.2-.7.7-1.2.8-1.2.2 0-.6-.7-1.1-1.5-1.1-1.1 0-1.4.7-1 2.1.5 1.8.4 1.9-.7.6-1.8-2.1-5.8-2.4-5.8-.4 0 .8.4 1.3.9 1 .5-.4 1.7-.3 2.7.1 1.6.6 1.6.7-.2 1.3-2.6 1-4.4.1-4.4-2.1 0-1-.5-1.9-1.1-1.9-.5 0-.9 1-.7 2.2.2 1.8-.2 2.3-1.9 2.4-1.5.1-2.3-.4-2.3-1.5 0-1.3-.2-1.3-.9-.2-.6 1-1 1-1.6.1-.5-.8-2.2-1-5.1-.5-4 .6-4.4.4-4.4-1.4 0-1.3-.6-1.9-1.9-1.8-1.1 0-1.8.4-1.6.7.2.3 0 1.2-.6 2-.7 1.3-.9 1.2-.9-.3 0-.9-.4-1.7-.9-1.7s-.7 1-.4 2.2l.6 2.3-2-2.2c-1.8-2-2.4-2.2-5.2-1.2-1.7.6-2.9 1.5-2.6 1.9.3.5.1 1.1-.5 1.5-.5.3-1-.1-1-.9 0-2-1.9-2.1-2.6-.1-.5 1.3-.9 1.3-2.2.3-1.3-1.1-1.4-1-.7 1.2 1.2 3.9 4.5 5.5 4.5 2.2.1-1.5.2-1.5 1.6.3 1.3 1.8 1.3 2-.5 2.7-1.1.4-4 .6-6.5.4-3.5-.2-4.6.1-4.6 1.2 0 .9-.3 1.2-.7.8-.8-.7-.9-1.1-1.2-3.7-.1-.8-.6-.8-1.6.1-2.4 2-1.8-.6.6-2.9 1.7-1.5 1.9-2.3 1-3.8-.9-1.6-1-1.6-1.1.6 0 1.9-.4 2.2-2.2 1.8-1.2-.4-2.8-.1-3.5.5-.9.7-1.3.7-1.3-.1 0-.7-.4-1-.9-.7-.5.3-1.2-.1-1.5-1-.6-1.5-.8-1.5-2.6.1-1 .9-1.6 2.4-1.3 3.2.5 1.3.3 1.3-1.6.2-1.1-.8-2.1-1.8-2.1-2.3 0-.4-.9-.6-2-.3s-2.3.1-2.6-.5c-.4-.5-1.3-.3-2.3.6-1 .9-2.1 1.3-2.4.9-.4-.3-.5 1.7-.4 4.5.4 5.7-.9 6.1-1.9.7-.3-2-1.2-3.5-2-3.5-1.6 0-1.9 3.6-.4 4.5.5.3.7 1.2.3 2-.3.8 0 1.5.6 1.5s1.1.4 1.1 1c0 1.3-3 1.3-5 0-1.3-.9-1.3-1.1 0-2 1.3-.8 1.2-1-.3-1-1.6 0-1.7-.6-1.2-4.4.8-4.9-1-7.4-2.1-3-.5 1.9-.9 2.2-1.5 1.2-.7-1-.9-.9-.9.4 0 1-.7 1.8-1.5 1.8s-1.5-.5-1.5-1.2c0-.9-.3-.8-1.2.1-1 1.1-1 1.4-.1 1.8 1 .4 1 .7 0 1.8-.9 1-1.5 1-2.6.1-1.1-.8-1.3-.8-.8 0 .8 1.4-2.6 2.5-4.3 1.4-.9-.6-.5-1.3 1.3-2.5 1.4-.9 3-1.4 3.5-1.1 1 .6 2.3-5.3 1.6-6.6-.2-.3-1.3-.4-2.4-.1-1.6.4-1.9 1.1-1.3 3.2.3 1.4.2 2.2-.3 1.8-1.3-1.2-1.4-4-.1-5.6.9-1.2.9-1.3 0-.7-.8.4-1.3.2-1.3-.4 0-.6-.4-.8-1-.5-.5.3-1 0-1-.7 0-.9-.3-.9-.8-.2-1.1 1.7-4.2 2.5-4.3 1.1 0-.9-.2-.9-.6.1-.2.6-.9 1-1.4.7-.4-.3-1.4.3-2 1.3-1.2 1.9-1.3 1.8-3.5-.7-1.3-1.4-2.4-2-2.4-1.4 0 .7.5 1.3 1 1.3.6 0 .9 1.7.9 3.7-.1 3.7-.2 3.7-.8.8-.4-1.8-.9-2.5-1.4-1.9-.8 1.4 1.1 7.4 2.4 7.4.5 0 .9-.7.9-1.5s.4-1.5.9-1.5c.4 0 .8 1.5.7 3.2-.1 3.2-.2 3.3-4.9 3.4-5.5.2-6.4-.6-4.2-4 1.3-2 1.4-2.9.5-4.3-.9-1.4-1-1.4-.7-.2.7 2.1-1.1 3.9-3 3.2-1.2-.5-1.4-.1-.8 1.8.4 1.3 1.2 2.5 1.6 2.7 1.3.5 1.1 3.2-.2 3.2-.6 0-1.3-.9-1.6-2-.5-2-.5-2-3.4.1-2.4 1.7-2.9 1.8-2.9.5 0-.9-.4-1.6-1-1.6-.5 0-1 .4-1 1 0 .5-.6 1-1.3 1-.7 0-1.8.9-2.5 2-.8 1.3-.9 2-.1 2 .6 0 .9.6.6 1.2-.2.7-1 1.2-1.6 1.1-.6-.2-1.1.1-1.1.7 0 .5-.7.7-1.5.3-.9-.3-1.5-1.3-1.4-2.2.1-.9-.3-2.7-.9-4.1-1-2.4-1.1-2.4-1.1-.3-.1 1.6-.6 2.1-1.6 1.7-.8-.4-1.5-1.3-1.5-2.1s-.4-1.2-.9-.9c-.5.4-1.2 0-1.5-.6-.4-.7-.4.5-.2 2.7s.2 3.5-.1 2.8c-.2-.7-1.1-.9-1.9-.6-1.2.4-1.4-9.9-1.4-76.1 0-42.1.3-76.6.6-76.6s2 .6 3.7 1.4zm371.4 90.8c-.3.7-.5.2-.5-1.2s.2-1.9.5-1.3c.2.7.2 1.9 0 2.5zm27.5 10c-.7.7-1.2.8-1.2.2 0-1.4 1.2-2.6 1.9-1.9.2.3-.1 1.1-.7 1.7zm-59.5.4c.1.5-.2 1.6-.7 2.4-.7 1.2-1.2 1.2-2.2.2-.9-.9-.8-1.2.8-1.3 1 0 1.3-.3.7-.6-.7-.2-1.3-.9-1.3-1.5 0-1.2 2.3-.6 2.7.8zm17 3.6c-.3.8-.6.5-.6-.6-.1-1.1.2-1.7.5-1.3.3.3.4 1.2.1 1.9zm82 7c-.3.8-.6.5-.6-.6-.1-1.1.2-1.7.5-1.3.3.3.4 1.2.1 1.9zm-145 6.4c-.3.3-1.2.4-1.9.1-.8-.3-.5-.6.6-.6 1.1-.1 1.7.2 1.3.5zm-53.2 6.3c.3.5.1 1.2-.5 1.6-.5.3-1-.1-1-.9 0-1.8.6-2.1 1.5-.7zm8.8 1.2c-.4 1.5-.8 1.7-1.4.8-.8-1.4-.3-2.9 1.1-2.9.4 0 .6.9.3 2.1zM282 252.4c0 .8-3.1 3.6-4.1 3.6-1.4 0-1.1-2.8.4-3.3 1.6-.7 3.7-.8 3.7-.3zm38.2 5.1c-.7 1.4-1.2 3.5-1.2 4.6 0 2.9-2.4 1.8-2.8-1.2-.2-1.3-1-2.8-1.8-3.2-.8-.5-1.2-1.3-.8-1.8.4-.6 1.5-.1 2.8 1.3l2.1 2.3.3-3.4c.3-2.4.6-3.1 1.4-2.3.8.8.8 1.8 0 3.7zM359 254c0 .5-.2 1-.4 1-.3 0-.8-.5-1.1-1-.3-.6-.1-1 .4-1 .6 0 1.1.4 1.1 1zm-75 3.9c0 .6-.4 1.3-1 1.6-.5.3-1-.1-1-.9 0-.9.5-1.6 1-1.6.6 0 1 .4 1 .9zm49.5.1c.3.5.1 1-.4 1-.6 0-1.1-.5-1.1-1 0-.6.2-1 .4-1 .3 0 .8.4 1.1 1zm-54.5 2c0 .5-.4 1-1 1-.5 0-1-.5-1-1 0-.6.5-1 1-1 .6 0 1 .4 1 1zm20 4.4c-1.1 1.1-3-.1-3-2 0-.8.5-1.2 1-.9.6.3 1 0 1.1-.7 0-.7.4-.4.9.7.4 1.1.4 2.4 0 2.9zm16.9.6c0 .9-.4.8-.9-.5-.5-1.1-.9-2.7-.9-3.5 0-.9.4-.8.9.5.5 1.1.9 2.7.9 3.5zm10.1-4c0 .5-.4 1-1 1-.5 0-1-.5-1-1 0-.6.5-1 1-1 .6 0 1 .4 1 1zm13 .9c0 .5-1.1.8-2.5.8s-2.5-.2-2.5-.6c0-.4 1.1-.8 2.5-.9 1.4-.1 2.5.2 2.5.7zm-58.8 2.7c1 .1 1.5-.2 1.2-.7-.3-.5-.1-.9.5-.9 1.9 0 2.2 2 .5 4.6-1.5 2.2-1.9 2.3-2.6 1-.5-.9-1.6-1.6-2.3-1.6-.8 0-1.5-.6-1.5-1.3 0-1.8 1.2-3 1.9-2 .3.5 1.4.9 2.3.9zm14.8 0c0 1.7-2.2 1.4-2.8-.4-.2-.7.3-1.2 1.2-1.2.9 0 1.6.7 1.6 1.6zm51.6.9c-.3.9-1 1.3-1.6 1-.6-.4-.5-1.1.3-2 1.5-1.6 2.2-1.1 1.3 1zm-77.6 2.9c0 .3-.7.6-1.5.6-.9 0-1.5-.9-1.5-2.1 0-1.8.2-1.9 1.5-.5.8.8 1.5 1.7 1.5 2zm-15.7 1.8c-.2.5-.8.8-1.4.8-1.1 0-1.2-3.3-.2-4.4.8-.8 2.3 2.5 1.6 3.6zm22.2-1.2c.3.5.1 1-.4 1-.6 0-1.1-.5-1.1-1 0-.6.2-1 .4-1 .3 0 .8.4 1.1 1zm-8.9 3.7c-1 1-1.9-.5-1-1.8.6-1.1.8-1.1 1.2 0 .2.7.1 1.5-.2 1.8zm-83.6-.9c0 .5-.7 1.7-1.6 2.8-1.4 1.7-1.5 1.7-1 .1.3-1 .6-2.3.6-2.8s.5-.9 1-.9c.6 0 1 .4 1 .8zm466.8 2.1c-.1 1.6-.5 2.8-.9 2.6-.6-.5 0-5.5.7-5.5.3 0 .3 1.3.2 2.9zm-418.2 3.6c-.3.8-1.5 1.5-2.6 1.5-1.9 0-2-.2-.7-1.5.9-.8 1.3-2.4 1-3.7l-.5-2.3 1.7 2.3c.9 1.3 1.4 2.9 1.1 3.7zm-42.6-1.9c0 .8-.5 1.2-1 .9-.6-.4-.8-1.1-.5-1.6.9-1.4 1.5-1.1 1.5.7zm38.5-.6c.3.5.1 1-.4 1-.6 0-1.1-.5-1.1-1 0-.6.2-1 .4-1 .3 0 .8.4 1.1 1zM114 276c0 .5-.4 1-1 1-.5 0-1-.5-1-1 0-.6.5-1 1-1 .6 0 1 .4 1 1zm89 .6c0 .8-.4 1.2-1 .9-.5-.3-1-1-1-1.6 0-.5.5-.9 1-.9.6 0 1 .7 1 1.6zM55.5 281c.3.5.1 1-.4 1-.6 0-1.1-.5-1.1-1 0-.6.2-1 .4-1 .3 0 .8.4 1.1 1zm45.8 2.2c.6 2.2.5 2.2-.8.4-1.1-1.4-1.5-1.6-1.5-.5 0 1.2-.2 1.2-1-.1-.6-.9-.5-1.7.3-2.2 1.5-.9 2.3-.3 3 2.4zm132.6 2.3c0 .5-.4.3-.9-.5s-.9-2.2-.9-3c0-1.6 1.7 1.6 1.8 3.5zM75 283c0 .5-.7.7-1.5.4-.8-.4-1.5-.8-1.5-1 0-.2.7-.4 1.5-.4s1.5.4 1.5 1zm48 1.7c0 2-2.3 1.1-2.6-.9-.1-1.1.3-1.5 1.2-1.1.8.3 1.4 1.2 1.4 2zm-53.8-.2c1.2 1.5.9 2.5-.6 2.5-1.6 0-3.8-2.4-3-3.3.9-.8 2.7-.4 3.6.8zm32.8 3.7c0 .5-.7.3-1.5-.6-.8-.8-1.5-1.8-1.5-2.2 0-.3.7-.1 1.5.6s1.5 1.7 1.5 2.2zm10 .6c0 1.5-.2 1.5-1.1.2-.8-1.1-.9-.8-.4 1.3.4 1.9.2 2.6-.5 2.2-1.1-.7-1.4-4.8-.4-5.8 1-1 2.4.2 2.4 2.1zm26.4-2c.3.5.1 2.2-.4 3.8l-1 2.9.4-2.8c.2-2 0-2.7-1-2.3-1.5.6-2.7-.7-1.7-1.8.9-.9 3.1-.8 3.7.2zm8.1 1.2c.3.5.1 1-.4 1-.6 0-1.1-.5-1.1-1 0-.6.2-1 .4-1 .3 0 .8.4 1.1 1zm-31 1c.3.5.1 1-.4 1-.6 0-1.1-.5-1.1-1 0-.6.2-1 .4-1 .3 0 .8.4 1.1 1zm-16.1 1.5c.2.7-.2 2.1-1 3.2-.8 1-1.4 1.3-1.3.8.3-2.6-.2-3.7-1.6-3.1-1.4.5-2.1-.5-1-1.5 1-1.1 4.4-.7 4.9.6zm59.4-.3c-.6 1.8-2.5 2.1-2.5.3 0-.8.7-1.5 1.5-1.5.7 0 1.2.5 1 1.2zm3.2.3c0 .8-.4 1.5-1 1.5-.5 0-.7-.7-.4-1.5.4-.8.8-1.5 1-1.5.2 0 .4.7.4 1.5zm3 .5c0 .5-.4 1-1 1-.5 0-1-.5-1-1 0-.6.5-1 1-1 .6 0 1 .4 1 1zm3 0c0 .5-.2 1-.4 1-.3 0-.8-.5-1.1-1-.3-.6-.1-1 .4-1 .6 0 1.1.4 1.1 1zm-48.2 4.5c-.3.3-.9-.2-1.2-1.2-.6-1.4-.5-1.5.5-.6.7.7 1 1.5.7 1.8zm83.2-.1c0 .3-.4.8-1 1.1-.5.3-1 .1-1-.4 0-.6.5-1.1 1-1.1.6 0 1 .2 1 .4zm-67.3 5.8c-.3.8-.6.5-.6-.6-.1-1.1.2-1.7.5-1.3.3.3.4 1.2.1 1.9zm524.1 6.8c-.7 1-1.4 1.8-1.5 1.6-.6-.6.9-3.6 1.8-3.6.5 0 .4.9-.3 2zm-512.8.7c0 .8-.5 1.3-1.2 1.1-1.8-.6-2.1-2.5-.3-2.5.8 0 1.5.7 1.5 1.4zm13.4.8c.3.8.1 1.5-.4 1.5-.6 0-1-.7-1-1.5s.2-1.5.4-1.5.6.7 1 1.5zm31 3.4c-.5 2.3-.2 2.9 1.8 3.5 1.8.5 2 .8.9 1.5-1 .6-1.2 1.4-.5 2.3.5.8 0 .5-1.1-.7-1.1-1.1-3.3-2-5-2-2.5 0-3 .4-3 2.4 0 1.4-.7 2.7-1.4 2.9-1 .3-1.2 0-.8-1.2.4-1 .7-3.1.7-4.8 0-2.5.2-2.8 1.4-1.9 1 .8 1.6.9 2.1.1.3-.6 1.1-.8 1.6-.5.5.4 1.3-.5 1.9-1.9 1.3-3.5 2.1-3.3 1.4.3zm-4.4-.9c0 .5-.2 1-.4 1-.3 0-.8-.5-1.1-1-.3-.6-.1-1 .4-1 .6 0 1.1.4 1.1 1zm12.7 1.3c.3.4.2.7-.3.8-.5 0-2.1.2-3.6.4-1.7.2-2.8-.1-2.8-.8 0-1.2 5.5-1.5 6.7-.4zm9.3.9c0 1.3-2.3.5-2.8-1-.2-.7.2-1 1.2-.6.9.3 1.6 1.1 1.6 1.6zm-28.7 3.4c.2 1.3 0 2.4-.4 2.4-.5 0-.9-.7-.9-1.5s-.7-1.5-1.5-1.5-1.5-.6-1.5-1.4c0-2.4 3.8-.6 4.3 2zm40.1-1c-1 .7-2.3 1.7-2.9 2.1-1.3 1.1-4.5 1.3-4.5.3 0-.4.7-1 1.5-1.4.8-.3 1.2-1.1 1-1.9-.4-1 .3-1.2 3.2-.9 3.4.4 3.5.6 1.7 1.8zm6.5 1.9c0 .5-.6.1-1.4-.9-.8-1.1-1.5-2.4-1.5-3 0-.5.7-.1 1.5 1 .8 1 1.4 2.3 1.4 2.9zm3.5-2c-.4.8-1 1.2-1.5.9-1.1-.6-.2-2.4 1.1-2.4.5 0 .7.7.4 1.5zm-21.6 1.2c.6.2 1.2-.2 1.2-.8 0-.5.4-.8.9-.4.6.3.9 1.4.8 2.5-.2 2.3-3.7 3.5-3.7 1.2 0-1.2-.3-1.3-1.2-.4-1.7 1.7-2.6 1.5-3.8-.8-.8-1.6-.8-1.8.4-1.4.8.3 1.7 0 2.1-.6.4-.7 1-.8 1.4-.4.3.5 1.2 1 1.9 1.1zm29.2-.8c0 1.6-2.8 2-3.4.5-.4-.9.1-1.4 1.4-1.4 1.1 0 2 .4 2 .9zm30.9 5.7c-1.5 1.9-2.9 1.8-2.9-.2 0-1 .6-1.4 1.5-1 1.1.4 1.5-.3 1.6-2.7.2-3.1.2-3.1.6-.4.3 1.6-.1 3.5-.8 4.3zm-68.9-4.7c0 .6-.4 1.3-1 1.6-.5.3-1-.1-1-.9 0-.9.5-1.6 1-1.6.6 0 1 .4 1 .9zm65.7.6c0 .6-1 1.6-2.2 2.1-1.8.9-2.3.7-3.2-1.2-.9-2-.8-2.2 2.2-2.1 1.7 0 3.2.6 3.2 1.2zM108 321.1c0 2.1-1.6 2.6-2.3.6-.6-1.7.3-3.8 1.4-3.1.5.3.9 1.4.9 2.5zm140.8-.6c-.1 1.4-.6 2.5-1 2.5-1 0-1-1.3-.2-3.4.9-2.3 1.4-1.9 1.2.9zM116 320c0 .5-.5 1-1.1 1-.5 0-.7-.5-.4-1 .3-.6.8-1 1.1-1 .2 0 .4.4.4 1zm172 1c0 1.1-.4 2-.9 2s-.7-.9-.4-2c.3-1.1.7-2 .9-2 .2 0 .4.9.4 2zm-34 .5c0 .8-.2 1.5-.4 1.5s-.6-.7-1-1.5c-.3-.8-.1-1.5.4-1.5.6 0 1 .7 1 1.5zm-74 1c.7.9.8 1.5.2 1.5-.5 0-1.2-.7-1.6-1.5-.3-.8-.4-1.5-.2-1.5s.9.7 1.6 1.5zm-140.1 4c0 .5-.6.1-1.4-.9-.8-1.1-1.5-2.4-1.5-3 0-.5.7-.1 1.5 1 .8 1 1.4 2.3 1.4 2.9zm27.1-.8c0 .7-.4 1.3-.9 1.3s-.8-1.2-.8-2.6c0-1.8.2-2.2.8-1.3.5.8.9 2 .9 2.6zm579.6.1c-.8 1.6-1.3 3.2-1 3.5.3.3.1.8-.5 1.2-.6.3-1.1.1-1.1-.5 0-1.8 3-8.3 3.6-7.7.3.3-.1 1.8-1 3.5zM175 323.4c0 1.1-1.9 1.5-2.5.6-.3-.5.1-1 .9-1 .9 0 1.6.2 1.6.4zm30 2.8c0 3.6-1.2 3.1-1.6-.7-.1-1.4.2-2.5.7-2.5.5 0 .9 1.4.9 3.2zm24-1.3c0 1.6-1.4 2-2.7 1-1.9-1.7-1.6-2.8.7-2.2 1.1.3 2 .9 2 1.2zm21.6 1.2c.3.5-.6.9-1.9.9-1.3 0-2.4-.6-2.4-1.4 0-1.4 3.3-1 4.3.5zm-102.7-.2c1.6 1 .6 3.1-1.5 3.1-.8 0-1.4-.9-1.4-2 0-2.2.7-2.5 2.9-1.1zm16.5 0c.8 1.2-2.1 4.7-3.1 3.7-.4-.5-.3-1.1.4-1.3.7-.2.9-1.1.6-1.9-.5-1.5 1.2-2 2.1-.5zm18.3 2.3c-.3.7-.5.2-.5-1.2s.2-1.9.5-1.3c.2.7.2 1.9 0 2.5zm482-1c-.3.8-.6.5-.6-.6-.1-1.1.2-1.7.5-1.3.3.3.4 1.2.1 1.9zm-578.9 1.7c2.6 2.2 2.8 3.1.6 3.1-.9 0-1.2.5-.8 1.2.4.7.3.8-.5.4-.6-.4-.9-1.2-.6-1.7.4-.5.1-.9-.4-.9-.6 0-1.1-.9-1.1-2 0-2.5.2-2.5 2.8-.1zm-29.9 6.4c-1.2 1.1-1.4.7-1.5-3l-.1-4.4 1.5 3c1.2 2.6 1.2 3.2.1 4.4zm9.5-5.7c.3.8.2 1.2-.4.9-.6-.3-1-1-1-1.6 0-1.4.7-1.1 1.4.7zm212.6-1.2c0 .3-.4.8-1 1.1-.5.3-1 .1-1-.4 0-.6.5-1.1 1-1.1.6 0 1 .2 1 .4zm-150.3 3.1c-.4.8-1.1 1.5-1.7 1.5-1.4 0-1.3-2.7.3-3.3 1.6-.6 2.1-.1 1.4 1.8zm136.8-1.5c.3.5.1 1-.4 1-.6 0-1.1-.5-1.1-1 0-.6.2-1 .4-1 .3 0 .8.4 1.1 1zm370.9 6.1c-2.8 3.1-3.5 1.1-1.2-3.4 2.3-4.2 2.3-4.2 2.6-1.4.2 1.7-.3 3.6-1.4 4.8zm6.4-3c-2.4 1.6-2.9.9-1.1-1.8 1.5-2.3 1.8-2.4 2.1-.9.2 1-.2 2.2-1 2.7zm-508.1-.1c-.1 1.4-.5 1.6-1.9.9-.9-.5-1.5-1.6-1.2-2.4.8-1.9 3.3-.7 3.1 1.5zm-85.1.5c.1.8-.2 1.7-.7 2.1-.5.3-.9-.7-.9-2.2 0-2.7 1.2-2.6 1.6.1zm19.4 1.7c0 .5-.4.8-1 .8-.5 0-1-1-1-2.3 0-1.8.2-1.9 1-.7.5.8 1 1.8 1 2.2zm3.5-1.3c-.3.6-1.1.8-1.7.5-.6-.4-.5-.9.3-1.5 1.6-1 2.3-.4 1.4 1zm76.5.2c0 .6-.4.7-1 .4-.5-.3-1-.1-1 .6 0 1-.3 1-1.2.1-1-1-1-1.5.2-2.2 1.6-1 3-.4 3 1.1zm81.4 0c-.6 1.1-2.4.2-2.4-1.1 0-.5.7-.7 1.5-.4.8.4 1.2 1 .9 1.5zM61 334c0 .5-.4 1-.9 1-.6 0-1.3-.5-1.6-1-.3-.6.1-1 .9-1 .9 0 1.6.4 1.6 1zm94.4.6c.9 2.4.7 2.7-.9 1-1.7-1.7-1.9-2.6-.6-2.6.5 0 1.2.7 1.5 1.6zm-92 1c.3.8.2 1.2-.4.9-.6-.3-1-1-1-1.6 0-1.4.7-1.1 1.4.7zm24.9 3.4c-.7 2.8-1.3 2.5-1.3-.6 0-1.4.4-2.3.9-2 .5.3.7 1.5.4 2.6zm-2.6 1.2c-.3.7-.5.2-.5-1.2s.2-1.9.5-1.3c.2.7.2 1.9 0 2.5zm-31.7-.5c0 .5-.5 1.5-1 2.3-.8 1.2-1 1.1-1-.8 0-1.2.5-2.2 1-2.2.6 0 1 .3 1 .7zm25 4.3c0 .5-.5 1-1.1 1-.5 0-.7-.5-.4-1 .3-.6.8-1 1.1-1 .2 0 .4.4.4 1zm-12 6.6c0 2.2-.2 2.5-1.5 1.4-1.2-1-1.3-1.6-.4-2.6 1.6-2 1.9-1.8 1.9 1.2zm4.4 2c.4 1 .1 1.4-.6 1.2-1.5-.5-2.3-2.8-1-2.8.5 0 1.3.7 1.6 1.6zM59 354.2c0 1.9-.2 2-1 .8-1.3-1.9-1.3-3 0-3 .6 0 1 1 1 2.2zm5 3.5c0 3.2-.5 2.8-1.4-1-.4-1.9-.3-2.6.4-2.2.5.3 1 1.8 1 3.2zm29-1.6c0 .6-.4.7-1 .4-.5-.3-1-1.1-1-1.6 0-.6.5-.7 1-.4.6.3 1 1.1 1 1.6zm-17.1 1.8c-.8.2-.7.6.1 1.1.7.4 1.1 1.3.9 1.9-.9 2.4-3-.6-2.3-3.3.5-2 .9-2.4 1.5-1.4.5.8.4 1.5-.2 1.7zM47 359.6c0 .8-.4 1.2-1 .9-.5-.3-1-1-1-1.6 0-.5.5-.9 1-.9.6 0 1 .7 1 1.6zm14.5.4c.3.5.1 1-.4 1-.6 0-1.1-.5-1.1-1 0-.6.2-1 .4-1 .3 0 .8.4 1.1 1zM47 364.9c0 1.2-2 2.5-2.7 1.8-.7-.7.6-2.7 1.8-2.7.5 0 .9.4.9.9zm37 6.7c0 1.4-.3 1.4-1.5.4-.8-.7-1.5-1.4-1.5-1.6 0-.2.7-.4 1.5-.4s1.5.7 1.5 1.6zm11.3 1.7c-.3.5-1 .4-1.5-.1-.6-.6-.7-1.6-.3-2.2.6-.9.9-.9 1.6.1.4.7.5 1.7.2 2.2zm16.2-2.4c.3.5.1 1.2-.5 1.6-.5.3-1-.1-1-.9 0-1.8.6-2.1 1.5-.7zm20 .1c-.3.5-1 1-1.6 1-.5 0-.9-.5-.9-1 0-.6.7-1 1.6-1 .8 0 1.2.4.9 1zm22.5 0c0 .5-.4 1-1 1-.5 0-1-.5-1-1 0-.6.5-1 1-1 .6 0 1 .4 1 1zm-31.4 3.7c-1 1-1.9-.5-1-1.8.6-1.1.8-1.1 1.2 0 .2.7.1 1.5-.2 1.8zm120.4 6.2c0 3.2-.6 2.4-1.4-1.9-.4-2.5-.3-3.1.4-2 .5.8 1 2.6 1 3.9zm15-3c0 1.1-.4 2.3-1 2.6-.6.4-1-.5-1-1.9s.5-2.6 1-2.6c.6 0 1 .9 1 1.9zm-32.8.9c1.5.6 1.5.9.1 2.7-1 1.3-1.4 1.5-1 .4.4-1.2 0-1.5-1.9-1.1-1.8.3-2.2.8-1.4 1.7 1.2 1.4.3 4.8-1.1 3.9-.5-.3-.9-1.6-.9-2.9 0-1.3-.5-2.7-1.1-3.1-2.7-1.6 3.6-3.1 7.3-1.6zm5.5 4.9c-.3 1-.5.4-.5-1.2 0-1.7.2-2.4.5-1.8.2.7.2 2.1 0 3zm-2-.5c-.3.8-.6.5-.6-.6-.1-1.1.2-1.7.5-1.3.3.3.4 1.2.1 1.9zM218 385c0 .5-.9.6-2 .3s-1.7-.9-1.5-1.4c.7-1 3.5-.1 3.5 1.1zm0 5.2c0 .4-.5.8-1.1.8-.5 0-.7-.5-.4-1 .3-.6.1-1-.4-1-.6 0-1.1.7-1.1 1.5s-.5 1.5-1.1 1.5c-.6 0-.8-.7-.5-1.6.3-.9.6-2.3.6-3.1 0-1.4.3-1.4 2 .2 1.1 1 2 2.2 2 2.7zm-41 4.2c0 .3-.4.8-1 1.1-.5.3-1 .1-1-.4 0-.6.5-1.1 1-1.1.6 0 1 .2 1 .4zm-17.6 4.2c.9 2.4.7 2.8-.9 1.4-1.7-1.4-2-3-.6-3 .5 0 1.2.7 1.5 1.6zm-17.4 1.5c0 1.1-.4 1.7-1 1.4-.5-.3-1-1.3-1-2.1s.5-1.4 1-1.4c.6 0 1 .9 1 2.1zm-7-.7c0 .3-.4.8-1 1.1-.5.3-1 .1-1-.4 0-.6.5-1.1 1-1.1.6 0 1 .2 1 .4zM81 410c0 1.9-1.8 1.9-2.3.1-.3-1.4-.1-1.8.9-1.4.8.3 1.4.9 1.4 1.3zm24.8 4.2c.9.9 1.2.9 1.2 0 0-.7.5-1.2 1.1-1.2.5 0 .8.4.5.9-.3.5 0 1.4.8 2 1 .9 1.5.8 2-.4.6-1.8 2.6-2 2.6-.3 0 .6-.3.8-.7.5-.9-1-3.2 2.5-3.3 5.1 0 1.3-.4 2.1-.8 1.8-.5-.3-.6-2-.4-3.8.5-3 .3-3.2-1.2-1.9-1.2 1-1.4 1.7-.5 2.7.9 1.1.6 1.6-1.2 2.3-2.9 1-4.9-1.2-4.2-4.8.7-4.3 1.9-5.1 4.1-2.9zm14.8.7c.8-.7 1.8-.9 2.1-.5.4.4.1 1.1-.6 1.5-.8.6-1.2 1.9-.9 3.5.3 1.5.2 2.9-.2 3.1-1.1.7-2.1-2.2-1.4-3.9.3-.8.1-1.7-.5-2.1-.6-.3-1.1-.1-1.1.5s-.4.8-1 .5c-.6-.4-.5-1.1.3-2 .6-.7 1.4-.9 1.5-.4.2.6 1 .5 1.8-.2zm5.4.5c0 .3-.4.8-1 1.1-.5.3-1 .1-1-.4 0-.6.5-1.1 1-1.1.6 0 1 .2 1 .4zm10 .7c0 .8-4.2 2-4.8 1.4-.2-.2-.2-.8.1-1.2.6-1 4.7-1.2 4.7-.2zm51-.2c0 .6-.4 1.2-.8 1.5-.5.3-.9-.1-.9-.9s.4-1.5.9-1.5c.4 0 .8.4.8.9zm356.5 41.3v12.1l-3.5 1.5c-7.2 3-11.4 4.7-116 46.6-53.1 21.3-97.4 39.1-98.5 39.6-1.1.5-12.3 5-25 10-12.6 5-23.9 9.5-25 10-1.5.7-30.5 12.5-41.2 16.7-1 .4-1.3-6.8-1.3-34.2 0-34.2 0-34.6 2-34 1.1.3 2 .2 2-.2 0-.5 1.7-.9 3.8-.9 6.6-.1 17.7-1.7 18.3-2.6.3-.5 3.6-1 7.2-1.1 3.7-.1 6.7-.4 6.7-.7 0-.3 1.5-.6 3.3-.6 1.7-.1 4.3-.4 5.7-.8 1.4-.3 4.5-.8 7-1.1 5.6-.5 13.8-2.2 15.2-3.1.6-.4 2.3-.9 3.7-1.1 4.1-.7 6.6-1.1 7.1-1.3.3-.1.8-.2 1.3-.1.4 0 .7-.3.7-.7 0-.5 1.3-.7 2.9-.4 1.6.2 4.4-.3 6.2-1.2 1.9-.9 5-1.8 6.9-2 1.9-.3 5.3-1.1 7.5-1.9 2.2-.8 5.8-1.7 8-2.1 2.2-.4 4.6-1.2 5.3-1.8.6-.6 1.2-.8 1.2-.5 0 .4 2.5-.6 5.5-2.2s5.5-2.5 5.5-2 .7.9 1.5.9 1.5-.4 1.5-.9 2.6-1.5 5.8-2.1c3.1-.6 7.1-1.6 8.8-2.1 1.7-.5 4.1-1.2 5.4-1.4 3.6-.7 8.1-2.3 27-9.2 9.6-3.6 18-6.6 18.5-6.7.6-.2 2.4-.8 4-1.5 1.7-.7 7.1-2.4 12-3.8 5-1.4 9.8-3.2 10.8-4.1.9-.8 1.7-1.2 1.7-.9 0 .3 1.9-.2 4.2-1.3 2.3-1 4.6-1.6 5.1-1.3.4.3 1.7-.3 2.7-1.2 1-.9 2.3-1.4 2.9-1.1.5.3 1.1.1 1.3-.4.5-1.6 12.2-3.4 21.6-3.3 4.9 0 8.2-.3 8.2-.9 0-.6.7-.5 1.6.3 1 .8 1.8.9 2.2.3 1.2-1.9 4.1-2.3 5.5-1 1.1 1.2 1.5 1.1 2.6-.5.6-1.1 1.6-1.7 2.1-1.4.6.3 1 .1 1-.4 0-.6.5-1.1 1.1-1.1.5 0 .7.4.4 1-.3.5-.4 1-.1 1 .6 0 1.8-1.1 7.6-6.5 2.8-2.6 2.8-2.6 3.5-.6.3 1.2 1.1 1.9 1.6 1.5.5-.3.7-.9.4-1.4-.7-1.1 2.5-2.9 4-2.4.7.3 1.1 4.6 1 12.6zM424 448.5c0 3-1.5 3.3-2.3.5-.4-1.6.1-2.3 2.1-2.9.1-.1.2 1 .2 2.4zm-9 1.5c.9 1.6.8 1.8-.5 1.4-.8-.4-1.5-1.2-1.5-2 0-2 .7-1.7 2 .6zm-14.3 4.2c-.3.8-.6.5-.6-.6-.1-1.1.2-1.7.5-1.3.3.3.4 1.2.1 1.9zm-7.1 1.5c-1 1-1.9-.5-1-1.8.6-1.1.8-1.1 1.2 0 .2.7.1 1.5-.2 1.8zm-2.6.2c0 1.4-.5 1.8-1.8 1.4-1-.2-4.7.5-8.3 1.7-9 3.1-9.2 3.2-7.3 5.5.8 1.1 1.2 1.4.8.6-.4-.9-.2-1.2.6-.9 2 .6 2.4 2.8.5 2.8-.9 0-2.7-1.1-4.1-2.5-2-2-2.9-2.3-4.5-1.5-1 .6-1.9 1.5-1.9 2s-1 .9-2.2.8c-3-.1-13.9 3.1-15.8 4.7-.8.7-2 1-2.7.8-.6-.2-2.6.3-4.3 1.2-1.9 1-4.2 1.4-5.6 1.1-1.5-.4-2.4-.2-2.4.5 0 .6-.7.9-1.5.5-.8-.3-3 .3-4.9 1.3-2.6 1.5-3.7 1.7-4.6.8-1-.9-1.2-.8-.7.6.4 1 .3 1.6-.1 1.3-.5-.3-2.6-.1-4.7.4-2.8.6-4.2.5-4.7-.3s-.8-.5-.9.8c0 1.1-.3 1.5-.5.8-.4-.9-1.3-.9-3.2-.2-1.8.7-2.8.7-3 0-.2-.5-2.4.1-4.9 1.4-2.5 1.4-4.9 2.2-5.4 1.9-.5-.3-.9 0-.9.6 0 .7-.6.8-1.9 0-1.3-.7-2.2-.7-2.6 0-.3.5-2.1 1-3.8 1-1.8 0-4.8.5-6.7 1-1.9.6-5.5 1.3-8 1.6-2.5.3-4.8 1.1-5.2 1.8-.5.8-.8.7-.8-.3 0-.8-.6-1.1-1.7-.6-1 .4-4 .9-6.8 1.1-3.1.3-5.5 1.1-6.2 2.1-1.2 1.5-1.3 1.5-1.9 0-.5-1.4-1-1.5-2.7-.5-1.2.7-2.5 1.1-2.9 1-.3-.1-.4 1.8-.1 4.1.3 3.3.2 3.8-.7 2.5-.6-1-1.8-1.5-2.8-1.2-1 .4-1.3.3-.6-.3.6-.4 1.3-1.8 1.6-3.1.6-2.2-.4-2.7-3.9-2.3-.8.1-1.3-1-1.3-2.9 0-2.4.4-3 2.3-3.1 1.2 0 3-.2 4-.4s4.4-.6 7.5-.9c3.1-.3 6.8-.8 8.2-1.1 1.4-.2 4.6-.6 7.1-.9 2.5-.3 9.2-1.5 14.8-2.6 5.6-1.1 11.6-2.2 13.4-2.5 4.9-.9 29.5-6.4 36.2-8.1 3.3-.9 7.1-1.8 8.4-2.1 1.4-.2 2.8-.6 3.2-.8.4-.3 2.2-.7 4-1.1 1.9-.3 12.6-2.9 23.9-5.8 23.7-6.2 25-6.4 25-3.7zm-12.3 8.3c-.3.8-.6.5-.6-.6-.1-1.1.2-1.7.5-1.3.3.3.4 1.2.1 1.9zm-8 4c-.3.8-.6.5-.6-.6-.1-1.1.2-1.7.5-1.3.3.3.4 1.2.1 1.9zm-53 14c-.3.8-.6.5-.6-.6-.1-1.1.2-1.7.5-1.3.3.3.4 1.2.1 1.9zm-199.1 1.5c-.7.7-2.6-.7-2.6-1.9 0-.6.6-.6 1.5.2.9.7 1.3 1.5 1.1 1.7zm17.9-.8c.3.5.1 1.2-.5 1.6-.5.3-1-.1-1-.9 0-1.8.6-2.1 1.5-.7zm-24 1.1c.3.5.2 1-.4 1-.5 0-1.3-.5-1.6-1-.3-.6-.2-1 .4-1 .5 0 1.3.4 1.6 1zm38.5 1c0 .5-.4 1-1 1-.5 0-1-.5-1-1 0-.6.5-1 1-1 .6 0 1 .4 1 1zm155 1c0 1.1-.2 2-.4 2s-.6-.9-.9-2c-.3-1.1-.1-2 .4-2s.9.9.9 2zm-175.5 0c.3.5.1 1-.4 1-.6 0-1.1-.5-1.1-1 0-.6.2-1 .4-1 .3 0 .8.4 1.1 1zm31 0c.3.5-.1 1-.9 1-.9 0-1.6-.5-1.6-1 0-.6.4-1 .9-1 .6 0 1.3.4 1.6 1zm11.2 13.2c-.3.8-.6.5-.6-.6-.1-1.1.2-1.7.5-1.3.3.3.4 1.2.1 1.9zm26.3 1.3c0 3.4-1.2 4.6-2.5 2.4-.9-1.4.3-5.9 1.5-5.9.6 0 1 1.6 1 3.5zm-18-.9c0 .8-.4 1.2-1 .9-.5-.3-1-1-1-1.6 0-.5.5-.9 1-.9.6 0 1 .7 1 1.6zm13.4 3.2c.5 4.8.1 5-3 2.1-1.8-1.7-2.1-2.6-1.3-4.1.5-1 1.4-1.6 2-1.3.5.4.9.1.9-.6 0-2.8 1 .1 1.4 3.9zm-23.4-2.3c0 .8.4 1.5 1 1.5.5 0 .7.7.4 1.5-.5 1.1-1 1.2-2.4.2-1.3-.7-1.5-1.4-.8-1.8.6-.4.7-1.2.4-1.8-.4-.6-.2-1.1.3-1.1.6 0 1.1.7 1.1 1.5zm-.3 23.7c-.3.8-.6.5-.6-.6-.1-1.1.2-1.7.5-1.3.3.3.4 1.2.1 1.9z"/><path d="M656.6 198.6c-.8 2.1-.8 3.4.2 3.4.4 0 .9-1.1 1-2.5.2-2.8-.3-3.2-1.2-.9zM643.1 209.6c0 1.1.3 1.4.6.6.3-.7.2-1.6-.1-1.9-.3-.4-.6.2-.5 1.3zM168.8 270.9c.3 2.2.8 2.8 2 2.4 1-.4 1.3-.2.8.5-.5.8.3 1.2 2.3 1.2 2.1 0 3.1-.5 3.1-1.6 0-.8-.4-1.2-1-.9-.5.3-1-.3-1-1.4 0-1.2-.4-2.1-1-2.1-.5 0-1 .8-1 1.7 0 1.4-.4 1.3-2.3-.5l-2.4-2.2.5 2.9zM126.1 280.6c0 1.1.3 1.4.6.6.3-.7.2-1.6-.1-1.9-.3-.4-.6.2-.5 1.3zM78 282.9c0 .5.5 1.3 1 1.6.6.3 1 .2 1-.4 0-.5-.4-1.3-1-1.6-.5-.3-1-.2-1 .4zM104.5 301c-.4.7-.1 1.6.6 2.1 1.7 1 2.6-.8 1.1-2.3-.6-.6-1.2-.6-1.7.2zM121.5 305c-.4.6-.3 1.6.3 2.2 1.3 1.3 2.3-.4 1.3-2.1-.7-1-1-1-1.6-.1zM650.3 322.5c-.3.9-.3 1.8-.1 2.1.3.3.8-.4 1.1-1.6.6-2.3-.1-2.7-1-.5zM41.7 352.1c.6 2.2 2.3 2.6 2.3.5 0-.8-.6-1.6-1.4-1.9-1-.4-1.2 0-.9 1.4zM50 373.5c0 .8.4 1.5 1 1.5.5 0 .7-.7.4-1.5-.4-.8-.8-1.5-1-1.5-.2 0-.4.7-.4 1.5zM205 385.5c.7.9 1.5 1.3 1.7 1.1.7-.7-.7-2.6-1.9-2.6-.6 0-.6.6.2 1.5zM178.5 388.3c.2 2.4 1.8 2.6 2.3.4.2-.8-.3-1.7-1.1-2-.9-.3-1.3.2-1.2 1.6zM173.5 388c-.3.5-.1 1 .4 1 .6 0 1.1-.5 1.1-1 0-.6-.2-1-.4-1-.3 0-.8.4-1.1 1zM142 391c0 1.3 1.8 2.2 2.4 1.1.3-.5-.1-1.1-.9-1.5-.8-.3-1.5-.1-1.5.4zM96.2 440.9c-1.1.7-1.1.9.2 1.4 1 .4 1.6.1 1.6-.8 0-1.7-.1-1.7-1.8-.6zM37.5 465.1c-.4.6-.5 1.2-.2 1.5.2.3.7-.2 1-1.1.7-1.7.1-2-.8-.4zM116 507.6c0 .8.5 1.2 1 .9.6-.4.8-1.1.5-1.6-.9-1.4-1.5-1.1-1.5.7zM81.3 508.6c-1.4.6-.2 5.6 1.5 6.2.7.2 1.2-.1 1.2-.7s.9-1.1 2.1-1.1c1.4 0 1.9-.5 1.7-1.8-.2-1-1.1-1.6-2.1-1.4-.9.2-1.7-.2-1.7-.8 0-1-.7-1.2-2.7-.4z"/></svg>