<?xml version="1.0" encoding="utf-8"?>
<!-- Generator: Adobe Illustrator 22.0.1, SVG Export Plug-In . SVG Version: 6.00 Build 0)  -->
<svg version="1.1" id="Слой_1" xmlns="http://www.w3.org/2000/svg" xmlns:xlink="http://www.w3.org/1999/xlink" x="0px" y="0px"
	 viewBox="0 0 26.5 26.5" style="enable-background:new 0 0 26.5 26.5;" xml:space="preserve">
<style type="text/css">
	.st0{fill:#4BA8DF;}
	.st1{fill:#FFFFFF;}
	.st2{fill:#FFFFFF;stroke:#FFFFFF;stroke-width:0.25;stroke-miterlimit:10;}
</style>
<rect class="st0" width="26.5" height="26.5"/>
<g>
	<path class="st2" d="M22,10l-8.4-3.2V5c0-0.2-0.2-0.4-0.4-0.4c-0.7,0-1.3-0.6-1.3-1.3c0-0.7,0.6-1.3,1.3-1.3c0.7,0,1.3,0.6,1.3,1.3
		c0,0.2,0.2,0.4,0.4,0.4c0.2,0,0.4-0.2,0.4-0.4c0-1.2-0.9-2.1-2.1-2.1c-1.2,0-2.1,0.9-2.1,2.1c0,1,0.7,1.9,1.7,2.1v1.5L4.5,10
		c-0.8,0.3-1.4,1.1-1.4,2c0,0.6,0.2,1.1,0.6,1.5c0.4,0.4,0.9,0.6,1.5,0.6h0.6v9.1c0,0.2,0.2,0.4,0.4,0.4h14c0.2,0,0.4-0.2,0.4-0.4
		v-9.1h0.6c1.2,0,2.1-1,2.1-2.1C23.4,11.1,22.8,10.3,22,10L22,10z M19.8,17.4H12c-0.2-1.2-1.2-2.2-2.5-2.3v-1.4h10.3V17.4z
		 M9.5,15.8c0.8,0.1,1.5,0.7,1.7,1.6H9.5V15.8z M8.8,14.8H6.7v-1.1h2.1V14.8z M6.7,15.5h2.1v3.3H6.7V15.5z M6.7,19.6h2.1v3.3H6.7
		V19.6z M9.5,22.8v-4.7h10.3v4.7H9.5z M21.2,13.4h-0.6v-0.1c0-0.2-0.2-0.4-0.4-0.4h-14c-0.2,0-0.4,0.2-0.4,0.4v0.1H5.3
		c-0.4,0-0.7-0.1-1-0.4c-0.3-0.3-0.4-0.6-0.4-1c0-0.6,0.4-1.1,0.9-1.3l8.5-3.2l8.5,3.2c0.5,0.2,0.9,0.7,0.9,1.3
		C22.6,12.8,22,13.4,21.2,13.4L21.2,13.4z M21.2,13.4"/>
	<path class="st2" d="M7.9,21.8c-0.1-0.1-0.2-0.1-0.3-0.1c-0.1,0-0.2,0-0.3,0.1c-0.1,0.1-0.1,0.2-0.1,0.3c0,0.1,0,0.2,0.1,0.3
		c0.1,0.1,0.2,0.1,0.3,0.1c0.1,0,0.2,0,0.3-0.1C8,22.3,8,22.2,8,22.1C8,22,8,21.9,7.9,21.8L7.9,21.8z M7.9,21.8"/>
</g>
</svg>
