<?xml version="1.0" encoding="utf-8"?>
<!-- Generator: Adobe Illustrator 22.0.1, SVG Export Plug-In . SVG Version: 6.00 Build 0)  -->
<svg version="1.1" id="Слой_1" xmlns="http://www.w3.org/2000/svg" xmlns:xlink="http://www.w3.org/1999/xlink" x="0px" y="0px"
	 viewBox="0 0 26.5 26.5" style="enable-background:new 0 0 26.5 26.5;" xml:space="preserve">
<style type="text/css">
	.st0{fill:#4BA8DF;}
	.st1{fill:#FFFFFF;}
	.st2{fill:#FFFFFF;stroke:#FFFFFF;stroke-width:0.25;stroke-miterlimit:10;}
</style>
<rect class="st0" width="26.5" height="26.5"/>
<path class="st1" d="M22.1,11L22.1,11V7.5c0-1.6-1.1-2.2-2.2-2.2H6.5c-1.1,0-2.2,0.6-2.2,2.2V11v0c-1.1,0.1-2.1,0.8-2.1,2.4v2.8
	c0,0.5,0.4,0.8,0.8,0.8h0.3v2.2c0,0.5,0.4,0.8,0.8,0.8h0.8c0.5,0,0.8-0.4,0.8-0.8v-2.2h14.7v2.2c0,0.5,0.4,0.8,0.8,0.8h0.8
	c0.5,0,0.8-0.4,0.8-0.8v-2.2h0.3c0.5,0,0.8-0.4,0.8-0.8v-2.7C24.1,11.9,23.1,11.2,22.1,11z M5.2,7.5c0-1.1,0.7-1.3,1.3-1.3h13.4
	c0.6,0,1.3,0.2,1.3,1.3V11h-0.6V9c0-0.5-0.4-0.8-0.8-0.8h-5.2c-0.5,0-0.8,0.4-0.8,0.8v2h-1V9c0-0.5-0.4-0.8-0.8-0.8H6.8
	C6.3,8.2,5.9,8.5,5.9,9v2H5.2L5.2,7.5L5.2,7.5z M19.8,11h-5.2V9h5.2V11z M12,11H6.8V9H12V11z M4.7,11.9h0.4h1.6h5.2h2.6h5.2h1.5h0.4
	c0.6,0,1.6,0.2,1.6,1.6v0.7H3.1v-0.7C3.1,12.1,4.1,11.9,4.7,11.9z M5,19.3H4.2v-2.2H5V19.3z M22.2,19.3h-0.8v-2.2h0.8V19.3z
	 M22.2,16.2h-0.8H5H4.2H3.1V15h20.2v1.2H22.2z"/>
</svg>
