<?xml version="1.0" encoding="utf-8"?>
<!-- Generator: Adobe Illustrator 22.0.1, SVG Export Plug-In . SVG Version: 6.00 Build 0)  -->
<svg version="1.1" id="Слой_1" xmlns="http://www.w3.org/2000/svg" xmlns:xlink="http://www.w3.org/1999/xlink" x="0px" y="0px"
	 viewBox="0 0 26.5 26.5" style="enable-background:new 0 0 26.5 26.5;" xml:space="preserve">
<style type="text/css">
	.st0{fill:#4BA8DF;}
	.st1{fill:#FFFFFF;}
	.st2{fill:#FFFFFF;stroke:#FFFFFF;stroke-width:0.25;stroke-miterlimit:10;}
</style>
<rect class="st0" width="26.5" height="26.5"/>
<g>
	<path class="st1" d="M22.5,11.1h-12c-0.2,0-0.3,0.2-0.3,0.3v1H9.5V7.7h0.3c0.6,0,1-0.5,1-1s-0.5-1-1-1H9.5v-1h0.3
		c0.2,0,0.3-0.2,0.3-0.3V2.9c0-0.2-0.2-0.3-0.3-0.3H3.3C3.1,2.5,3,2.7,3,2.9v1.4c0,0.2,0.2,0.3,0.3,0.3h0.3v8.2
		c0,0.2,0.2,0.3,0.3,0.3h0.3c0.1,2.2,1.3,3.1,2.3,3.9c1.3,1,2.5,2,1.8,5.6c0,0.2,0.1,0.4,0.3,0.4c0,0,0.1,0,0.1,0h10.9
		c0.2,0,0.3-0.2,0.3-0.3c0-0.1,0-0.1,0-0.2c-1-1.6-1-3-1-5c2.1-0.7,3.6-2.4,3.8-4.5c0.5-0.2,0.8-0.8,0.6-1.3
		C23.3,11.4,22.9,11.1,22.5,11.1z M9.8,6.3c0.2,0,0.3,0.2,0.3,0.3S10,7,9.8,7H9.5V6.3H9.8z M3.7,3.2h5.8v0.7H3.7V3.2z M8.8,4.6v7.9
		H4.4V4.6H8.8z M7.1,16.5c-1-0.8-1.9-1.5-2.1-3.4h4.8c0.2,2.1,1.7,3.8,3.7,4.4c0,1.9,0,3.2-0.9,4.8H9.2C9.8,18.7,8.4,17.6,7.1,16.5z
		 M19.2,22.4h-5.7c0.8-1.5,0.8-2.9,0.8-4.6c0.4,0.1,0.9,0.1,1.4,0.2H17c0.5,0,0.9-0.1,1.4-0.2C18.4,19.5,18.4,20.9,19.2,22.4z
		 M17,17.2h-1.4c-2.7,0-4.9-1.8-5.1-4.1h11.6C21.9,15.4,19.7,17.2,17,17.2z M22.5,12.5H10.9v-0.7h11.6c0.2,0,0.3,0.2,0.3,0.3
		S22.7,12.5,22.5,12.5z"/>
</g>
</svg>
