<?xml version="1.0" encoding="utf-8"?>
<!-- Generator: Adobe Illustrator 22.0.1, SVG Export Plug-In . SVG Version: 6.00 Build 0)  -->
<svg version="1.1" id="Слой_1" xmlns="http://www.w3.org/2000/svg" xmlns:xlink="http://www.w3.org/1999/xlink" x="0px" y="0px"
	 viewBox="0 0 26.5 26.5" style="enable-background:new 0 0 26.5 26.5;" xml:space="preserve">
<style type="text/css">
	.st0{fill:#acd32f;}
	.st1{fill:#FFFFFF;}
	.st2{fill:#FFFFFF;stroke:#FFFFFF;stroke-width:0.25;stroke-miterlimit:10;}
</style>
<rect class="st0" width="26.5" height="26.5"/>
<g transform="translate(1 1)">
	<path class="st1" d="M4.5,19.5H3.9c-0.2,0-0.3-0.1-0.3-0.3s0.1-0.3,0.3-0.3h0.6c0.2,0,0.3,0.1,0.3,0.3S4.7,19.5,4.5,19.5z"/>
	<path class="st1" d="M19.4,19.5H5.1c-0.2,0-0.3-0.1-0.3-0.3V3.7c0-0.2,0.1-0.3,0.3-0.3h14.3c0.2,0,0.3,0.1,0.3,0.3v15.5
		C19.7,19.4,19.6,19.5,19.4,19.5z M5.4,18.9h13.7V4H5.4V18.9z"/>
	<path class="st1" d="M18.1,19.5H6.4c-0.2,0-0.3-0.1-0.3-0.3V4.9c0-0.2,0.1-0.3,0.3-0.3h11.8c0.2,0,0.3,0.1,0.3,0.3v14.3
		C18.5,19.4,18.3,19.5,18.1,19.5z M6.7,18.9h11.2V5.2H6.7V18.9z"/>
	<path class="st1" d="M19.4,20.7H5.1c-0.5,0-0.9-0.4-0.9-0.9v-0.6c0-0.2,0.1-0.3,0.3-0.3H20c0.2,0,0.3,0.1,0.3,0.3v0.6
		C20.3,20.3,19.9,20.7,19.4,20.7z M4.8,19.5v0.3c0,0.2,0.1,0.3,0.3,0.3h14.3c0.2,0,0.3-0.1,0.3-0.3v-0.3H4.8z"/>
	<path class="st1" d="M19.4,4H5.1C4.6,4,4.2,3.6,4.2,3s0.4-0.9,0.9-0.9h14.3c0.5,0,0.9,0.4,0.9,0.9S19.9,4,19.4,4z M5.1,2.7
		C5,2.7,4.8,2.9,4.8,3s0.1,0.3,0.3,0.3h14.3c0.2,0,0.3-0.1,0.3-0.3s-0.1-0.3-0.3-0.3H5.1z"/>
	<path class="st1" d="M20.6,19.5H20c-0.2,0-0.3-0.1-0.3-0.3s0.1-0.3,0.3-0.3h0.6c0.2,0,0.3,0.1,0.3,0.3S20.8,19.5,20.6,19.5z"/>
	<path class="st1" d="M12.9,19.5h-1.2c-0.2,0-0.3-0.1-0.3-0.3V4.9c0-0.2,0.1-0.3,0.3-0.3h1.2c0.2,0,0.3,0.1,0.3,0.3v14.3
		C13.2,19.4,13.1,19.5,12.9,19.5z M11.9,18.9h0.6V5.2h-0.6V18.9z"/>
	<path class="st1" d="M7.3,7.1C7.2,7.1,7.1,7,7.1,7c-0.1-0.1-0.1-0.3,0-0.4L8,5.6c0.1-0.1,0.3-0.1,0.4,0s0.1,0.3,0,0.4L7.5,7
		C7.4,7,7.4,7.1,7.3,7.1z"/>
	<path class="st1" d="M7.3,8.6c-0.1,0-0.2,0-0.2-0.1c-0.1-0.1-0.1-0.3,0-0.4l0.6-0.6c0.1-0.1,0.3-0.1,0.4,0c0.1,0.1,0.1,0.3,0,0.4
		L7.5,8.5C7.4,8.6,7.4,8.6,7.3,8.6z"/>
	<path class="st1" d="M8.8,7.1C8.7,7.1,8.7,7,8.6,7c-0.1-0.1-0.1-0.3,0-0.4l0.9-0.9c0.1-0.1,0.3-0.1,0.4,0s0.1,0.3,0,0.4L9.1,7
		C9,7,8.9,7.1,8.8,7.1z"/>
	<path class="st1" d="M16.3,18.6c-0.1,0-0.2,0-0.2-0.1c-0.1-0.1-0.1-0.3,0-0.4l0.9-0.9c0.1-0.1,0.3-0.1,0.4,0c0.1,0.1,0.1,0.3,0,0.4
		l-0.9,0.9C16.4,18.5,16.4,18.6,16.3,18.6z"/>
	<path class="st1" d="M16.6,16.7c-0.1,0-0.2,0-0.2-0.1c-0.1-0.1-0.1-0.3,0-0.4l0.6-0.6c0.1-0.1,0.3-0.1,0.4,0c0.1,0.1,0.1,0.3,0,0.4
		l-0.6,0.6C16.8,16.7,16.7,16.7,16.6,16.7z"/>
	<path class="st1" d="M14.7,18.6c-0.1,0-0.2,0-0.2-0.1c-0.1-0.1-0.1-0.3,0-0.4l0.9-0.9c0.1-0.1,0.3-0.1,0.4,0c0.1,0.1,0.1,0.3,0,0.4
		L15,18.5C14.9,18.5,14.8,18.6,14.7,18.6z"/>
	<path class="st1" d="M9.8,13.6c-0.5,0-0.9-0.4-0.9-0.9v-1.2c0-0.5,0.4-0.9,0.9-0.9c0.5,0,0.9,0.4,0.9,0.9v1.2
		C10.7,13.2,10.3,13.6,9.8,13.6z M9.8,11.1c-0.2,0-0.3,0.1-0.3,0.3v1.2c0,0.2,0.1,0.3,0.3,0.3s0.3-0.1,0.3-0.3v-1.2
		C10.1,11.3,10,11.1,9.8,11.1z"/>
	<path class="st1" d="M14.7,13.6c-0.5,0-0.9-0.4-0.9-0.9v-1.2c0-0.5,0.4-0.9,0.9-0.9c0.5,0,0.9,0.4,0.9,0.9v1.2
		C15.7,13.2,15.3,13.6,14.7,13.6z M14.7,11.1c-0.2,0-0.3,0.1-0.3,0.3v1.2c0,0.2,0.1,0.3,0.3,0.3s0.3-0.1,0.3-0.3v-1.2
		C15,11.3,14.9,11.1,14.7,11.1z"/>
</g>
</svg>
