<?xml version="1.0" encoding="utf-8"?>
<!-- Generator: Adobe Illustrator 22.0.1, SVG Export Plug-In . SVG Version: 6.00 Build 0)  -->
<svg version="1.1" id="Слой_1" xmlns="http://www.w3.org/2000/svg" xmlns:xlink="http://www.w3.org/1999/xlink" x="0px" y="0px"
	 viewBox="0 0 26.5 26.5" style="enable-background:new 0 0 26.5 26.5;" xml:space="preserve">
<style type="text/css">
	.st0{fill:#acd32f;}
	.st1{fill:#FFFFFF;}
	.st2{fill:#FFFFFF;stroke:#FFFFFF;stroke-width:0.25;stroke-miterlimit:10;}
</style>
<rect class="st0" width="26.5" height="26.5"/>
<g>
	<g>
		<path class="st1" d="M3,14c-0.2,0-0.4,0.2-0.4,0.4c0,0.2,0.2,0.4,0.4,0.4h20.6c0.2,0,0.4-0.2,0.4-0.4c0-0.2-0.2-0.4-0.4-0.4H3z
			 M23.5,15.5H3c-0.6,0-1.1-0.5-1.1-1.1s0.5-1.1,1.1-1.1h20.6c0.6,0,1.1,0.5,1.1,1.1S24.2,15.5,23.5,15.5"/>
		<path class="st1" d="M4.2,15.5l1,3.9c0.2,0.8,1,1.4,1.9,1.4h12.4c0.9,0,1.6-0.6,1.9-1.4l0.9-3.9H4.2z M19.5,21.6H7
			c-1.2,0-2.3-0.8-2.6-2l-1.1-4.4c0-0.1,0-0.2,0.1-0.3c0.1-0.1,0.2-0.1,0.3-0.1h19c0.1,0,0.2,0,0.3,0.2c0.1,0.1,0.1,0.2,0.1,0.3
			L22,19.6C21.7,20.7,20.7,21.6,19.5,21.6"/>
		<path class="st1" d="M7.2,23.1c0,0-0.1,0-0.2,0c-0.2-0.1-0.3-0.3-0.2-0.5L7.6,21c0.1-0.2,0.3-0.3,0.5-0.2c0.2,0.1,0.3,0.3,0.2,0.5
			l-0.8,1.5C7.4,23,7.3,23.1,7.2,23.1"/>
		<path class="st1" d="M19.7,23.1c-0.2,0-0.3-0.1-0.3-0.2l-0.8-1.5c-0.1-0.2,0-0.4,0.2-0.5c0.2-0.1,0.4,0,0.5,0.2l0.8,1.5
			c0.1,0.2,0,0.4-0.2,0.5C19.8,23.1,19.8,23.1,19.7,23.1"/>
		<path class="st1" d="M3.8,13.2h6.4c-0.2-0.5-0.6-0.8-1.1-0.8H9c-0.2,0-0.3,0-0.4-0.2c-0.2-0.4-0.6-0.6-1-0.6c-0.6,0-1,0.4-1.1,1
			c0,0.2-0.1,0.3-0.3,0.3s-0.3,0-0.4-0.1c-0.3-0.3-0.6-0.4-0.9-0.4C4.4,12.4,4,12.7,3.8,13.2 M10.6,14H3.3C3.1,14,3,13.8,3,13.6
			c0-1.1,0.8-1.9,1.9-1.9c0.3,0,0.7,0.1,1,0.3c0.3-0.6,1-1,1.7-1c0.6,0,1.1,0.3,1.5,0.8c1.1,0,1.9,0.8,1.9,1.9
			C11,13.8,10.8,14,10.6,14"/>
		<path class="st1" d="M23.1,13.6h-0.8V5.2c0-1.5-1.2-2.7-2.7-2.7c-1.6,0-2.3,1.3-2.3,2.7h-0.8c0-2,1.3-3.4,3-3.4
			c1.9,0,3.4,1.5,3.4,3.4V13.6z"/>
		<path class="st1" d="M15.5,8.8c-0.2,0-0.4-0.2-0.4-0.4V8.2c0-0.2,0.2-0.4,0.4-0.4c0.2,0,0.4,0.2,0.4,0.4v0.2
			C15.9,8.7,15.8,8.8,15.5,8.8"/>
		<path class="st1" d="M15.5,10.6c-0.2,0-0.4-0.2-0.4-0.4V9.8c0-0.2,0.2-0.4,0.4-0.4c0.2,0,0.4,0.2,0.4,0.4v0.4
			C15.9,10.4,15.8,10.6,15.5,10.6"/>
		<path class="st1" d="M15.5,12.1c-0.2,0-0.4-0.2-0.4-0.4v-0.2c0-0.2,0.2-0.4,0.4-0.4c0.2,0,0.4,0.2,0.4,0.4v0.2
			C15.9,11.9,15.8,12.1,15.5,12.1"/>
		<path class="st1" d="M17.1,8.8c-0.2,0-0.4-0.2-0.4-0.4V8.2c0-0.2,0.2-0.4,0.4-0.4c0.2,0,0.4,0.2,0.4,0.4v0.2
			C17.4,8.7,17.3,8.8,17.1,8.8"/>
		<path class="st1" d="M17.1,10.6c-0.2,0-0.4-0.2-0.4-0.4V9.8c0-0.2,0.2-0.4,0.4-0.4c0.2,0,0.4,0.2,0.4,0.4v0.4
			C17.4,10.4,17.3,10.6,17.1,10.6"/>
		<path class="st1" d="M17.1,12.1c-0.2,0-0.4-0.2-0.4-0.4v-0.2c0-0.2,0.2-0.4,0.4-0.4c0.2,0,0.4,0.2,0.4,0.4v0.2
			C17.4,11.9,17.3,12.1,17.1,12.1"/>
		<path class="st1" d="M18.6,8.8c-0.2,0-0.4-0.2-0.4-0.4V8.2c0-0.2,0.2-0.4,0.4-0.4S19,8,19,8.2v0.2C19,8.7,18.8,8.8,18.6,8.8"/>
		<path class="st1" d="M18.6,10.6c-0.2,0-0.4-0.2-0.4-0.4V9.8c0-0.2,0.2-0.4,0.4-0.4S19,9.5,19,9.8v0.4C19,10.4,18.8,10.6,18.6,10.6
			"/>
		<path class="st1" d="M18.6,12.1c-0.2,0-0.4-0.2-0.4-0.4v-0.2c0-0.2,0.2-0.4,0.4-0.4s0.4,0.2,0.4,0.4v0.2
			C19,11.9,18.8,12.1,18.6,12.1"/>
		<path class="st1" d="M16,6.3h2.2c-0.2-0.5-0.6-0.8-1.1-0.8C16.6,5.6,16.1,5.9,16,6.3 M18.6,7.1h-3c-0.2,0-0.4-0.2-0.4-0.4
			c0-1.1,0.8-1.9,1.9-1.9c1.1,0,1.9,0.8,1.9,1.9C19,7,18.8,7.1,18.6,7.1"/>
	</g>
</g>
</svg>
