<?xml version="1.0" encoding="utf-8"?>
<!-- Generator: Adobe Illustrator 22.0.1, SVG Export Plug-In . SVG Version: 6.00 Build 0)  -->
<svg version="1.1" id="Слой_1" xmlns="http://www.w3.org/2000/svg" xmlns:xlink="http://www.w3.org/1999/xlink" x="0px" y="0px"
	 viewBox="0 0 26.5 26.5" style="enable-background:new 0 0 26.5 26.5;" xml:space="preserve">
<style type="text/css">
	.st0{fill:#706AAD}
	.st1{fill:#FFFFFF;}
	.st2{fill:#FFFFFF;stroke:#FFFFFF;stroke-width:0.25;stroke-miterlimit:10;}
</style>
<rect class="st0" width="26.5" height="26.5"/>
<path class="st1" d="M18.3,4.3C18,3.7,17.6,3,18.1,2.2C18.3,2,18.6,2,18.8,2.1C19,2.3,19,2.5,18.9,2.7c-0.2,0.3-0.1,0.5,0.2,1.1
	c0.3,0.6,0.8,1.5,0,2.3c-0.1,0.1-0.2,0.1-0.3,0.1c-0.1,0-0.2,0-0.3-0.1c-0.2-0.2-0.2-0.4,0-0.6C18.8,5.2,18.7,4.9,18.3,4.3L18.3,4.3
	z M4.1,2.5C4.1,2.2,4.3,2,4.6,2h2.3c0,0,0,0,0,0H11c0,0,0,0,0,0h2.3c0.2,0,0.4,0.2,0.4,0.4c0,0.2-0.2,0.4-0.4,0.4h-1.8v2.6
	c0.6,0.2,1,0.7,1,1.4v1.4c0,0.2-0.2,0.4-0.4,0.4h-2c-0.2,0-0.4-0.2-0.4-0.4V6.9c0-0.6,0.4-1.2,1-1.4V2.9H7.3v2.6
	c0.6,0.2,1,0.7,1,1.4v0.4c0,0.8-0.7,1.4-1.4,1.4C6.1,8.7,5.4,8,5.4,7.2V6.9c0-0.6,0.4-1.2,1-1.4V2.9H4.6C4.3,2.9,4.1,2.7,4.1,2.5
	L4.1,2.5z M10.4,6.9v0.9h1.1V6.9c0-0.3-0.2-0.6-0.6-0.6C10.7,6.3,10.4,6.6,10.4,6.9L10.4,6.9z M6.3,6.9v0.4c0,0.3,0.2,0.6,0.6,0.6
	c0.3,0,0.6-0.2,0.6-0.6V6.9c0-0.3-0.2-0.6-0.6-0.6h0C6.5,6.3,6.3,6.6,6.3,6.9L6.3,6.9z M16.2,5.6c-0.2,0.2-0.1,0.5,0,0.6
	c0.1,0.1,0.2,0.1,0.3,0.1c0.1,0,0.2,0,0.3-0.1c0.8-0.8,0.3-1.7,0-2.3c-0.3-0.6-0.4-0.8-0.2-1.1c0.1-0.2,0.1-0.5-0.1-0.6
	C16.3,2,16,2,15.9,2.2c-0.6,0.8-0.1,1.5,0.2,2.1C16.4,4.9,16.5,5.2,16.2,5.6L16.2,5.6z M15.1,20.7v-4.9c0-0.2,0.2-0.4,0.4-0.4h4.1
	c0.2,0,0.4,0.2,0.4,0.4v4.9c0,0.2-0.2,0.4-0.4,0.4h-4.1C15.3,21.2,15.1,21,15.1,20.7L15.1,20.7z M16,20.3h3.2v-4H16V20.3z M23.3,23
	c0,0.2-0.2,0.4-0.4,0.4h-0.9c0,0,0,0,0,0H4.6c0,0,0,0,0,0h-1c-0.2,0-0.4-0.2-0.4-0.4c0-0.2,0.2-0.4,0.4-0.4h0.5V11.9H3.6
	c-0.2,0-0.4-0.2-0.4-0.4c0-0.2,0.2-0.4,0.4-0.4h11.9c-0.4-0.5-0.7-1.1-0.7-1.8V8.5c0,0,0-0.1,0-0.2c0-0.2,0.2-0.4,0.4-0.4h4.6
	c0.2,0,0.4,0.2,0.4,0.4c0,0.1,0,0.1,0,0.2v0.7c0,0.7-0.3,1.4-0.7,1.8h3.3c0.2,0,0.4,0.2,0.4,0.4c0,0.2-0.2,0.4-0.4,0.4h-0.5v10.6
	h0.5C23.1,22.5,23.3,22.7,23.3,23L23.3,23z M15.7,9.1c0,1,0.8,1.8,1.8,1.8c1,0,1.8-0.8,1.8-1.8V8.8h-3.7V9.1z M12.8,11.9H5v10.6h7.8
	V11.9z M21.5,11.9h-7.8v10.6h7.8V11.9z M15.5,14.4L15.5,14.4c0.3,0,0.5-0.2,0.5-0.4c0-0.2-0.2-0.4-0.4-0.4h-0.1
	c-0.2,0-0.4,0.2-0.4,0.4C15.1,14.2,15.3,14.4,15.5,14.4L15.5,14.4z M19.6,14.4L19.6,14.4c0.3,0,0.5-0.2,0.5-0.4
	c0-0.2-0.2-0.4-0.4-0.4h-0.1c-0.2,0-0.4,0.2-0.4,0.4C19.1,14.2,19.3,14.4,19.6,14.4L19.6,14.4z M17.5,14.4L17.5,14.4
	c0.3,0,0.5-0.2,0.5-0.4c0-0.2-0.2-0.4-0.4-0.4h-0.1c-0.2,0-0.4,0.2-0.4,0.4C17.1,14.2,17.3,14.4,17.5,14.4L17.5,14.4z M7.7,14.4h2.5
	c0.2,0,0.4-0.2,0.4-0.4c0-0.2-0.2-0.4-0.4-0.4H7.7c-0.2,0-0.4,0.2-0.4,0.4C7.2,14.2,7.4,14.4,7.7,14.4L7.7,14.4z M7.7,14.4"/>
</svg>
