<?xml version="1.0" encoding="utf-8"?>
<!-- Generator: Adobe Illustrator 22.1.0, SVG Export Plug-In . SVG Version: 6.00 Build 0)  -->
<svg version="1.1" id="Layer_1" xmlns="http://www.w3.org/2000/svg" xmlns:xlink="http://www.w3.org/1999/xlink" x="0px" y="0px"
	 viewBox="0 0 512 512" style="enable-background:new 0 0 512 512;" xml:space="preserve">
<style type="text/css">
	.st0{fill:#FFFFFF;}
	.st1{fill:url(#SVGID_1_);}
</style>
<circle class="st0" cx="256" cy="255.3" r="243.7"/>
<linearGradient id="SVGID_1_" gradientUnits="userSpaceOnUse" x1="419.7869" y1="462.8515" x2="71.8043" y2="23.3735">
	<stop  offset="0" style="stop-color:#3B5998"/>
	<stop  offset="1" style="stop-color:#336699"/>
</linearGradient>
<path class="st1" d="M256,7.1C118.5,7.1,7.1,118.5,7.1,256S118.5,504.9,256,504.9c1.8,0,3.6,0,5.3-0.1V340.7h-55.1v-68.9h55.1v-41.3
	c0-56.8,32-96.5,82.7-96.5c24.3,0,41.3,0,55.1,0v68.9h-27.6c-27.5,0-41.3,13.8-41.3,41.3v27.6h68.9l-13.8,68.9h-55.1v152.9
	C431.4,462,504.9,367.6,504.9,256C504.9,118.5,393.5,7.1,256,7.1z"/>
</svg>
