<?xml version="1.0" encoding="utf-8"?>
<svg version="1.1" id="Layer_1" xmlns="http://www.w3.org/2000/svg" xmlns:xlink="http://www.w3.org/1999/xlink" x="0px" y="0px"
	 viewBox="0 0 30.6 30.8" style="enable-background:new 0 0 30.6 30.8;" xml:space="preserve">
<style type="text/css">
</style>
<path id="insta" fill="#B1ACC6" d="M15.3,0.5c8.3,0,15,6.7,15,15s-6.7,15-15,15s-15-6.7-15-15S7,0.5,15.3,0.5z M22.9,8.2H8.7
	C8.3,8.2,8,8.5,8,8.9c0,0,0,0,0,0v14.2c0,0.4,0.3,0.7,0.7,0.7l0,0h14.2c0.4,0,0.7-0.3,0.7-0.7c0,0,0,0,0,0V8.9
	C23.6,8.6,23.3,8.2,22.9,8.2C22.9,8.2,22.9,8.2,22.9,8.2z M18.5,16c0,1.5-1.2,2.7-2.7,2.7c-1.5,0-2.7-1.2-2.7-2.7s1.2-2.7,2.7-2.7
	c0,0,0,0,0,0C17.3,13.3,18.5,14.5,18.5,16L18.5,16z M21.6,21.8H10V15h1.3c-0.5,2.5,1.1,5,3.6,5.5c2.5,0.5,5-1.1,5.5-3.6
	c0.1-0.3,0.1-0.7,0.1-1c0-0.3,0-0.7-0.1-1h1.3L21.6,21.8L21.6,21.8z M21.6,13.1h-2.9v-2.9h2.9V13.1z"/>
</svg>
