<svg xmlns="http://www.w3.org/2000/svg" xmlns:xlink="http://www.w3.org/1999/xlink" viewBox="0 0 473.4 473.4"><defs><style>.cls-1{fill:url(#radial-gradient);}.cls-2{fill:#fff;}</style><radialGradient id="radial-gradient" cx="31.36" cy="477.49" r="684.44" gradientTransform="matrix(0.05, -1, -0.85, -0.04, 412.3, 482.54)" gradientUnits="userSpaceOnUse"><stop offset="0" stop-color="#fed576"/><stop offset="0.26" stop-color="#f47133"/><stop offset="0.61" stop-color="#bc3081"/><stop offset="1" stop-color="#4c63d2"/></radialGradient></defs><title>instagram-colored</title><g id="Layer_2" data-name="Layer 2"><g id="Layer_1-2" data-name="Layer 1"><g id="Background"><path class="cls-1" d="M0,230.7v12.8C3.3,365.9,101.9,464.2,219.2,473.4h36.1c118-9.3,214.9-108.5,218.1-230.1V230.7C470.2,106.9,369.9,6.5,249.1.3,119.1-6.3,3.6,98,0,230.7Z"/></g><g id="Symbol"><path class="cls-2" d="M237.8,118.9c37.7,0,42.2.1,57.1.8,13.8.6,21.2,3,26.2,4.9a43.29,43.29,0,0,1,16.2,10.7,45.45,45.45,0,0,1,10.6,16.5c1.9,5.1,4.2,12.7,4.9,26.7.7,15.2.8,19.7.8,58.1s-.1,42.9-.8,58.1c-.6,14-2.9,21.6-4.9,26.7a44.18,44.18,0,0,1-10.6,16.5,43.29,43.29,0,0,1-16.2,10.7c-5,2-12.5,4.3-26.2,4.9-14.9.7-19.4.8-57.1.8s-42.2-.1-57.1-.8c-13.8-.6-21.2-3-26.2-4.9a43.29,43.29,0,0,1-16.2-10.7,45.45,45.45,0,0,1-10.6-16.5c-1.9-5.1-4.2-12.7-4.9-26.7-.7-15.2-.8-19.7-.8-58.1s.1-42.9.8-58.1c.6-14,2.9-21.6,4.9-26.7a44.18,44.18,0,0,1,10.6-16.5,43.29,43.29,0,0,1,16.2-10.7c5-2,12.5-4.3,26.2-4.9,14.9-.6,19.4-.8,57.1-.8m0-25.9c-38.4,0-43.2.2-58.2.9s-25.3,3.1-34.3,6.7a68.81,68.81,0,0,0-25,16.6A69.69,69.69,0,0,0,104,142.7c-3.5,9.1-5.9,19.6-6.6,34.9s-.8,20.2-.8,59.2.2,43.9.8,59.2,3.1,25.7,6.6,34.9a70.52,70.52,0,0,0,16.3,25.5,69.66,69.66,0,0,0,25,16.6c9,3.6,19.3,6,34.3,6.7s19.9.9,58.2.9,43.2-.2,58.2-.9,25.3-3.1,34.3-6.7a68.81,68.81,0,0,0,25-16.6,69.69,69.69,0,0,0,16.3-25.5c3.5-9.1,5.9-19.6,6.6-34.9s.8-20.2.8-59.2-.2-43.9-.8-59.2-3.1-25.7-6.6-34.9a70.52,70.52,0,0,0-16.3-25.5,69.66,69.66,0,0,0-25-16.6c-9-3.6-19.3-6-34.3-6.7s-19.9-.9-58.2-.9Z"/><path class="cls-2" d="M237.8,162.9c-40.1,0-72.5,33-72.5,73.8s32.5,73.8,72.5,73.8,72.5-33,72.5-73.8S277.8,162.9,237.8,162.9Zm0,121.7c-26,0-47.1-21.4-47.1-47.9s21.1-47.9,47.1-47.9,47.1,21.4,47.1,47.9S263.8,284.6,237.8,284.6Z"/><ellipse class="cls-2" cx="313.2" cy="160" rx="16.9" ry="17.2"/></g></g></g></svg>