<?xml version="1.0" encoding="utf-8"?>
<!-- Generator: Adobe Illustrator 21.0.0, SVG Export Plug-In . SVG Version: 6.00 Build 0)  -->
<svg version="1.1" id="Layer_1" xmlns="http://www.w3.org/2000/svg" xmlns:xlink="http://www.w3.org/1999/xlink" x="0px" y="0px"
	 viewBox="0 0 30.6 30.8" style="enable-background:new 0 0 30.6 30.8;" xml:space="preserve">
<style type="text/css">
	.st0{opacity:0.8;fill:#C9CED0;enable-background:new    ;}
</style>
<path id="tw" class="st0" d="M30.3,15.4
	c0-8.3-6.7-15-15-15c-8.3,0-15,6.7-15,15c0,8.3,6.7,15,15,15C23.6,30.4,30.3,23.7,30.3,15.4z M7.3,20.8c0.3,0,0.5,0,0.8,0
	c1.5,0,3-0.5,4.1-1.5c-1.5-0.1-2.7-1.1-3.1-2.5c0.5,0.1,1,0.1,1.5-0.1c-1.6-0.4-2.7-1.8-2.7-3.5v0c0.5,0.3,1,0.4,1.5,0.5
	C8,12.6,7.5,10.6,8.4,9c1.6,2.2,4.1,3.6,6.8,3.8c-0.1-0.3-0.1-0.5-0.1-0.8c-0.1-1.8,1.4-3.4,3.2-3.5c0,0,0,0,0.1,0
	c0.9,0,1.8,0.4,2.4,1.1c0.7-0.1,1.5-0.4,2.1-0.8c-0.2,0.8-0.8,1.5-1.5,1.9c0.7-0.1,1.3-0.2,1.9-0.5c-0.4,0.7-1,1.3-1.7,1.8
	c0,0.2,0,0.3,0,0.4c0,4.6-3.3,9.9-9.4,9.9C10.5,22.3,8.8,21.8,7.3,20.8L7.3,20.8z"/>
</svg>
