<svg xmlns="http://www.w3.org/2000/svg" viewBox="0 0 359.78 359.81"><defs><style>.cls-1{fill:#0087cb;}.cls-2{fill:#fcfdfe;}.cls-3{fill:#ccd9e9;}.cls-4{fill:#b1c8db;}</style></defs><title>Asset 1</title><g id="Layer_2" data-name="Layer 2"><g id="Layer_1-2" data-name="Layer 1"><g id="Layer_2-2" data-name="Layer 2"><path class="cls-1" d="M177.75,0c49,.3,90.8,16.4,125.7,49.3s53.8,73.7,56.1,121.6c2.4,51.2-14,96-49.5,133.1-34.9,36.5-78,55.3-128.6,55.8-47.1.5-88.4-15.3-123-47.2C17.65,274.9-1.95,227.7.15,172.2c1.7-46.5,19.6-86.5,52.5-119.3C87.35,18.2,129.75.9,177.75,0Z"/><path class="cls-2" d="M124.55,204.2c-9.8-3-19.7-6.1-29.5-9.1l-14.4-4.5a17.53,17.53,0,0,1-5-2.3c-2.8-2.1-3-4.7-.6-7.3a15.26,15.26,0,0,1,5.8-3.9l17.4-6.9q60-23.1,120.1-46.3c12.7-4.9,25.3-9.8,38-14.7a9.94,9.94,0,0,1,5.4-.8,8.51,8.51,0,0,1,7.1,7.7,24.39,24.39,0,0,1-.3,6.6c-4.9,23-9.8,46.1-14.7,69.1-4,19-8.1,38-12.1,57.1l-2.7,12.9a21.2,21.2,0,0,1-2,6c-2,3.7-5.2,5.1-9.3,4.3a16.47,16.47,0,0,1-6.7-3.1c-13.8-10.2-27.6-20.5-41.5-30.7a21.41,21.41,0,0,0-1.9-1.3c-2.4-.7-4.1-2.5-6-3.9-6.6-4.8-13.2-9.8-19.8-14.6a8.64,8.64,0,0,1-1.4-1.3c-.6-1,0-1.6.6-2.2,9-8,17.9-16.2,26.9-24.2,6.5-5.9,13.1-11.8,19.6-17.7s13-11.7,19.5-17.5c5.1-4.6,10.2-9.1,15.2-13.7l1.2-1.2c.3-.4.7-.8.5-1.3s-.8-.6-1.3-.6a7.52,7.52,0,0,0-4.8,1.4c-5.5,3.3-10.8,6.8-16.2,10.2-16.4,10.3-32.9,20.7-49.3,31-11.3,7.1-22.6,14.2-33.9,21.4C127.15,203.5,126.25,204.8,124.55,204.2Z"/><path class="cls-3" d="M124.55,204.2c2.7-1.1,5-2.9,7.5-4.4,7.2-4.5,14.4-9,21.6-13.6,5.1-3.2,10.1-6.5,15.2-9.7,8.4-5.3,16.9-10.6,25.4-15.9,5.9-3.7,11.8-7.5,17.8-11.3l15.6-9.9a8.75,8.75,0,0,1,5.5-1.4c.6.1,1.2.1,1.4.7a1.59,1.59,0,0,1-.4,1.8,42.11,42.11,0,0,1-3.7,3.6c-2.5,2-4.7,4.3-7.1,6.4-3.9,3.3-7.5,6.9-11.4,10.2-1.6,1.4-3.1,2.9-4.7,4.3-2.3,1.9-4.5,4.2-6.7,6.2-3.4,3.1-6.9,6.1-10.3,9.1-1.5,1.4-3.1,2.8-4.5,4.2-3.7,3.5-7.6,6.8-11.3,10.3-4.5,4.1-9.1,8.1-13.5,12.3-3.2,3-6.6,5.8-9.9,8.7a.87.87,0,0,0-.2,1.3c-.7,11.3-1.5,22.6-2.2,33.9a88.48,88.48,0,0,0-.5,8.9,3,3,0,0,1-.7,2.4,6.15,6.15,0,0,1-1.9.2,3.66,3.66,0,0,1-3.6-2.7c-.5-1.8-1.1-3.5-1.6-5.3-4.9-16.1-9.8-32.3-14.7-48.4A13,13,0,0,1,124.55,204.2Z"/><path class="cls-4" d="M147.15,262.2c-.3-3.9.4-7.8.5-11.6.2-4.2.6-8.4.8-12.6s.6-8.6.9-12.8c.1-2.2.3-4.4.3-6.5a1.62,1.62,0,0,1,.9-1.6c8.1,6,16.2,11.9,24.2,17.9a13.29,13.29,0,0,1,2.6,2.1c-7.5,7.3-15.1,14.6-22.6,21.9C152.75,261,150.35,262.6,147.15,262.2Z"/></g></g></g></svg>