<?xml version="1.0" encoding="utf-8"?>
<!-- Generator: Adobe Illustrator 22.1.0, SVG Export Plug-In . SVG Version: 6.00 Build 0)  -->
<svg version="1.1" id="Layer_1" xmlns="http://www.w3.org/2000/svg" xmlns:xlink="http://www.w3.org/1999/xlink" x="0px" y="0px"
	 viewBox="0 0 90 90" style="enable-background:new 0 0 90 90;" xml:space="preserve">
<style type="text/css">
	.st0{fill:#B1ACC6;}
</style>
<g>
	<path class="st0" d="M58.8,32.9c-0.4,0.1-0.7,0.3-1.1,0.5c-7.2,4.5-14.4,9.1-21.6,13.6c-0.4,0.3-0.5,0.5-0.3,0.9
		c0.5,1.5,1,3.1,1.5,4.6c0.6,2.1,1.3,4.2,2,6.2h0.1c0-0.1,0-0.2,0.1-0.3c0.2-2.2,0.4-4.4,0.6-6.7c0-0.5,0.2-0.8,0.6-1.2
		c3-2.6,5.9-5.3,8.8-8c3.3-2.9,6.5-5.9,9.8-8.8c0.2-0.2,0.3-0.5,0.4-0.7C59.4,33,59.1,32.8,58.8,32.9z"/>
	<path class="st0" d="M45,0C20.1,0,0,20.1,0,45c0,24.9,20.1,45,45,45c24.9,0,45-20.1,45-45C90,20.1,69.9,0,45,0z M67.6,28.6
		c-0.1,1.3-0.4,2.5-0.7,3.7c-2.1,9.8-4.2,19.6-6.2,29.4c-0.5,2.3-2.1,2.9-4,1.5c-3.2-2.4-6.4-4.7-9.6-7.1c-0.3-0.1-0.5-0.2-0.6-0.3
		c-1.7,1.7-3.5,3.3-5.2,5c-0.6,0.6-1.3,0.9-2.1,0.9c-0.6,0-0.9-0.3-1.1-0.8c-1.3-4-2.6-8.1-3.9-12.1c-0.1-0.4-0.3-0.6-0.7-0.7
		c-3.1-0.9-6.1-1.9-9.2-2.9c-0.5-0.2-0.9-0.3-1.4-0.6c-0.6-0.4-0.7-1.1-0.2-1.6s1.1-0.9,1.8-1.1c3.8-1.5,7.5-2.9,11.3-4.4
		C45.4,33.7,55,30,64.6,26.3C66.4,25.6,67.8,26.6,67.6,28.6z"/>
</g>
</svg>
