<?xml version="1.0" encoding="utf-8"?>
<!-- Generator: Adobe Illustrator 21.0.0, SVG Export Plug-In . SVG Version: 6.00 Build 0)  -->
<svg version="1.1" id="Layer_1" xmlns="http://www.w3.org/2000/svg" xmlns:xlink="http://www.w3.org/1999/xlink" x="0px" y="0px"
	 viewBox="0 0 30.6 30.8" style="enable-background:new 0 0 30.6 30.8;" xml:space="preserve">
<style type="text/css">
	.st0{opacity:0.8;fill:#C9CED0;enable-background:new    ;}
</style>
<path id="yt" class="st0" d="M8.2,16.6h1.2V23h1.1v-6.4h1.2v-1.1H8.2V16.6z
	 M17.7,17.3c-0.4,0-0.8,0.3-1,0.6v-2.4h-1V23h1v-0.5c0.2,0.4,0.6,0.6,1,0.6c0.4,0,0.7-0.3,0.8-0.6c0.1-0.4,0.1-0.7,0.1-1.1v-2.2
	c0-0.4,0-0.8-0.1-1.1C18.4,17.6,18.1,17.3,17.7,17.3L17.7,17.3z M17.6,21.4c0,0.5-0.1,0.8-0.4,0.8c-0.2,0-0.4-0.1-0.5-0.2v-3.4
	c0.1-0.1,0.3-0.2,0.5-0.2c0.3,0,0.4,0.3,0.4,0.8V21.4L17.6,21.4z M13.8,21.7c-0.1,0.2-0.4,0.4-0.6,0.5c-0.1,0-0.2-0.1-0.2-0.2
	c0,0,0,0,0,0c0-0.1,0-0.3,0-0.4v-4.1h-1v4.4c0,0.3,0,0.6,0.1,0.8c0.1,0.3,0.4,0.4,0.7,0.4c0.5-0.1,0.9-0.3,1.2-0.7V23h1v-5.6h-1
	L13.8,21.7L13.8,21.7z M14.6,12.3c0.3,0,0.5-0.3,0.5-0.8V9.1c0-0.5-0.2-0.8-0.5-0.8s-0.5,0.3-0.5,0.8v2.4
	C14.1,12,14.3,12.3,14.6,12.3L14.6,12.3z M15.3,0.4c-8.3,0-15,6.7-15,15c0,8.3,6.7,15,15,15c8.3,0,15-6.7,15-15c0,0,0,0,0,0
	C30.3,7.2,23.6,0.4,15.3,0.4z M17,7.5h1v4.2c0,0.1,0,0.3,0,0.4c0,0.1,0.1,0.2,0.2,0.2c0,0,0,0,0,0c0.3,0,0.5-0.2,0.6-0.5V7.5h1v5.6
	h-1v-0.6c-0.3,0.4-0.7,0.6-1.2,0.7c-0.3,0-0.6-0.1-0.7-0.4C17,12.5,17,12.2,17,11.9L17,7.5L17,7.5L17,7.5z M13.1,9.3
	c0-0.5,0.1-0.9,0.3-1.3c0.5-0.7,1.5-0.8,2.1-0.3c0.1,0.1,0.2,0.2,0.3,0.3c0.2,0.4,0.4,0.9,0.3,1.3v2c0,0.5-0.1,0.9-0.3,1.3
	c-0.5,0.7-1.5,0.8-2.1,0.3c-0.1-0.1-0.2-0.2-0.3-0.3c-0.2-0.4-0.4-0.9-0.3-1.3V9.3z M10.4,5.5l0.8,3l0.8-3h1.1L11.8,10v3.1h-1.1V10
	c-0.2-0.8-0.4-1.6-0.7-2.4C9.7,6.9,9.4,6.2,9.2,5.5L10.4,5.5L10.4,5.5z M23.4,23.5c-0.2,0.9-0.9,1.5-1.8,1.6
	c-2.1,0.2-4.2,0.3-6.3,0.2c-2.1,0-4.2,0-6.3-0.2c-0.9-0.1-1.6-0.8-1.8-1.6c-0.2-1.3-0.3-2.6-0.3-4c0-1.3,0.1-2.7,0.3-4
	c0.2-0.9,0.9-1.5,1.8-1.6c4.2-0.3,8.4-0.3,12.5,0c0.9,0.1,1.6,0.8,1.8,1.6c0.2,1.3,0.3,2.6,0.3,4C23.7,20.9,23.6,22.2,23.4,23.5
	L23.4,23.5z M20.9,17.3c-0.5,0-0.9,0.2-1.2,0.6c-0.2,0.4-0.4,0.9-0.3,1.3v2c0,0.5,0.1,0.9,0.3,1.3c0.3,0.4,0.7,0.6,1.2,0.6
	c0.5,0,0.9-0.2,1.2-0.6c0.1-0.2,0.2-0.4,0.2-0.6c0-0.1,0-0.3,0-0.7v-0.1h-1c0,0.2,0,0.5,0,0.7c0,0.2-0.2,0.4-0.5,0.4
	c-0.3,0-0.5-0.3-0.5-0.8v-1h2v-1.2c0-0.5-0.1-0.9-0.3-1.3C21.8,17.5,21.4,17.3,20.9,17.3L20.9,17.3z M21.4,19.5h-1V19
	c0-0.5,0.2-0.8,0.5-0.8c0.3,0,0.5,0.3,0.5,0.8L21.4,19.5L21.4,19.5z"/>
</svg>
