<?xml version="1.0" encoding="utf-8"?>
<!-- Generator: Adobe Illustrator 22.0.1, SVG Export Plug-In . SVG Version: 6.00 Build 0)  -->
<svg version="1.1" id="Слой_1" xmlns="http://www.w3.org/2000/svg" xmlns:xlink="http://www.w3.org/1999/xlink" x="0px" y="0px"
	 viewBox="0 0 26.5 26.5" style="enable-background:new 0 0 26.5 26.5;" xml:space="preserve">
<style type="text/css">
	.st0{fill:#f49c38}
	.st1{fill:#FFFFFF;}
	.st2{fill:#FFFFFF;stroke:#FFFFFF;stroke-width:0.25;stroke-miterlimit:10;}
</style>
<rect class="st0" width="26.5" height="26.5"/>
<g>
	<g>
		<path class="st1" d="M23.8,15.5c-0.1-0.2-0.3-0.3-0.5-0.4c-0.1-1.9-1.7-3.4-3.6-3.4h-4.9c-0.5,0-1,0.1-1.5,0.3
			c-0.5-0.2-1-0.3-1.5-0.3H7.1c-1.9,0-3.4,1.4-3.6,3.3c-0.3,0.1-0.6,0.3-0.8,0.5c-0.3,0.4-0.4,0.8-0.3,1.2l0.8,4.1l0,0
			c0.2,0.5,0.7,0.9,1.2,0.9h0V24h1.7L7,21.8h12.8l0.7,2.2h1.7v-2.2c0.5,0,1-0.4,1.2-0.9l0.6-4.2C24.1,16.3,24,15.8,23.8,15.5
			L23.8,15.5z M19.6,12.4c1.5,0,2.7,1.1,2.9,2.5c0,0-0.1,0-0.1,0c-0.1,0-0.1,0-0.2,0c-0.1,0-0.1,0-0.2,0.1c-0.1,0-0.1,0-0.2,0.1
			c-0.1,0-0.1,0.1-0.2,0.1c0,0-0.1,0.1-0.1,0.1c-0.1,0-0.1,0.1-0.2,0.1c0,0-0.1,0.1-0.1,0.1c-0.1,0.1-0.1,0.1-0.2,0.2
			c0,0-0.1,0.1-0.1,0.1c-0.1,0.1-0.1,0.2-0.1,0.2c0,0,0,0,0,0.1c0,0.1-0.1,0.2-0.1,0.3c0,0,0,0,0,0c0,0.1-0.1,0.2-0.1,0.4l-0.1,1.4
			h-6.9v-5.5c0.4-0.2,0.8-0.2,1.2-0.2H19.6z M7.1,12.4h4.6c0.4,0,0.8,0.1,1.2,0.2v5.5H6.1l-0.2-1.5c0-0.1,0-0.2-0.1-0.3
			c0,0,0-0.1,0-0.1c0-0.1-0.1-0.1-0.1-0.2c0,0,0-0.1-0.1-0.1c0-0.1-0.1-0.1-0.1-0.2c0,0-0.1-0.1-0.1-0.1c0-0.1-0.1-0.1-0.1-0.1
			c0,0-0.1-0.1-0.1-0.1c-0.1,0-0.1-0.1-0.2-0.1c0,0-0.1,0-0.1-0.1c-0.1,0-0.1-0.1-0.2-0.1c0,0-0.1,0-0.1,0C4.5,15,4.4,15,4.3,15
			C4.4,13.6,5.6,12.4,7.1,12.4L7.1,12.4z M4.6,21.1c-0.2,0-0.5-0.1-0.6-0.4l-0.8-4.1c-0.1-0.2,0-0.5,0.1-0.6
			c0.1-0.2,0.4-0.3,0.6-0.3c0.6,0,1.2,0.5,1.3,1.1l0.5,4.3H4.6z M5.8,23.3H5.3v-1.4h0.9L5.8,23.3z M7.3,21.1H6.4l-0.2-2.2h14.3
			l-0.1,2.2H7.3z M21.6,23.3h-0.5l-0.5-1.4h0.9V23.3z M23.3,16.6l-0.6,4.1c-0.1,0.2-0.3,0.4-0.6,0.4h-1.1l0.2-4.2
			c0-0.7,0.6-1.2,1.3-1.2c0.2,0,0.4,0.1,0.6,0.3C23.3,16.1,23.4,16.3,23.3,16.6L23.3,16.6z M23.3,16.6"/>
		<path class="st1" d="M7.6,16.7c0.1,0.1,0.2,0.1,0.3,0.1c0.1,0,0.2,0,0.3-0.1l0.3-0.3c0.2,0.1,0.3,0.1,0.5,0.1c0.2,0,0.3,0,0.5-0.1
			l0.3,0.3c0.1,0.1,0.2,0.1,0.3,0.1c0.1,0,0.2,0,0.3-0.1c0.1-0.1,0.1-0.4,0-0.5l-0.3-0.3c0.2-0.3,0.2-0.7,0-1l0.3-0.3
			c0.1-0.1,0.1-0.4,0-0.5c-0.1-0.1-0.4-0.1-0.5,0l-0.3,0.3c-0.3-0.2-0.7-0.2-1,0L8.1,14c-0.1-0.1-0.4-0.1-0.5,0
			c-0.1,0.1-0.1,0.4,0,0.5l0.3,0.3c-0.2,0.3-0.2,0.7,0,1l-0.3,0.3C7.4,16.3,7.4,16.5,7.6,16.7L7.6,16.7z M9.2,15
			c0.2,0.2,0.2,0.4,0,0.6c-0.2,0.2-0.4,0.2-0.6,0c-0.2-0.2-0.2-0.4,0-0.6c0.1-0.1,0.2-0.1,0.3-0.1C9,14.9,9.1,15,9.2,15L9.2,15z
			 M9.2,15"/>
		<path class="st1" d="M16.2,16.7c0.1,0.1,0.2,0.1,0.3,0.1c0.1,0,0.2,0,0.3-0.1l0.3-0.3c0.2,0.1,0.3,0.1,0.5,0.1
			c0.2,0,0.3,0,0.5-0.1l0.3,0.3c0.1,0.1,0.2,0.1,0.3,0.1c0.1,0,0.2,0,0.3-0.1c0.1-0.1,0.1-0.4,0-0.5l-0.3-0.3c0.2-0.3,0.2-0.7,0-1
			l0.3-0.3c0.1-0.1,0.1-0.4,0-0.5c-0.1-0.1-0.4-0.1-0.5,0l-0.3,0.3c-0.3-0.2-0.7-0.2-1,0L16.8,14c-0.1-0.1-0.4-0.1-0.5,0
			c-0.1,0.1-0.1,0.4,0,0.5l0.3,0.3c-0.2,0.3-0.2,0.7,0,1l-0.3,0.3C16.1,16.3,16.1,16.5,16.2,16.7L16.2,16.7z M17.9,15
			c0.2,0.2,0.2,0.4,0,0.6c-0.2,0.2-0.4,0.2-0.6,0c-0.2-0.2-0.2-0.4,0-0.6c0.1-0.1,0.2-0.1,0.3-0.1C17.7,14.9,17.8,15,17.9,15
			L17.9,15z M17.9,15"/>
		<path class="st1" d="M10.4,9.9h1.8V8.8h8.3v1.1h1.8V8.8h1.1V6.7h-1.1V3h-1.4V2.3h-2.2v1.1h-1c-0.2,0-0.3,0.1-0.4,0.2l-2,3
			c0,0,0,0,0,0H9.3v2.2h1.1V9.9z M11.4,9.2h-0.4V8.8h0.4V9.2z M21.6,9.2h-0.4V8.8h0.4V9.2z M21.6,3.8v2.9h-0.7V3.8H21.6z M19.4,3
			h0.7v3.6h-0.7V3z M18.7,6.7h-1.1L18.7,5V6.7z M17.8,4.1h0.6l-1.7,2.5h-0.6L17.8,4.1z M10,8.1V7.4h12.6v0.7H10z M10,8.1"/>
	</g>
</g>
</svg>
