<?xml version="1.0" encoding="utf-8"?>
<!-- Generator: Adobe Illustrator 22.0.1, SVG Export Plug-In . SVG Version: 6.00 Build 0)  -->
<svg version="1.1" id="Слой_1" xmlns="http://www.w3.org/2000/svg" xmlns:xlink="http://www.w3.org/1999/xlink" x="0px" y="0px"
	 viewBox="0 0 26.5 26.5" style="enable-background:new 0 0 26.5 26.5;" xml:space="preserve">
<style type="text/css">
	.st0{fill:#f49c38}
	.st1{fill:#FFFFFF;}
	.st2{fill:#FFFFFF;stroke:#FFFFFF;stroke-width:0.25;stroke-miterlimit:10;}
</style>
<rect class="st0" width="26.5" height="26.5"/>
<g>
	<g>
		<g>
			<path class="st1" d="M22,21.8H4.2v-3.3H22V21.8z M4.5,4.8h3v13h-3V4.8z M11.2,6.6v11.1h-3v-13h3V6.6z M22.3,17.7H12V7.4h0.7v2.2
				c0,0.8,0.7,1.5,1.5,1.5c0.8,0,1.5-0.7,1.5-1.5c0-0.2-0.2-0.4-0.4-0.4c-0.2,0-0.4,0.2-0.4,0.4c0,0.4-0.3,0.7-0.7,0.7
				c-0.4,0-0.7-0.3-0.7-0.7V7.4h3v2.2c0,0.8,0.7,1.5,1.5,1.5c0.8,0,1.5-0.7,1.5-1.5c0-0.2-0.2-0.4-0.4-0.4c-0.2,0-0.4,0.2-0.4,0.4
				c0,0.4-0.3,0.7-0.7,0.7c-0.4,0-0.7-0.3-0.7-0.7V7.4h3v2.2c0,0.8,0.7,1.5,1.5,1.5c0.8,0,1.5-0.7,1.5-1.5c0-0.2-0.2-0.4-0.4-0.4
				c-0.2,0-0.4,0.2-0.4,0.4c0,0.4-0.3,0.7-0.7,0.7c-0.4,0-0.7-0.3-0.7-0.7V7.4h1.5V6.6H12V4.4C12,4.2,11.8,4,11.6,4H4.2
				C4,4,3.8,4.2,3.8,4.4v13.3c-0.2,0-0.4,0.2-0.4,0.4v4.1c0,0.2,0.2,0.4,0.4,0.4h18.5c0.2,0,0.4-0.2,0.4-0.4v-4.1
				C22.7,17.9,22.5,17.7,22.3,17.7"/>
		</g>
		<rect x="12" y="19.2" class="st1" width="2.2" height="0.7"/>
		<rect x="6.4" y="10.3" class="st1" width="0.7" height="1.9"/>
		<rect x="10.1" y="10.3" class="st1" width="0.7" height="1.9"/>
	</g>
</g>
</svg>
