<?xml version="1.0" encoding="utf-8"?>
<!-- Generator: Adobe Illustrator 21.0.2, SVG Export Plug-In . SVG Version: 6.00 Build 0)  -->
<svg version="1.1" id="Layer_1" xmlns="http://www.w3.org/2000/svg" xmlns:xlink="http://www.w3.org/1999/xlink" x="0px" y="0px"
	 viewBox="0 0 595.3 156" style="enable-background:new 0 0 595.3 156;" xml:space="preserve">
<style type="text/css">
	.st0{fill:#A1A1A1;}
	.st1{fill:#004F9F;}
	.st2{fill:#F28C00;}
</style>
<g>
	<g>
		<g>
			<path class="st0" d="M346.1,130.4c0,3.3-2.3,5.8-6.2,5.8c-1,0-1.6-0.1-2-0.2v6.7h-2.2v-13.9c0-3,1.8-3.6,4.2-3.6
				C344.2,125.3,346.1,127.5,346.1,130.4z M340,126.5c-1.5,0-2.1,0.5-2.1,2.1v6.2c0.4,0.1,0.8,0.2,1.7,0.2c3,0,4.4-2,4.4-4.5
				C343.9,128.2,342.8,126.5,340,126.5z"/>
			<path class="st0" d="M351.4,134.3v8.4h-2.1v-17.2h2.1v8.1l5.6-6.5c1-1.2,2.1-1.6,3.1-1.6c0.3,0,0.6,0,0.8,0l-5.8,6.4
				c-0.7,0.8-1.6,1.5-2.3,1.8v0.5c0.7,0.2,1.7,0.8,2.4,1.7l6.2,6.9c-0.1,0-0.6,0.1-0.9,0.1c-1,0-2.2-0.4-3.2-1.6L351.4,134.3z"/>
			<path class="st0" d="M370.4,143c-4.3,0-7.4-3.5-7.4-9c0-5,3.1-8.8,7.4-8.8c4.3,0,7.4,3.8,7.4,8.8
				C377.8,139.4,374.7,143,370.4,143z M370.3,126.5c-3.1,0-5.1,3.1-5.1,7.2c0,4.7,2,7.8,5.2,7.8c3.1,0,5.1-3.1,5.1-7.4
				C375.5,129.7,373.5,126.5,370.3,126.5z"/>
			<path class="st0" d="M392.9,142.9c-3.1,0-4.7-1-4.7-3v-11.6c0-2.6,2-3.1,4.2-3.1c4.1,0,5.6,1.9,5.6,4.2c0,2.2-1.5,3.4-3,3.9v0.2
				c2.2,0.4,4.3,1.8,4.3,4.5C399.4,140.6,397.4,142.9,392.9,142.9z M392.5,126.5c-1.5,0-2.1,0.5-2.1,2.1v4.4
				c0.3,0.1,0.9,0.1,1.7,0.1c2.4,0,3.9-1.3,3.9-3.5C396,127.8,395.1,126.5,392.5,126.5z M392.2,134.3c-0.9,0-1.5,0-1.8,0.1v5.3
				c0,1.3,0.7,2,2.6,2c2.8,0,4.2-1.7,4.2-3.6C397.2,135.6,395.6,134.3,392.2,134.3z"/>
			<path class="st0" d="M411.6,142.7c-0.2,0-0.5,0-0.6,0c-0.6,0-1-0.3-1.1-1l-0.1-0.5l-0.2,0c-0.9,1.1-2,1.7-3.4,1.7
				c-2.7,0-4.5-2.3-4.5-6c0-4.4,2.7-7,5.9-7c1.1,0,2.2,0.3,2.9,0.7c0.7,0.4,1.1,0.9,1.1,1.8V142.7z M409.6,132.7
				c0-1-0.9-1.7-2.1-1.7c-2,0-3.7,1.8-3.7,5.6c0,3.2,1.2,4.9,3,4.9c1.2,0,2.1-0.6,2.8-1.4V132.7z"/>
			<path class="st0" d="M422.9,142.7v-9c0-1.8-1.1-2.7-3-2.7c-1.8,0-2.5,0.5-2.5,1.8v10h-2v-10.6c0-0.7,0.3-1.2,1-1.6
				c0.8-0.4,2-0.7,3.7-0.7c3.2,0,4.9,1.3,4.9,3.7v9.1H422.9z"/>
			<path class="st0" d="M430.5,142.7h-2v-18.3h2v11.4l3.8-4.6c0.6-0.8,1.5-1.1,2.4-1.1c0.3,0,0.6,0,0.8,0l-3.7,4.3
				c-0.8,0.9-1.6,1.5-2.1,1.6v0.4c0.5,0.1,1.3,0.5,2.2,1.6l4.1,4.8c-0.2,0-0.5,0.1-0.8,0.1c-1.1,0-2-0.4-2.7-1.3l-4-4.9V142.7z"/>
			<path class="st0" d="M457.7,130.4c0,3.3-2.3,5.8-6.2,5.8c-1,0-1.6-0.1-2-0.2v6.7h-2.2v-13.9c0-3,1.8-3.6,4.2-3.6
				C455.8,125.3,457.7,127.5,457.7,130.4z M451.6,126.5c-1.5,0-2.1,0.5-2.1,2.1v6.2c0.4,0.1,0.9,0.2,1.7,0.2c3,0,4.4-2,4.4-4.5
				C455.5,128.2,454.4,126.5,451.6,126.5z"/>
			<path class="st0" d="M465.2,143c-3.7,0-5.5-3.1-5.5-6.7c0-3.5,1.9-6.6,5.5-6.6c3.6,0,5.5,3,5.5,6.6
				C470.7,139.9,468.8,143,465.2,143z M465.1,131c-2.4,0-3.3,2.6-3.3,5.1c0,2.6,1,5.7,3.4,5.7c2.6,0,3.4-2.7,3.4-5.3
				C468.6,133.9,467.6,131,465.1,131z"/>
			<path class="st0" d="M473.7,142.7v-18.3h2v18.3H473.7z"/>
			<path class="st0" d="M484,135.6c1.9,0.7,4,1.5,4,3.7c0,2.1-1.8,3.7-4.6,3.7c-2.2,0-4.2-1-4.8-3.5c0.3-0.1,0.6-0.2,0.9-0.2
				c0.8,0,1.3,0.6,1.7,1.2c0.3,0.5,1,1.4,2.4,1.4c1.4,0,2.6-0.8,2.6-2.2c0-1.4-1.3-2-3.1-2.6c-2.2-0.8-3.8-1.8-3.8-3.9
				c0-2.2,2-3.4,4.2-3.4c2.3,0,3.7,1.1,4.3,3.1c-0.4,0.2-0.7,0.3-1,0.3c-0.8,0-1.2-0.6-1.6-1.2c-0.5-0.8-1-1.1-2-1.1
				c-1.1,0-2.1,0.6-2.1,1.9C481.1,134.4,482.2,135,484,135.6z"/>
			<path class="st0" d="M492.9,142.7h-2v-18.3h2v11.4l3.8-4.6c0.6-0.8,1.5-1.1,2.4-1.1c0.3,0,0.6,0,0.8,0l-3.7,4.3
				c-0.8,0.9-1.6,1.5-2.1,1.6v0.4c0.5,0.1,1.3,0.5,2.2,1.6l4.1,4.8c-0.2,0-0.5,0.1-0.8,0.1c-1.1,0-2-0.4-2.7-1.3l-4-4.9V142.7z"/>
			<path class="st0" d="M503.5,127.8c-0.8,0-1.3-0.6-1.3-1.3c0-0.7,0.6-1.3,1.3-1.3c0.7,0,1.3,0.6,1.3,1.3
				C504.8,127.2,504.2,127.8,503.5,127.8z M502.4,142.7v-12.6h2v12.6H502.4z"/>
			<path class="st0" d="M527.8,134v4.9c0,2-2,4.1-5.7,4.1c-5.3,0-7.7-4.3-7.7-9c0-4.6,2.7-8.8,7.5-8.8c2.6,0,5,1.4,5.9,4.3
				c-0.4,0.2-0.6,0.2-1,0.2c-0.8,0-1.4-0.3-2.1-1.5c-0.6-1-1.6-1.8-2.9-1.8c-2.9,0-5,2.5-5,7.1c0,4.7,2.2,8,5.5,8
				c2.6,0,3.7-1.3,3.7-2.9v-3.4h-1.3c-1.2,0-1.9-0.5-1.9-1.4H527.8z"/>
			<path class="st0" d="M536.6,132c-0.5,0-0.8-0.2-1.3-0.6c-0.4-0.3-0.7-0.4-1.1-0.4c-0.6,0-1.1,0.4-1.1,1.4v10.3h-2v-10.6
				c0-0.8,0.3-1.3,1-1.6c0.7-0.4,1.7-0.6,2.8-0.6c1.5,0,2.3,0.4,3.1,1.1C537.5,131.7,537.1,132,536.6,132z"/>
			<path class="st0" d="M544.7,143c-3.7,0-5.5-3.1-5.5-6.7c0-3.5,1.9-6.6,5.5-6.6c3.6,0,5.5,3,5.5,6.6
				C550.2,139.9,548.4,143,544.7,143z M544.6,131c-2.4,0-3.3,2.6-3.3,5.1c0,2.6,1,5.7,3.4,5.7c2.6,0,3.4-2.7,3.4-5.3
				C548.1,133.9,547.1,131,544.6,131z"/>
			<path class="st0" d="M555.2,130.1v9c0,1.8,1,2.7,2.9,2.7c1.8,0,2.4-0.5,2.4-1.8v-9.9h2v10.6c0,0.7-0.3,1.2-1,1.6
				c-0.8,0.4-1.9,0.7-3.6,0.7c-3.2,0-4.9-1.3-4.9-3.7v-9.1H555.2z"/>
			<path class="st0" d="M568.2,148.5h-2v-16c0-0.8,0.4-1.4,1-1.8c0.7-0.4,1.9-0.8,3.4-0.8c3.9,0,5.7,2.4,5.7,6c0,3.8-2,7-5.6,7
				c-1,0-1.8-0.3-2.4-0.8V148.5z M570.4,131c-1.5,0-2.2,0.6-2.2,1.6v8.2c0.5,0.5,1.3,0.9,2.3,0.9c2.3,0,3.6-2.2,3.6-5.5
				C574.2,132.5,572.3,131,570.4,131z"/>
		</g>
	</g>
	<g>
		<path class="st1" d="M167.9,102c0.3,0.5,0.7,0.9,0.7,1.7c0,0.7-0.5,1.4-1.8,1.4h-11.2c-2.5,0-2.4-0.4-3.5-2.1L130.9,70V103
			c0,1.8-1,2.1-1.9,2.1h-9.6c-1.5,0-1.8-0.7-1.8-2V35.7c0-1.8,0.6-2.1,2.2-2.1h9.1c1.7,0,2,0.6,2,2v28.5L152,35.6c1.4-2,1.7-2,3.7-2
			h7.2c0.8,0,1.7,0.2,1.7,1.3c0,0.7-0.5,1.5-1,2.2l-20.7,27.6L167.9,102z"/>
		<path class="st1" d="M188.3,103c0,1.7-0.4,2.1-2.1,2.1h-8.3c-1.7,0-2.1-0.4-2.1-2.1V60.6c0-2.6,0.3-3.9,1.3-4.8
			c2.5-2.4,11.3-4.6,20.4-4.6c1.6,0,5.8,0.1,8.6,1.8c1.2,0.7,3.2,2.4,3.2,5.8c0,3.1-2.3,5.5-5.4,5.5c-1.3,0-2.1-0.4-3-1.1
			c-1.2-1-1.9-2.6-3-3.9c-0.7-0.8-1.8-1.7-4.3-1.7c-2,0-4.2,0.8-4.9,2.9c-0.3,0.9-0.4,2.2-0.4,3.2V103z"/>
		<path class="st1" d="M221.7,78.6c0.4,6.8,4.7,16.7,13.9,16.7c2.6,0,7.3-0.4,12.7-7.6c1-1.3,1.6-2,2.9-2c2.5,0,2.6,2.8,2.6,3.1
			c0,2.3-1.6,5.6-1.8,6.1c-5.5,11.6-15.8,11.6-18.5,11.6c-10.4,0-22.5-7-22.5-27.6c0-20.1,11.8-27.6,22.5-27.6
			c7.9,0,15.3,3.5,18.6,13.1c1,2.7,1.2,5.1,1.2,6.1c0,3.2-2.1,3.8-3.5,4L221.7,78.6z M240.7,69.1c-0.3-4.5-2.8-10.2-8.7-10.2
			c-0.7,0-2.8,0.1-5,1.4c-5.7,3.5-5.7,11.6-5.8,12L240.7,69.1z"/>
		<path class="st1" d="M292.1,29.8c0-0.7,0-2.2,2-2.2h8.1c1.9,0,2.4,0.5,2.4,1.8V95c0,1-0.1,3.6-1.4,5.4c-3.6,5-14.9,6.1-19.2,6.1
			c-16.7,0-23.7-11.8-23.7-26.2c0-11.6,5.9-29.1,22.5-29.1c4.3,0,6.8,1.3,9.2,2.7V29.8z M292.1,60.6c-1.3-1-3.4-2.5-6.6-2.5
			c-7.6,0-12.5,8.4-12.5,20.2c0,8.9,2.5,15.3,7.2,18.4c1,0.6,2.9,1.6,5.6,1.6c5.7,0,6.3-4.1,6.3-6.4V60.6z"/>
		<path class="st1" d="M335.7,106.5c-16.9,0-24.1-14.5-24.1-28.4c0-13.3,8.6-26.8,24.4-26.8c15.7,0,23.9,14.1,23.9,27
			C359.9,95.8,349.5,106.5,335.7,106.5z M336.2,98c7.2,0,10.5-9.1,10.5-19.3c0-7.5-2.6-20-11.5-20c-6.9,0-10.7,8.3-10.7,18.6
			C324.6,88.3,329.3,98,336.2,98z"/>
		<path class="st1" d="M369.7,37.7c0-3.3,1.7-3.8,6.2-4.3c1.8-0.2,6.7-0.7,12.1-0.7c8.7,0,27.9,1,27.9,17.6
			c0,11-10.2,15.5-13.1,16.5c14.9,3.1,16.9,13.4,16.9,19c0,5.7-2.1,9.4-4.2,11.8c-5.4,6.3-14.1,8.2-27.6,8.2
			c-4.6,0-11.2-0.4-14.6-0.9c-2.6-0.4-3.7-1-3.7-4.2V37.7z M383.3,64.3h2.9c4.3,0,10.6-0.2,14.2-5.7c0.8-1.2,1.8-3.3,1.8-6.3
			c0-5.2-2.5-11.6-13.3-11.6c-3.1,0-5.4,0.2-5.7,0.3V64.3z M383.3,97.1c2.6,0.3,5.5,0.4,6.8,0.4c3,0,15.5-0.3,15.5-12.5
			c0-2.7-0.6-6.1-2.8-8.7c-3.2-4-7.6-5.3-15.2-5.3c-1.6,0-2.7,0.1-4.3,0.2V97.1z"/>
		<path class="st1" d="M453.5,67.5c0-5.5-0.9-9.2-6.4-9.2c-8.6,0-5,10.7-12.7,10.7c-3,0-5.4-2.3-5.4-5.4c0-2.2,1.3-4.4,1.8-5.1
			c4.4-6,13.3-7.2,17.9-7.2c14.3,0,16.5,7.7,16.5,15v28.1c0,3.1-0.4,5.2-1.3,6.5c-3.4,4.9-14,5.6-18.6,5.6
			c-13.1,0-19.1-5.9-19.1-14.5c0-12.9,15.9-16.5,23.8-18.5l3.2-0.8V67.5z M450.1,79.6c-5.6,1.8-11.3,4.5-11.3,11.2
			c0,5.1,3,8.7,8.4,8.7c6.3,0,6.3-4.7,6.3-6.7V78.5L450.1,79.6z"/>
		<path class="st1" d="M508.1,105.1c-1.8,0-2.2-0.7-2.2-2.3V66.9c0-3-0.7-8.7-8.6-8.7c-4.2,0-6.6,1.9-7.7,4.5
			c-0.3,0.7-0.5,2.1-0.5,4.1v36c0,1.6-0.2,2.4-2.2,2.4h-8.2c-1.7,0-2.1-0.6-2.1-2.1V61.7c0-1.8,0.1-3.7,1.9-5.5c2.7-2.7,11.3-5,20-5
			c6.3,0,16.8,0.6,19.6,10.3c0.5,2,0.5,3.6,0.5,5.6V103c0,1.4-0.3,2.1-2,2.1H508.1z"/>
		<path class="st1" d="M575.3,102.1c0.6,0.7,0.9,1.1,0.9,1.6c0,0.8-0.5,1.4-1.7,1.4h-11.2c-1.2,0-2,0-3.1-1.5L542,79.3v23.9
			c0,1.1-0.1,1.9-2,1.9h-8.4c-1.9,0-2-0.6-2-1.9V29.5c0-1.7,0.7-1.9,1.6-1.9h8.8c1,0,2,0,2,1.6v45.7l18.2-20.2
			c1.8-2,2.4-2.1,4.2-2.1h6.8c0.8,0,2.1,0,2.1,1.3c0,0.7-0.4,1.2-0.9,1.8l-18,19.2L575.3,102.1z"/>
	</g>
	<path class="st2" d="M22.5,14.7c-0.9-1.3-1.9-2.8-1.9-4.2c0-2.1,1.7-2.5,3.2-2.5h13.5c3.6,0,4.2,0,6.8,3.8l40.3,54.4l-40.3,54.4
		c-2.7,3.8-3.2,3.8-6.8,3.8H23.8c-1.5,0-3.2-0.4-3.2-2.5c0-1.3,0.9-2.8,1.9-4.2l38.7-51.6L22.5,14.7z"/>
</g>
</svg>
