<?xml version="1.0" encoding="utf-8"?>
<!-- Generator: Adobe Illustrator 21.0.2, SVG Export Plug-In . SVG Version: 6.00 Build 0)  -->
<svg version="1.1" id="Layer_1" xmlns="http://www.w3.org/2000/svg" xmlns:xlink="http://www.w3.org/1999/xlink" x="0px" y="0px"
	 viewBox="0 0 492 257.3" style="enable-background:new 0 0 492 257.3;" xml:space="preserve">
<style type="text/css">
	.st0{fill-rule:evenodd;clip-rule:evenodd;fill:#AAD037;}
	.st1{fill:#FFFFFF;}
</style>
<g>
	<path id="XMLID_5201_" class="st0" d="M280.4,234.8c-0.2,0.5,0.9,0.1,1.4,0.7c-1.2-0.3-1.8-0.1-0.4,0.5c0.6-0.3,1.6,0,1.3-0.6
		c0.2,0.2,0.5,0.2,0.7,0.4c0.6,0.5-1,0.3,0.3,0.8c0.8-0.3-0.2-1.3,0.8-1.6c0.5,0.1,0.8,0.7,1.4,0.7c-0.8-0.5,0.3-0.3-0.7-1
		c-0.3,0-0.7,0-1-0.2c0-0.3,1.1-0.8,2-0.2c-0.8-0.5-0.2-0.5-1-1c-1.3-0.2,0.5,0.8-0.7,0.6c-0.6-0.8-0.1-0.7-1.8-1.8
		c0.4,0,0.5-0.1,0.6-0.1c0.9,0.4,0.2,0.2,0.8,0.7c0.4,0,0.8,0.2,1.2,0.4c1,0.1,0.3-0.5,1.2-0.4c1.1,0.6-0.3,0.8,1,0.8
		c0-0.5,0.3-1.3-0.5-1.8c0.4,0.4-0.2,0.3-0.9,0.3c-1.1-1.1,0.7-1.3-0.3-2.1c0.4,0,0.8,0.2,1.1,0.5c1.2,0.1,1.1-0.2,1.2-0.4
		c-1.6-1.3-0.4-1.7,0.6-2.4c-0.6-0.1-0.5,0.4-1.3-0.1c-0.9-0.7,1.1-0.3,0.8-0.8c-0.5-0.2-1-0.1-1.4-0.5l1,0c-1.4-1.1,1.9-0.5,2-1
		c-1.5-1.1-0.1-1.6,1.4-0.9c0,0.1-1.5,0.1-0.2,0.5c-0.4-0.5,0.8,0.5,1.2,0.4c-0.4-0.5-0.7-0.9-1.1-1.3c-1.4-0.2-1.2-0.1-1.9,0.1
		c-0.7-1.1-0.1-1.8,1.2-1.7c-0.6-0.1-1-0.9-1-1c1.8,0.6-0.1-0.8,0.6-0.9c0.4,0.2,2.1,0.4,1.9,0.1c-0.7-0.2-1.5-0.4-2.1-0.9
		c1.6,0.1-1.1-1.1,0.9-0.9c-0.1,0.3,0.5,0.3,1.1,0.5c-0.1-0.5,0.6-1.1-0.9-1.2c1-0.1,2.1-0.6,1.4-1.7l1.1,0.1
		c-0.4-0.6-1.2-0.1-1.7-0.6c0.5-0.5,1.8-0.3,1.8-1.2c0.8,0.5-0.3,0.3,0.5,0.8c-0.2-0.5,1.4-0.8,0.3-1.4c0.3,0.2-0.2,0.6-0.6,0.3
		c0.1-0.4-0.4-1,0.9-0.9c0.1,0.3-0.2,0.5,0.8,0.7c-0.2-0.4,0.5-0.5-0.8-0.8c1.6,0.5,0.7-0.1,1.4-0.2c0.4,0.4,0.4,0.6,1.2,1.2
		c-0.7-0.1-0.2,0.3-1.1,0.1c2.9,1.8-1.4,1.4,0.7,3.2c-1.2,0.1,0.7,1.3-1,1.2c0.2,1,0.3,2-0.4,2.7c0.6,0.2,1,0.6,1.6,0.7
		c-0.2,0.2,0.5,0.7-0.2,0.6c0.7,0.6,1.5,0.8,2.2,1.2c-0.7,0-1.4,0-2.1-0.3c-0.1,0.5,0.8,1.1,1.1,1.3c-0.8-0.1-1.2-0.3-1.1,0.1
		c1.2,0.4,1.3-0.2,2.3,0.4c-0.4,0.1-1.4,0.3,0.2,1c-0.7-0.1-0.5,0.2-0.9,0.3c-0.7-0.4-1.4-0.6-2.2-0.6c0.7,0.6,0.7,0,1.6,0.7
		c-1.2,0.1,0.2,0.9-0.2,1.4c1.2,0,1.1-0.1,2.3,0.4c-0.5-0.4,0.8,0,1.1-0.1c-0.4-0.5-0.1-0.7,0.1-1c-0.9-0.3-0.5,0.4-1.3-0.1
		c1.3,0.1-1-1.2,1-0.6c-1-1-1-1.4-1.3-2.3c0.4,0,0.9,0.1,1.3,0.2c-0.2-0.2-0.4-0.4,0.1-0.3c-0.3-0.6-1-0.1-1.4-0.6
		c-0.4-0.5,0.4-0.5,1.4-0.1c-0.4-0.5-0.9-0.5-1.3-0.9c0.1-0.5,1.6-0.1,0-1.4c0.5,0,0.9,0.5,1.5,0.4c-0.3-0.6-0.4-0.8,0.6-0.1
		c0.3-0.2-0.6-0.8-0.5-1c1.8-0.3-0.1-1.9,0.1-2.5c1,0.1,2.2,0,3,0.6c-0.7-0.1-1.2-0.4-1.3-0.1c0.3,0.5,1,0.2,1.4,0.7
		c-0.3,1.3-0.6,2.5,0.1,4.1c1.2,0.2,0.4-0.4,1-0.4c1.1,0.3,0.7,0.7,1.6,0.7c-0.3-0.2-0.6-0.4-0.9-0.5c0.9-0.2,1.6,0,1.8-0.4
		c-0.6,0.3-1-0.3-2-0.4c0.3,0.3,0.9,0.6,0.6,0.7c-0.6-0.3-1.3-0.3-1.9-0.7c1.9,0.7,0-0.4,1.2-0.4c0.6,0.5,1.6,0.3,1.8,0.3
		c-0.3-0.9,2.2-2,0.6-3.2c0.6,0.1,1,0.7,1.7,0.6c-1.7-1.2-1.4-1.2-1.5-1.8c-0.4,0.3-1.6-0.3-1.2,0.3c0.3,0,0.7,0.1,0.9,0.4
		c-0.4,0-0.9,0.2-1.8-0.1c0.7-0.1-0.4-1.7,2.7-0.7c-0.3-0.4,0.4-0.5,0.1-1c-1.2-0.2-1.1,0.4-2-0.3c-0.6-0.6,1.6,0,1-0.6
		c2.2,1.1,1-0.8,2.5-0.3c-0.9-0.4-0.7-0.1-1.2-0.4c-0.4-0.4-0.3-0.8,0.7-0.4c-1-0.8,0.4-0.3-1-1c0.5-0.2,1-0.4,2.1,0.1
		c0.4-0.3-1.6-0.6-1-0.9c0.8,0.4,1.6,0.5,1.2-0.3c-0.3-0.3-0.8-0.1-1.2-0.4c0.1-0.3,0.6,0.1,1.3,0.2c-0.5-0.3-0.2-0.4-0.6-0.7
		c-1.1-0.6-0.2,0.5-1.3-0.1c-0.4-0.7,0.8-0.8,2.2,0c-1.2-0.7-2.1-1.7-0.2-1c0.1-0.3-0.5-0.3-1.1-0.7c1.2-0.7,0.2-1.7,1.9-2.1
		c-0.4-0.5-1.1-0.6-1.6-0.9c0.7-0.4,2.5,0,0.9-0.9c1.2,0.1,0.5-0.6,1.2-0.4c-0.3,0-0.6-0.3-0.9-0.5c0.8,0.1,3.1-0.4,1-1.2
		c1.2,0,2-0.4,3-0.2c-2-1.4,1.2-2-1.2-2.5c-0.5-0.6,1.6,0.3,0.5-0.6c-0.8-0.6,0,0.6-1.1-0.1c-0.3-0.5-0.2-1.4,1.6-0.6
		c-0.3,0.1-0.4,0.7,0.2,0.8c-0.1-0.7,0.5-1.3-0.6-2.1c0.6-0.2,0.9,0.6,1.5,0.4c-0.9-0.8,0.1-0.4,0-0.8c0.5,0.4,1,0.8,1.5,1
		c-0.6,0.1-1.1,0.3,0.1,1.1c0.7,0-0.5-0.8,0.6-0.8c-0.5-0.7-2.4-1.4-1.6-1.5c0.7,0,1.3,0.4,2,0.4l-0.4-0.3c0.2,0,0.3,0,0.1-0.2
		c-0.8,0-1.6-0.1-2.3-0.4c0.6-0.3-0.5-0.4-1.4-0.7c-0.3-0.6,1.1,0,1.7-0.2c-0.8-0.9-0.6-1.9,1.7-1c-0.8-0.7-2-0.5-2.8-1.1
		c0.8,0.2,1.7,0.2,2.5,0.5c-0.4-0.6-0.5-1,0.6-0.9c-0.7-0.6-1.7-0.2-2.3-1.1c0.6,0,1.2,0.1,1.8,0.1c-1.6-0.6-0.7-0.8-1.3-1.5
		c0.4,0,0.6,0.2,1,0.2c-0.6-0.8-0.4-1.6,1.7-1c-1.2-0.6-0.8-1.2,0.3-0.8c-2.1-1.3,0.6-0.8-0.2-1.6c1,0.4,0.2,0,0.6-0.1
		c0.3,0.2,0.6,0.4,0.9,0.5c0.5-0.1,1.3-0.1,0.8-0.6c-0.7,0-0.4,0.7-1.6-0.1c0.9-0.3-1.2-1.8-0.5-2.3c0.5-0.1,1.1,0,2,0.4
		c0.9,1-1.8-0.4-1.2,0.4c1.1,0,1.9,0.7,2.9,1c-1.5-0.7-0.8-1-1.1-1.5c-0.8-0.2-1.7-0.3-2.4-0.9c0.3-0.1,1.7,0.6,1.3,0.1
		c-0.4-0.1-0.8-0.2-1.2-0.4c0.3-0.3,0.8-0.4,1.1-0.7c-1.7-1,0.3-1.4-0.3-2.2c0.4,0.2,0.8,0.2,1.2,0.4c-0.1-0.2-0.6-0.6,0.4-0.5
		c-2-1.2,0-0.9,0.4-1.3c-0.9-0.2-0.2-0.4-1.1-0.7c-1-0.1-1.3,0-1.2,0.3c-1.8-0.9-0.9-1.5,0-1.6c0.4,0.4-0.6,0.3,0.5,1
		c0.9-0.5,0.8-1.4,2.2-1.6c0.3,0,0.6,0.3,0.9,0.5l1.3,0.1c-0.6-0.6-1.4-0.5-2-1.1c-0.8-1,1.5-0.1,0.1-1.1c1.4,0.3,1.7,1.2,1.4,1.3
		c1.5,0.3-0.3-1,1.2-0.4c-1.1-0.8-2.4-0.7-3.4-1.8c1,0,0.5-1.7,3.6-0.3c-0.9,0.1-1.1,0.4-1.3,0.7c1.1,0.4,0.2-0.5,1.5,0.2
		c-0.5-0.9,1.2-1.4,0.5-2.1c0.2,0.2,0,0.2-0.1,0.3c-0.8-0.5-0.2-0.7-1.4-0.7c-0.9,0,1.5,0.5,0.6,0.5c-1.2,0.1-0.5-0.4-1.4-0.5
		c0.2,0.6-1.5-0.3-1.5,0.4c-0.8-0.6-0.3-0.7-0.2-1c0.7,0.1,1.9,0.5,1.4-0.1c-0.6-0.2-1.2-0.2-1.7-0.6c0.3-0.2,0.6-0.4,1.6,0.1
		c-0.5,0.2,1.4,0.8,1,1c1.4,0.2,0-0.7,0.1-1c0.4,0,0.9,0,1.3,0.2c-0.4,0.1-0.2,0.5,0,0.8c1.5,0.4,0.1-0.2,1.4-0.1
		c0.2,0.5-0.4,0.7-0.2,1.3c0.3,0,0.7,0,1,0.2c-0.2,0.3-0.3,0.4-1.3-0.1c0.4,0.6,0.4,1.1-0.4,1.1c0.8,0.1,0.7,0.5-0.1,0.3
		c0.3,0.2,0.6,0.4,0.9,0.5c-0.1,0.1-0.4,0.2-1.1,0.1c1.5,1,0.5,1.1-0.2,1.3c0.5,0,0.9,0.6,1.4,0.7c-2-0.1,0.7,2.1-1.9,1.5
		c1.1,0.7-0.1,0.5-0.5,0.6c0.4,0.5,1,0.6,1.5,1c-2.1-0.5,0.3,1.4-0.4,1.7c-0.4-0.1-0.8-0.3-1.2-0.4c0.1,0.5,0,0.6-0.1,1.1
		c0.8,0.3,0.8-0.2,1.7,0.4c-3.4-0.5-1.6,1.6-1.9,2.3c-0.5-0.3-1-0.6-1.7-0.6c0.6,0.6-0.3,0.6-0.1,1c0.7,0.1,1.4,0.2,2,0.4
		c0.1,1.7-2.8,2.7-0.9,4.8c-0.1-0.2-0.3-0.5,0.4-0.5c0.4,0.5,0.9,0.5,1.3,0.9c-2-0.3,0.2,0.8-0.1,1c-0.7,0.1-1.1-0.3-1.8-0.3
		c1.2,0.7,0.8,0.7,1.2,1.2c-0.5,0-0.8-0.3-1.2-0.4c0.3,0.5-1.3,0.6-0.1,1.1c0.3-0.1-0.3-0.6,0.7-0.4c0.1,0.8,0.9,0.6,2.2,1.4
		c-0.7,0.1-1.2-0.2-1.7-0.4c-0.6,0.3-0.3,1.3-0.2,2.1c-1.1-0.4-1.3,0-2.1-0.1c0.5,0.6,1.3,0.3,1.8,0.9c-1.5-0.2-1.7,0.1-2.2,0.2
		c-0.5-0.3-0.1-0.4-0.6-0.5c0.5,0.5-0.7,0.3-1.3-0.1c0.4,0.5-0.6,0.4,0.2,1c1.1,0.2,0.3-0.2,0.6-0.3c0.5,0.6,0.9,0.3,1,0.2
		c-0.1,0.4,0.1,0.8,1.1,1.3c-0.9-0.4,0.3-0.5,0.6-0.1c0.6,0.9-1.6,0.6-1.8,1.2c0.7,0,1.5-0.1,1.9,0.6c-1.5-0.3-3.4-0.3-2.1,0.5
		c-0.3-0.2,0-0.5,0.6-0.1c-0.2,0.4,0,0.9-0.7,1.1c0.4,0.4,0.8,0.7,1.3,0.9c-0.6,0.1-0.6,0-1.6-0.1c0.4,0.3,0.2,0.4,0.6,0.7
		c0.3,0.2,0.7,0.2,0.9,0.4c0.6,1.3-1.4,1.2-2,1.8c0.8,0.2,1.6,0.4,2.4,0.8c-0.4,0.2,0.1,0.7-1,0.6c-0.5-0.5,1.1-0.5-0.5-0.8
		c-0.5,0.2,0.2,0.9,1,1.6c-1.3,0-0.7-0.6-1.8-0.9c0.7,1.4-1,1.7-1.7,2.3c0.9,0.2,0.1-0.3,0.6-0.3c0.4,0.5,1.1,0.4,1.6,0.9
		c-2.9-0.1-0.6,1.9-1.5,2.6c0.6-0.1,1,0.1,1.4,0.6c-1-0.1-1.9-0.1-2,0.2c0.3,0.1,0.6,0.2,0.9,0.4c-1.2,0.4-0.1,1.6-1.7,1.8
		c0.4,0,0.8,0.2,1.2,0.4c-1.1,0.9-0.4,1,0,2.2c0.5,0,1,0.1,1.5,0.4c-1.4-0.1,0.6,0.6-0.2,0.6c-0.5,0-1-0.1-1.5-0.2
		c0.3,0.3,0.5,0.6,0.3,0.7c-0.4,0-0.7-0.5-1.1-0.5c0.4,0.8,0.7,0.6,0.6,1.3c-0.4-0.3-0.8-0.8-1.4-0.7c1.7,1.4,0,2.3,2.7,2.8
		c0.5,0.6-0.8,0.6-0.7,1.1c0.3,0,0.7,0,1,0.2c-0.9,0.2,1,0.9,0.4,1.1c-1.1-0.2-2-0.9-3.1-1.1c1.4,0.7,2.1,1.9,0.1,1.3
		c0.8,3.1-0.2,5.4,0,8.3c1.1,0.2-0.2-0.6,0.5-0.6c0.9,0.3,0.5-0.2,1.5,0.4c-0.3,0,0.1,0.3-0.1,0.3c-0.4-0.1-0.8-0.3-1.3-0.2
		c0.3,0.5,0.9,0.4,1.4,0.7c0,0.2,0.2,0.5,0,0.6c-0.4-0.1-0.8-0.2-1.2-0.4c-0.7-0.7-1.6-1.1-2.4-1.6c0.4,0.4-0.5,0.3,0.2,0.8
		c0.5,0.1,1.1-0.1,1.5,0.4c-0.8,0.4,1.5,1.9-0.4,1.9c0.9,0.5,0.9,0.6-0.1,0.3c0.9,0.6,0.6,0.7,0.7,1c0.8-0.1,0.4-0.5,1.3-0.6
		c1.6,1.2-0.3,1.1-0.1,1.7c1.4,0.5,0.4,0.7,0.9,1.2c0.9,0.3,1.9,0.1,2.7,0.6c-1.3-0.1-0.6,0.5-1.1,0.7c-1.1-0.1-0.8-0.1-2-0.4
		c1.1,0.7,0.8,0.6,1.7,1.3c0.8,0,1,0.2,2.2,0.6c0.3-0.2-0.5-0.8,0.7-0.6c-1.4-1.3-0.2-1.6-0.7-2.7c2.3,0.4,0.2-1,1-1.2
		c0.3,0.2,0.6,0.4,0.9,0.4c-0.8-0.5,0.3-0.3-0.7-1c-0.6-0.2-1.4-0.2-1.9-0.7c0.3,0,0.1-0.1,0.3-0.1c1-0.1,1.7,0.7,2.7,0.6
		c-0.8-0.6-0.7-0.7,0.5-0.6c-0.3-0.2-0.6-0.4-0.9-0.5c0.3-0.1,1.2,0,1.2-0.3c-1.9-0.8-1,0.3-1.5,0.5c-0.5-0.3-1.2-0.2-1.6-0.7
		c0.9,0,0.5-0.6,1.3-0.7c-0.2-0.5-1.3-0.7,0-0.6c-0.4-0.4-0.9-0.4-1.3-0.9c1,0.2,0.8-0.1,1.4-0.1c-0.3-0.3-1.8-0.9-1.2-1
		c0.8,0.5,1.6,1,2.6,0.9c-2.1-1-0.2-0.5-2.1-1.5c1.4,0.3,0.9,0,1.6-0.1c0.5,0.4-0.7,0.7,0.7,1.1c0.5-0.3-0.2-1.1,0-1.6
		c1.8,0.7,0.8-1,1.5-1.2c0.8,0.8,0.9,2.2,3.1,2.7c0.1,0.2-0.2,0.3-0.6,0.3c-0.3-0.3-0.7-0.4-1.1-0.5c0.6,1-2-0.4-1.8,0.4
		c0.6,0,1.2,0,1.7,0.4c0.1,0.2,0.2,0.4,0.1,0.5l-1.1-0.1c0.5,0.5,0.4,0.7,0.9,1.2c1.3,0.3,0.6-0.3,1.4-0.2c0.4,0.3,0.5,0.6,0.3,0.7
		c-0.5,0-1.1-0.1-1.6-0.1c0-0.2-0.2-0.4-0.9-0.5c0.6,0.8,0.1,1.2,0.2,1.8c-4.5-0.9,0.5,2.7-2,2.6c0.8-0.1,1.5,0.2,2.3,0.4
		c-0.9-0.9-2.2-2.3-0.2-1.8c-1.1-0.7-0.7-0.9-0.4-1.1c1,0.5,0,0.5,1.5,1c-2.2-0.5,1.3,1.4-1.3,0.6c1.6,1.1,0.3,1,1,1.8
		c0.6,0,0.4-0.3,1.3,0.2c-0.6,0,0.6,0.6,0.8,0.7c-1.2-0.5-0.1,0.3-1.4,0.1c0-0.2-0.2-0.4-0.9-0.5c0.5,0.6-0.6,0.5,0.8,1.5
		c0.4,0,0.9,0,1.3,0.2c-0.1,0.4-1.1,0-1.7,0.2c1.8,1,0.3,0.9,2.2,2c-0.7,0.1,0.7,1.2,0.6,1.4c-0.4-0.4,1,0.1,1.3,0.2
		c-0.1,0.3,1.4,1.4-0.2,0.6c0.3,0.6,0.7,0.4,1.6,0.9c-0.8-0.1,0.5,0.6,0.1,0.6c-1.3-0.4-0.6-0.4-1-0.8c-0.9-0.3-0.4,0.1-1.3-0.1
		c0.7,0.4,0.7,0.6-0.2,0.5c1,0.4,0.5,0.9,1.8,1c-0.1-0.2-1.7-1,0-0.8c0.5,0.8,1.1,0.7,2.2,1.4c-1.5-0.2,0.8,1.1-0.1,1.1
		c1,0.2,0.4-0.2,1.4-0.1c-1.1-0.7-0.7-0.9-0.4-1.1c0.3,0.2,0.9,0.4,0.7,0.2c-1-0.5,0.2-1,1.1-1c-0.4-0.4-0.9-0.4-1.3-0.9
		c0.8,0,1.2-0.6,0.1-1.1c-1.4-0.3,0.8,0.7,0,0.6c-0.8-0.4-1.8-0.1-2.5-0.6c0.1-0.3,0.6,0.1,1.3,0.1c-0.8-0.6,0.2-0.4,0-0.8
		c-0.4-0.5-1-0.2-1.4-0.7c1.2,0.4,1.8,0.1,1.7-0.2c1.2,0.4,1.4,0.5,2.2,0.6c-0.6-0.7,0.6-0.8-0.2-1.6c-0.7-0.2-0.3,0.5-1.1-0.1
		c0.8-0.2-0.7-0.8,0.3-0.9c-0.8-0.4-1.4-1.4-0.5-1.5c-0.7-0.6-1.6-0.5-2.2-1.2c1.4,0.5,0.7-0.3,2.1,0.1c-0.8-0.5,0.1-0.3-0.3-0.6
		c-0.4,0-0.9,0-1.2-0.4c0.5,0.1,0.3-0.2,0.8-0.1c-0.5-0.5-1.3-0.5-1.8-0.9c1.7,0.3,0.6-0.5,1.3-0.6c0.5,0.5,0.7,0.9,0.9,1.3
		c1-0.2-0.7-1.5,0.4-1.7c0.4,0.9,1.5,2.1,0.9,2.6c-0.3-0.3-0.7-0.6-1.1-0.5c0.8,0.6,0.9,0.5,1.2,1c0.6,0.2,1.2,0.2,1.7,0.4
		c-1.4-1.3-2-2.5,0-2.2c-0.7-0.1-1.1-0.8-0.1-0.5c-0.5-0.6-1.3-0.3-1.9-0.7c0.6,0-0.1-0.5,0.2-0.6c0.4,0.3,0.3,0.9,1.3,0.9
		c0.9,0.2-1.2-0.8-0.3-0.6c1.4,0.3,1.1,0.3,1.8,0.1c0.4,0.5,1.1,0.6,1.6,0.7c-1-0.7,1-0.1,1.4-0.1c-0.7-0.6-1.7-0.3-2.4-0.9
		c0.8-0.1,0.7-0.5,0.6-0.9c-0.6,0-0.4,0.3-1.3-0.2c0.1-0.3-0.7-0.5-1.2-1c1.4,0.5,0.4-0.4-0.5-1c0.9,0,1.2-0.2,2.3,0.3
		c-0.6-0.7-1.4-1-2.2-1.2c1.4,0.2,0.3-0.9,1.7-0.4c-0.2-0.2-1.4-0.9-0.8-0.8c2.5,1,0.7,1.8,2.8,2.7c-0.2-0.5-0.6-1.1-0.8-1.6
		c2.2,1.1,3.3,0.9,5.3,1.7c-1.3-1,0.6-1.1,0.9-1.8c-0.7,0.1-1.3-0.1-2.2,0c-1.2-1.3-1.9-2.3-0.4-2.6c-2.1-1.6,0.6-1.3-1.6-2.9
		c0.9,0.2,0.1-0.3,0.6-0.3l-1-0.9c1.6-0.3-0.8-2.4-0.5-3c0.3,0.2,0.5,0.5,0.9,0.5c0.1-0.1,1.3,0,0.2-0.5c0.5,0.4-0.8-0.1-0.9-0.4
		c0.5-0.1-0.5-1.9,0-1.6c-0.7-0.1-0.8,0.5-1.4,0.1c-0.4-0.6-0.2-0.8-0.3-1.3c1,0.2,1.9,0.8,2.9,1c-1.9-0.8-4.5-2.1-2.6-2.4
		c0.5,0.5,0.9,0.4,0.8,0.7c1.8,0.1,0.7-0.9,2-1.2c-1.6-1.1,0.9-1-1.2-2.5c0.9,0.1,0-0.5,1.2-0.3c0.3,0.2,0.5,0.5,0.9,0.5
		c-1.4-1.1,1.3-0.6,0.4-1.7c-1.5-0.2-0.3,1-1.6,0.6c-0.5-0.8,0.9-2.2-1-2.5c0.3-0.5,1.8-0.8,1.2-1.9c-0.9-0.8-1.6-1-1.4-1.4
		c-1.1-0.5-1.2-0.1-2-0.4c-0.2-0.2,0-0.2,0.1-0.3c0.6,0,1.1,0.3,1.8,0.3c-0.6-0.6-1.5-0.4-2.1-0.8c-0.8-0.8,2,0.4,1.2-0.4
		c-0.5,0-1-0.2-1.4-0.6c0.6-0.3,0.8,0.1,1.8,0.3c-1-0.6,0.7-0.1-0.3-0.7c-0.9-0.4-0.4,0.3-1.3-0.2c-0.9-0.7,1.4-0.1,2-0.2
		c-0.3,0.2,0.6,1.1,1.7,1.2c-0.1-0.7-0.6-1.6,0.4-1.9c0.2,0.1,0.4,0.3,0.7,0.4c-0.8-0.8-2-0.5-2.8-1.3c1.5,0.3-0.9-1,0.1-1
		c0.8,0.4,0.5,0.9,2.2,1.2c-0.5-0.5-1.1-0.8-1.7-1.2l1.9,0.1c-0.7-0.8,0.3-1-0.4-1.8c-1.3-0.2,0.6,0.4-0.1,0.3
		c-0.4-0.1-0.8-0.4-1.1-0.5c1,0,2.2-0.3,2-1c-0.4-0.5-1.1-0.4-1.6-0.9c-0.1-0.5-0.5-0.7,1-0.4c-0.5-0.6-1.2-0.6-1.8-0.9
		c0.1-0.2,0.5-0.4,0.8-0.6c-1.2-0.1-0.8-0.3-1.6-0.9c0.9,0.2,1.1-0.3,0.2-0.5c-0.6,0.9-0.1,2.1-0.1,3.2c-0.6-0.4-1.3-0.3-1.9-0.6
		c0.6-0.9-1.3-3.6,2.3-2.8c0.2-0.4-0.8-0.3-1.3-0.9c0.8,0,0.5-0.5,0.8-0.8c1,0.3,0.7-0.1,1.5,0.2c0.1,0.3,0.6,0.8-0.3,0.8
		c-0.3-0.2-0.5-0.5-0.9-0.5c0.6,0.5-0.4,0.3,0.2,0.8c1,0.1,1.9,0.8,2.9,0.9c0.2-0.4-0.8-0.3-1.3-0.9c2,0.3-1.3-1.9,1.6-0.7
		c-0.2-0.2-0.1-0.3,0.4-0.3c-0.2-0.4-1.6-0.7-1-0.9c0.3,0,0.6,0.3,0.9,0.4c-0.1-0.5,0.2-0.7-0.1-1.3c0.8,0.6,0.4-0.3,1,0.2
		c-0.6,0.1,0.1,0.8,0.3,1.3c-0.2-0.7,0.7-0.5,1.1-0.9c-0.5-0.2-1-0.1-1.4-0.6c0.3,0,0.1-0.2,0.6-0.1c0.6,0.3,1.3,0.4,1.9,0.7
		c-0.8,0.1,0.1,0.8-1.1,0.8c0.4,0.5,1,0.6,1.5,1c-0.9,0.4-2.9-0.1-1.5,1.2c0.8,0.4,0.6-0.4,1.5,0.4c-1.3-0.2-1.3-0.1-1.4,0.3
		c0.7,0.4,1-0.4,2,0.4c-1.2-0.2-0.8,0.3-2.6-0.3c1,1,1.2,0,2.4,0.9c-1.5-0.2-0.6,0.6-2.1-0.3c1.3,1,1.2,1.4-0.3,0.8
		c0.2,0.2,0.4,0.4-0.1,0.3c0.4,0.3,2,0.8,1.5,1c-0.7-0.1-1.3-0.4-1.9-0.6c-0.1,0.2-0.8,0.7,0.4,1.2c-0.5-0.5,0.3-0.4,0-0.8
		c1.1,1.2-0.8,1.4,2,2.5c-1.1,0,0.3,0.9-0.9,0.9c0.1-0.3-1.4-1.2,0.1-1l-0.8-0.7c-0.4,0-0.7,0-1.1-0.1c0.6,0.5,0.6,1,1,1.7
		c0.6,0.2,1.4,0.2,1.9,0.7c-1.5-0.1-0.4,1.1-0.3,1.4c-1.2-0.4-1.3,0.2-2.5-0.5c0.1,0.1,0,0.2-0.3,0.1c1.4,0.6,1.2,1,2.5,1.3
		c-0.1,0.3-1.5-0.1-2.3-0.4c0.7,0.7-1.4,1.2,0.8,1.5c0.3,0.3-0.6,0.6,0.7,1c0.3-0.1-0.3-0.5,0.4-0.5c1.4,0.9-0.1,0.6,0.4,1.1l0.5,0
		c0.2,0.1,0.5,0.2,0.7,0.2c-0.3-0.3-0.9-0.6-0.6-0.7c0.3,0,0.7,0,1,0.2c0,0.5,0.5,1.3-1.4,0.7c0.4,0.8,0.4,1.4-0.4,1.7
		c-0.7-0.4-1.5-0.8-2.4-0.9c2.2,1-0.3,0.1,0.4,1c1.3,0.5,1.4-0.2,2.5,0.5c-0.2,0.6,0.6,1.7-1.2,1.7c1.6,1.2,0.2,1.9,1.6,3
		c0.5,0.1,0.4-0.2,0.8,0c0.3,0.5,2,0.7,1.5,1c-0.7-0.1-1.2-0.6-1.9-0.7c-1.3,0-0.7,0.7-1.2,1.1c-0.6-0.5-1.1-1-1.8-1.1
		c-0.2,0.2,0.4,0.8-0.1,1c0.6,0,0.9,0.5,1.4,0.6c-0.8-0.6-1.1-1-0.7-1.2c0.5,0.6-0.1,0.5,1.3,0.9c-0.1,0.5,0.4,1.3,0.2,1.8
		c0.8,0,2.1,0.7,2,1.1c1.2,0.2-0.7-0.8,0.2-0.6c1.1,0.6,1.8,1.4,0.1,1.3c-1-0.7-0.8-0.6-1.6-0.7c-0.5-0.6,1.4,0.2,0.5-0.6
		c-0.6,0-0.4,0.3-1.4,0.1c0.2,0.9,1.1,2.4-0.6,2.4c0.4,0.5,1.1,0.5,1.5,1c-0.3,0-0.2,0.1-0.3,0.1c-0.3,0.1-1.5-0.6-1.1-0.1
		c1.1,0.8,1.5,2.5-0.5,2.1c0.3,0.6,1,0.2,1.4,0.6c-0.4,0,0.3,0.4,0.6,0.7c-1.1-0.2-0.6,0.2,0,0.6c-0.3,0-0.6-0.2-1-0.2
		c0.7,0.5,0,0.5,0.7,1c0.4,0,0.8,0.2,1.2,0.4c-0.3,0.1-0.4,0.2-0.6,0.3c-0.5-0.3-0.2-0.4-0.6-0.7c-0.4,0.2-0.4,0.5-1,0.4
		c1.6,0.4,0.1,0.7,1.7,1.4c-1,0.5-0.9,1.5,0.3,2.9c-1.1-0.1-0.5,0,0.1,0.5c-0.8,0.3-1.2,1.1,0.1,1.9c-1.6-0.2,0.3,1.4,1,1.8
		c-0.1-0.1,0.2-0.5,0.6-0.1c0.3,0.3,0.2,0.5-0.2,0.6c-0.3-0.2-0.6-0.4-0.9-0.4c0.3,0.5-0.3,0.6-0.6,0.9c1.9-0.2,3.6,0.5,2.4-0.7
		c1-0.1,0.5-0.7,1.4-0.9c-0.5-0.5-1.4-0.7-1.2-1c-0.7-0.2-0.3,0.5-1.1-0.1c0.4-0.7,0.6-1.7,2.3-1.3c-0.6-0.6-1.4-0.5-2-1.1
		c1.8,0.3,0.3-1,0.4-1.2c0,0.2-0.5,0.3-1.2,0.2c1,0.7,0.7,1.3-0.5,0.8c-0.8-0.8,0.3-0.9-0.4-1.8c0.3,0,0.5,0,0.8,0
		c0.8,0.4,0.1,0.6,0.8,0.7c-0.5-0.4,0.8,0,1.1-0.1c-1.6-1.3,1.7-0.2,1.2-1c-0.9-0.3-0.8,0.3-1.3-0.1c0.2-0.5,0-1.1,0.5-1.4
		c-0.4-0.5-0.9-0.5-1.3-0.9c0.6,0,1.1-0.2,1.4-0.2c-0.8-0.5-1.9-0.3-2.7-0.6c-0.6-0.4,0.1-0.4,0-0.6c1.2,0.6,1.1-0.1,0.9-0.3
		c1.3,0.6,0.9,0,1.5,0.2c0.1,0.1,0.3,0.2,0.5,0.2c-0.5-0.6-1.3-0.3-1.8-0.9c-0.4-0.7,2.5,0.1,1.8-0.5c-0.5,0-1-0.1-1.5-0.4
		c-0.9-1.1,2.1-0.3,2.5-0.3c-0.6-0.1-1.1-0.5-1.6-0.7c-0.7-0.1-1.1,0.5-1.9,0.1c-0.6-1.2,1.5-0.3,2.4-0.7c-0.3-0.3-0.8-0.4-1.1-0.7
		c0.5,0,1.1,0.1,1.6,0.1c0.4,0.3-0.7,0.5,0.5,0.8c0-0.4-0.4-0.9,0.3-0.9c0.3,1.2,0.1,2.1,0.2,3.2c2-0.1-1-3.1,1.7-2.3
		c0.8,0,0.5-0.3,0.5-0.6c-0.3,0-0.7,0-1-0.2c0.1-0.5-0.7-1.4-0.6-2c-0.3,0-0.7,0-1-0.2c0.7,0-0.4-0.7,0.5-0.6
		c0.3,0.3-0.1,0.4,0.5,0.8c1.2-0.1,1-0.5,3-0.2c-0.7-0.8,0.9,0.1-0.1-1.1c1.9,0.2,0.6-1.6,0.9-2.4c-0.3,0-0.7,0-1-0.2
		c0.2,0,0.1-0.1-0.1-0.3c1.1,0.5,2,0.5,1.2-0.3c-0.3-0.2-0.7-0.2-0.9-0.4c0.7,0,0.9,0.3,1.1,0.1c-0.3-0.3-0.8-0.4-1.1-0.5
		c0.5,0,0.8,0.2,1.3,0.2c0.4-0.5-0.9-1.8,0.6-1.6c-0.5-0.6-1.4-0.2-1.9-0.7c2.9,0.2,1.7-1.1,0.5-2.2c0.2,0.2-0.2,0.1-0.5-0.2
		c-0.1,0.4-1.9,0.2-3.1-0.5c0.6-0.2,1.3,0.2,1.2-0.3c0.6,0.3,1.2,0.6,1.9,0.6c-0.6-0.6-1.5-0.4-2.1-0.9c-0.1-0.3-0.9-0.6-0.2-0.8
		c3.1,0.6,2.4-1,4-1.2c-0.6,0-1.2,0-1.7-0.4c0.3-0.4-0.3-0.8,1.4-0.2c-1.3-1.1,1.5,0.4,0.7-0.4c-0.8,0-1.5-0.4-2.2-0.6
		c-0.2-0.2,0-0.3,0.1-0.3c0.6,0.2,1.1,0.5,1.7,0.4c-1.4-0.7-0.4-0.7,0.6-0.3c-1-2.1,2-2.6-1-4.7c1.2,0.2,0.5-0.4,1.7-0.2
		c-1.4-1-0.5-1,0.8-0.8c-0.2-0.7-1-1.3,0.6-0.9c-0.4-0.7-1.2-0.1-1.7-0.6c-0.6-0.6,0.7-0.3-0.7-1c1.1,0.2,1-0.1,0.7-0.5
		c-0.3,0-0.7,0-1-0.2c1.5-1.2,1-3.6,3.1-4.2c0.3,0.6-0.8,1.1,0.2,1.6c-0.2-0.2-0.1-0.4,0.3-0.1c0.2,0.4,0.5,0.9-0.6,0.3
		c-0.1,0.6,1.6,1,2.6,1.1c-1-1-2.2-2.5,0.1-1.8c-1.1-0.6,0.7-0.2-0.2-0.8c-0.9-0.3-0.5,0.4-1.1,0c-0.7-0.5,0-0.6,0.5-0.6
		c0.2,0.1,0.4,0.3,0.7,0.4c-0.7-0.6-1.5-0.8-2.4-0.8c0.2,0.4,0.8,0.6-0.2,0.6c-0.6-0.7-1.6-0.4-2.3-1.1c0.5,0,0.3-0.3,0.4-0.5
		c2.9,0.8,4.7,0.5,5.1-0.1c-0.9,0.1-1.1-0.6-0.8-0.7c1.5,0.4,0.5-0.8,0.5-1.3c-0.4,0-0.9,0-1.3-0.2c-0.5-0.7,2,0.2,1.7-0.3
		c-1.6-0.5,0-0.5,0-0.6c-0.6,0-1-0.7-1.5-1c0.5,0.1,0.4-0.2,0.9-0.1c-0.3,0.1-0.1,0.5,0.8,0.7c-0.5-0.6-0.4-1.1,1-0.4
		c-0.3-0.5-1-0.2-1.4-0.7c1.7,0.2,0.2-0.2,0.4-0.5c0.6,0,1.1,0.3,1.7,0.6c-1.2-0.4-0.1,0.7-0.3,1c0.6-0.1,0.9,0.4,1.5,0.4
		c0-0.3-0.3-0.6,0.5-0.6c0.9,0.3,0.8,0.6,1.2,1c0.1-0.8-0.6-1.2-2-2c1-0.1-0.8-1.2-1-1.7c-0.7-0.3-1.5-0.3-2.2-0.6
		c0.3-0.3-0.1-0.9,0.4-1.1c0.7,0.1,1.8,0.6,1.3,0c-0.8-0.3-0.7,0.2-1.7-0.5c1.3,0.3,0.5,0,0.6-0.3c0.6,0.2,1.1,0.3,1.7,0.6
		c-0.2,0-0.1,0.6,0.6,0.7c0-0.2-0.7-0.8,0.2-0.6c0.8,0.4,0.1,0.6,0.8,0.7c-0.3-0.3,0.4-0.1,0.8,0c-0.5-0.5-1.1-0.9-1.8-1
		c0.3-0.1-0.3-0.6,0.2-0.6c-0.6-0.5-2.5-1.3-1.7-1.4c0.8-0.1,1.3,0.8,2.2,0.6c-0.6-0.6-1.5-0.2-2.1-0.9c0-0.7-0.2-1.5,1.3-1.6
		c-1.5-0.5,0.1-0.6,0-0.8c-0.3-0.4-1.9-1-1.5-1.2c1,0.1,2.6,0.3,3.1,0.3c-0.5-0.2-0.8-0.6-1.3-1c-1.1-0.5-0.2,0.5-1.3,0
		c0.1-0.4,0.1-1.3,1.4-0.9c0.4,0.4-0.6,0.4,0.5,0.8c1.3-0.3-0.3-2.1,1.2-2.1c-0.5-1.2-2.1-2.3-0.1-2.1c-0.6-0.4-1.5-0.7-0.8-0.8
		c0.4,0.2,0.8,0.3,1.1,0.7l1.6,0c-2.3-1,1.1-0.8-0.6-1.5c0.5,0.5-0.5,0.3-1.1,0c0.6-0.1-0.9-0.9,0.3-0.8c1.2,0.6,0.6-0.1,1.4-0.1
		c-0.4-0.5-1-0.2-1.4-0.7c0.2,0,0.5,0,0.3-0.2c-1.1-0.4-0.9,0.7-2.6-0.2c1.4,0-1-1.7,1.7-0.9c-0.3-0.3-0.8-0.4-1.1-0.7
		c1.1,0.1,0.3-0.7,1.4-0.3c0.6,0.4-0.9,0.1,0,0.7c1.3-0.3,0.8-0.9,2.6-0.6c-0.6-0.5-1.5-0.4-2.1-0.9c1.2,0.9-0.8,0.7-1.6,0.1
		c0.9-0.1,0.6-0.6,1.3-0.8c0.5,0.2,0.9,0.5,1.3,0.8c1.4,0.2,0.8-0.4,1.5-0.5c-0.4-0.5-1.1-0.5-1.6-0.9c2.1,0.1,0.7-1.7,2.6-1.6
		c-0.7-0.3-1.5-0.4-2.2-0.7c-0.2-0.7,1.6,0.4,1.2-0.3c-0.3,0-0.7-0.1-1-0.3c0.4,0,0.9-0.2,1.6,0c-0.1,0.2-0.1,0.5,0,0.8
		c0.5,0,1,0.3,1.4,0.7c0.6-0.4,0.3-1.1,0.5-1.7c1-0.2,1.6,0.4,2.4,0.7c-0.6-0.8-0.7-0.4-1.8-1.2c-2.1,0-1.2,0.7-1.9,1.1
		c-0.4-0.6-0.8-0.6-1.2-1.2c-1.3-0.4-1.3-0.1-2.7-0.7c0.5,0.4-0.5,0.7-0.7,0.5c-1.1-0.7,0.6-0.9,1.7-0.3c-1-0.6,0.1-0.9,0.7-0.7
		c0.9,0.5-0.6,0.2,0.1,0.7c0.3,0,0.6,0.3,0.9,0.5c2-0.7-1.1-4.6,3.5-2.8c-0.8-0.4-1,0.2-0.1,0.3c0.1-0.1,0.1-0.7,0.6-0.3
		c0,0.5-0.9,0.6-2.1,0.6c1.6,1-0.5,0.6,0.4,1.3c1,0.2,0-0.4,0.4-0.5c0.5,0.2,1.1,0.3,1.6,0.7c0.7-0.2,1.7,0.3,0.9-0.5
		c-1-0.4-1.3,0.3-2.5-0.5c1.6,0.1,2.4-0.1,3.3,0.4c0.7,0.4-0.5,0.5,0.8,0.8c-0.2-0.2-0.1-0.3,0.4-0.3c-1.6-0.8-0.1-1.2-2.6-1.9
		c1.5,0.2,3.3-0.5,2-1.5c0.3,0.2,0.6,0.3,1,0.3c-0.2-0.2-0.4-0.4,0.1-0.3c-0.6-0.4-1.2-0.6-1.9-0.7c0.3,0.6-0.2,0.9-0.4,1.3
		c-0.5-0.3-1.2-0.1-1.6-0.7c1.6,0.3,0.4-1.2,2.2-1.1c0.5,0.4,0.2,0.5,1.1,0.7c0.6-0.3-0.3-1.9,1.7-1.2c-1-0.5-2.2-1.1-0.5-1
		c-0.3-0.3-0.8-0.4-1.1-0.7c-1.1-0.2,0.5,0.5-0.6,0.3c-1.1-1-0.5,0.1-1.2-0.3c-0.6-0.5,0.2-0.4,0.2-0.7c1.3,0.8,1.4,0.1,2.7,0.8
		c-0.9-0.5-1.8-1.6-0.2-1.2c-0.5-0.3-0.2-0.4-0.6-0.7c-1.8-0.8-1.3,0.6-2.8-0.3c0.7,1.5-1,1.7-1.6,2.6c-1.5-0.9,1.1-0.5-0.6-1.3
		c0.5-0.2,0.9-0.1,1.8,0.2c-0.6-0.9,0.1-0.3-1.3-0.8c0.6-0.1,0.1-0.6,1.3,0c0-0.6-2-0.6-2.9-1c0.9-0.1-0.5-1,0.4-1.2
		c0.4,0.2,0.9,0.4,1.4,0.7c-1-0.2-0.5,0.3-0.9,0.3c0.4,0.4,2,0.9,1.7,0.5c-0.3,0.1-1.6-0.3-1-0.3c0.5,0,1.1,0,1.5,0.2
		c0-0.3-0.6-1.3,0.3-1c0.8,0.6-0.5,0.4,0.2,1c1.3,0.2,0.2-0.6,1.4-0.2c-2-0.9-1.3-2.3,0.7-1.5c-0.5-0.6-1.8-0.9-1-1
		c0.4,0,0.8,0.3,1.2,0.3c-0.7-0.5,0.3-0.2,0.8-0.2c-0.2-0.4-0.6-0.8-0.7-1.2c-1.2,0.3-2.7,0.4-4.5,0c0.1-0.4,0.9,0,1.5,0.2
		c-1.1-0.7,0.3-0.6-0.4-1.2c-0.6,0-1.1-0.4-1.6-0.8c1.6,0.2,0.1-0.7,0.3-0.8c0.4,0,0.9-0.1,1.3,0.2c0.2,0.2-0.9,0.4,0.3,0.7
		c-0.1-0.2,1-0.4,1.1-0.2c-0.6,0-0.5,0.6,0.5,0.8c1.7,0.1,0.4-0.8,2-0.5c-0.3-0.3-0.8-0.3-1.2-0.5c0.3-0.3-0.1-1.2,1.3-0.8
		c-1.2-1.1,0.8-0.6,1.2-1.2c0,0-1.1-0.8,0.4-0.3c-0.4-0.5-0.9-0.4-1.3-0.8c1.6,0.4,0.5-0.8,1.3-1c-0.5,0-1-0.3-1.4-0.7
		c-0.5-0.7,1,0.2,0.8-0.2c-0.4-0.1-0.8-0.2-1.2-0.5c1.3,0.2-0.6-0.6,0.1-0.5c0.5-0.1,0.9,0.5,1.4,0.5c-0.3-0.7,1.5-0.7,0.9-1.5
		c-0.4,0-0.8-0.1-1.2-0.3c1.2-0.1,1.4-0.3,0-0.8c0.9-0.3,2.1-0.8,0.5-1.7c1.1,0.1,0.2-0.5,0.7-0.7c0.8,0.2,0.7-0.1,1.8,0.1
		c-0.9-0.5-1.1-0.6-0.8-0.8c-1-0.3-0.8,0.2-1.1,0.4c-0.9-0.6-1.9-0.6-2.9-0.8c-0.2-0.4-0.2-0.8,1.2-0.5c-0.2-0.6-1.2-1.5,0.9-1.4
		c-0.2-0.4-1.7-0.5-1.1-0.6c0.3,0,0.5,0.1,0.7,0.2c-1.4-1.2,1-1.9,0.3-3.2c1,0.7,0.6,0.6,1.8,1.3c-1.1-0.2,0.5,0.5-0.6,0.3
		c-0.3-0.2,0-0.3-0.4-0.3c-0.9,0.6,0.4,1.4-0.3,2c0.5-0.1,0.7-0.4,1.5,0.3c0.8-0.1,0.7-0.4-0.3-0.8c0.5-0.1,2.1-0.5,1.6-1.2
		c-0.4,0-0.9,0-1.2-0.3c-0.5-0.4,0.6-0.3,0.7-0.5l0.7,0.5c0.1-0.8,0.7-1.5,1.4-2.2c-0.4-0.5-0.9-0.4-1.4-0.8l1.1,0
		c-0.4-0.3-0.8-0.3-1.2-0.5c0.5,0-0.3-0.5,0.6-0.4c0.3,0.2,0.6,0.5,0.9,0.5c-0.3-0.4,0.5-0.4,0-0.8c-0.4,0-0.9,0-1.2-0.3
		c0.7,0.1,0.2-0.3,1.1-0.2c0.4,0.3,0.8,0.4,1.2,0.5c-1.9-1.1,0.5-0.9,0.1-1.5c-0.5-0.2-1.1,0-1.5-0.3c-1.1-1.5,2.3-2.1-0.2-4.3
		c0.4,0,0.8,0.4,1.2,0.3c0.1-0.5-0.6-0.1-1.2-0.6c0.1-0.5,0.6,0.3,1.3,0.1c-0.4-0.4-1-0.3-1.4-0.8c0.8-0.1,0-0.8,1-0.9
		c0.4,0.3,0.8,0.4,1.2,0.5c-0.2-0.2,0.2-0.2,0.6-0.2c-1.3-1.1,0.7-0.9,0.1-1.6c-1.5-0.4-0.6,0.4-1.2,0.6c-0.2-0.2-0.5-0.2-0.7-0.3
		c0.3-0.6,0.3-1.3,0.4-1.9c0.6,0.6,0.9,1.1,0.5,1.4c0.4-0.1,0.8,0.2,1.2,0.3c-1.3-1.1,0.3-0.3,0.2-0.9c-0.6-0.3-1.5-1-1.3-1.3
		c1.1,0.5,1.1,0.6,1.9,0.9c-0.7-0.5,0.2-0.5-1-1.1c0.9,0.2,1.5-0.2,0.1-0.7c1.6-0.2,1.1-1.1,1.2-1.8c0.5-0.3,2.1,0.3,1.8-0.1
		c-1.5-0.2-0.3-0.5-1.8-1.1c2.5,0.1,0.9-1.4,3.3-1.1c-0.8-0.5,0.4-0.4,0.4-0.7c-3-0.5-0.3-1.9,0.7-2.1c-1.6-0.6-1.1,0.4-1.8,0.1
		c-0.5-0.4-1.1-0.9-1.1-1.1c1.3,0.6,0.5,0,0.6-0.2c1.1,0.4,1.2,0.3,2,0.4c-0.6-0.5-1.3-0.2-2-0.6c-0.8-0.6-0.5-1-2.3-1.4
		c1.1,0.1,2.2,0.4,3.3,0.5c-1.2-0.6-0.9-1.1-1.7-1.6c1.1,0.2,2,1.2,3.1,1.5c0.6-0.5-3-1.6-0.6-1.8c0.2,1,1.9,1.3,2.3,2.4
		c0-0.4,0.7-1-0.2-1.4c0.1,0.1,0,0.2-0.3,0.2c-1.4-0.8-1.6-1.2-1.5-1.6c-0.8-0.1-0.9,0.1-2-0.5c0.2-0.1-0.3-0.5,0.4-0.5
		c0.7,0.3,0,0.5,0.9,0.4c-0.2-0.5-0.9-1,0.9-0.8c-1.6-0.8-0.8-1.6,0.5-1.1c-0.3-0.2-0.6-0.4-0.9-0.6c1.3,0.2,0.7-0.2,1.1-0.4
		c-0.9-0.5-1.5-0.5-1.9-1c1-0.1,2.1-0.3,1.4-1c-0.8,0-0.4,0.8-1.6,0.3c0.3-0.3-0.7-0.7-0.7-0.8c1.1-0.3,0.9-0.6,2.6-0.4
		c-1.4-1.3,2.9-1.1,0.4-2.7c0.7,0.1,0.9,0.1,1-0.1c-0.5-0.6-2.3-0.6-1.9-1c0.6-0.1,1.1,0.6,1.7,0.3c0.3-0.6-0.4-1.2,1.2-1.2
		c-0.4-0.6-1,0-1.5-0.4c0-0.5-0.3-1.3,1.4-1.1c-0.1-0.4-0.7-1,0.4-1.1c-0.5-0.4-1.1-0.4-1.7-0.9c1.6,0.1-0.5-0.8,0.6-0.8
		c0.7,0.2,1.3,0.2,2,0.3c-1-0.6-2.2-0.1-3.2-0.8c0.6,0,0.2-0.3,0.3-0.4c0.6,0.2,1.1,0.4,1.7,0.3c-0.6-0.5-1.5-0.3-1.4-0.7
		c0.9-0.1,1.7,0.3,2.5,0.6c-1.3-0.7,1,0.1,0.3-0.4c-0.5,0-0.2-0.2-0.7-0.4c-0.5,0-0.3,0.3-0.8,0.1c-1-0.6-0.1-0.6,0.1-0.9
		c0.9,0.4-0.6,0.3,0.7,0.8c1.7-0.1,0.1-0.9,2.3-0.4c-1.2-0.3-1.2-0.5-1.9-0.8c-0.2,0.1-1,0.1-1.8-0.1c0-0.3-0.9-1.3,0.8-0.9
		c-0.8,0.1-0.1,0.7,0.9,0.9c0.9-0.3,0.6-0.9,2.1-1.1c-1.2-0.7,0.9-0.8-1.1-1.2c1-0.2,0.7-0.6,1.6-0.7c-1.7-0.4,0.5-0.6-0.7-1.1
		c-1,0,0.2,0.6-0.8,0.6c-1.6-1.1-0.6,0.4-2-0.1c-0.4-0.4,0-0.6-0.4-0.8c1.7,0,2.1-0.6,3.6-0.8c-0.7-0.3-1.5-0.1-2.2-0.4
		c-0.8,0-0.2,0.7-1.3,0.3c0.5-0.4,1.2-0.7-0.1-1.5c0.7-0.3,2.1-0.3,0.6-1.1c0.3-0.5,3.6,0.1,2.4-0.8c-0.4,0.3-1.3,0-2.3-0.1
		c1.4-0.4,0.3-2,2.2-1.8c1.3,0.6-1.1-0.1,0.2,0.5l1.3-0.2c-1.5-0.5-1.2-0.9-1.2-1.2c1.9,0.3,1-0.4,2.1-0.6c-0.5-0.5-1.2-0.6-1.2-0.9
		c1.6-0.1,1.9,1.4,3,0.8c-1.7-0.4-3.2-1.9-2.4-2.2c0.4,0.2,0.8,0.3,1.2,0.4c-0.5-0.4-1-0.3-1.5-0.7c0.4-0.5,1.9-0.1,0.6-0.9
		c0.6,0,1.2,0.3,1.7,0.3c-0.5-0.4-1-0.3-1.5-0.7c1.1-0.2,1.6-0.5,0.6-1.1c0.7-0.2,1.3,0.5,2,0.3c-0.2-0.3,0.4-0.4,0.3-0.7
		c-0.5,0.1-1,0.1-1.5-0.2c0.9-1.3,1.5-2.3,1.6-3.8c0.3,0.2,0.6,0.3,1,0.2c-1-0.4,0.2-0.4-0.2-0.6c-0.4,0-0.8-0.1-1.2-0.4
		c0.6-0.3-0.1-0.8,1.1-0.9c-0.4-0.3-0.8-0.3-1.2-0.5c1.9-0.1,0.1-1,1.1-1.2c0.2,0.1,0.5,0.1,0.7,0.2c-0.4,0.2,0,0.5,0.2,0.8
		c0.4-0.3,0.9-0.6,2.3-0.4c-0.6-0.6-1.4,0.1-2-0.3c0.7-0.9,4.9-1.9,3.8-3.3c1.2,0.1,0.7-0.1,0.8-0.4c-1.8-0.4-1.4,0.8-3,0.1
		c0.1-0.7,0.8-1.4,2.2-2c-0.7-0.5-1.3-0.4-0.3,0c-0.7-0.2-1.5,0.5-2.8,0.1c0.3-0.5,1.8-1,2.6-0.9c-0.3,0-0.7-0.2-1-0.4
		c2.1-0.6,2.1-1.7,6.2-1.9c-0.7-0.4-1.5-0.5-2.2-0.6c0.3,0.2,1,0.3,0.7,0.4c-0.1,0.2-0.4,0.2-1-0.1c0.1-0.2-0.4-0.6,0.1-0.8
		c0.4,0.2,0.8,0.1,1.2,0.2c0.3-0.1-1.4-0.7-0.9-0.8c0.3,0,0.7-0.1,1,0.1c-0.2,0.4-0.3,0.3,1,0.7c-0.5,0.1-0.4,0.4-0.3,0.6
		c1,0,0.3,0.6,1.2,0.5c0.2-0.3,0-0.2-0.9-0.7c-0.2-0.8,1.9-0.6,2.1-1.1c-1.4-0.1-2.9,0-4.3-0.6c-0.7-0.6,1.9-0.4,1.9-0.9
		c-1.4-0.6-0.4-0.7-0.4-1c1.1,0.3,2.7-0.2,1.6-0.6c0,0.2-0.6,0.5-1.5,0c0.9,0,0.7-0.3,1.1-0.4c0.4,0.2,0.8,0.1,1.2,0.4
		c0.9-0.5,0.5-0.3,1.8-0.7c-2.2-1.2,2-0.5-0.6-1.8c0.9,0,0.5-0.3,1.5-0.3c-1.8-0.4-2.9-0.5-4.5-0.6c0.5-0.9,0.4-2,4-1.6
		c-0.2-0.8,0.3-1.9,3.3-1.6c2.5,1.5-3.6,1.1-1.8,2.3c-0.3-0.3-1.9-0.4-1.5-0.1c0.4,0,0.8,0.1,1.2,0.4c-0.7,0.3-4-0.3-3.6,0.5
		c1.8,0.1,5.3,0.3,5.6-0.4c-0.6-0.3-1.4,0.2-2-0.3c1.4-0.2,1.9-0.5,4.3-0.2c-0.6-0.6-0.5-1-0.8-1.5c2.1,0.1,1.4-0.5,3.8,0
		c-0.6-0.5-1.3-0.1-2-0.6c0-0.5,0.2-0.2-1.2-0.7l2.3-0.1c-0.6-0.4-0.5-0.6,0.1-0.7c1,0.4,0.2,0.3,0.4,0.6c0.7-0.1,1.4,0,2,0.2
		c-0.2-0.3,0.8-0.3-0.4-0.8c-0.7,0-1.4-0.1-2-0.5c1.4,0.1,2.9,0.1,4.3,0.2c-2-0.9,2.5,0,0.6-0.9c-1.1-0.3-0.7,0.2-1.8-0.2
		c0.6,0.4-0.6,0.2-0.6,0.4c-0.4-0.2-0.8-0.3-1.2-0.5l1.5,0c-1.7-0.6,0.1-0.5-0.6-1c-1.6,0.1-0.8,1.2-4.4,0.4
		c-0.6-0.8,4.6-0.6,0.7-1.9c0-0.2,0.6-0.2,1.3-0.2c0.3,0.2,0.6,0.4,1,0.4c-0.5-1.2,2.1-1.6,1.4-2.8c0.4,0.2,0.8,0.2,1.2,0.3
		c-1.1-0.5,0.5-0.3-0.1-0.7c-1.1-0.1-0.7,0.3-1.8-0.2c0.1-0.4,0-0.8,0.7-1.1c-0.4-0.4-1-0.4-1.4-0.7c0.4,0,0.8,0.2,1.3,0.2
		c-0.5-0.3-1.1-0.4-1.6-0.8c0.9,0,0.5-0.1,1.5,0c-0.9-0.4-1.9-0.6-2.9-1c0.5-0.1,1.4-0.1,0.6-0.7l-0.5,0c-0.2-0.1-0.3-0.2-0.5-0.1
		c1,0.4,0.4,0.7-0.3,0.4c0.2-0.5,0.3-0.8,1.7-0.8c-1.4-0.5-0.2-0.5-1.4-0.9c0.6,0.2,1.2,0.2,0.8-0.1c-1,0-2-0.3-2.9-0.9
		c-0.4,0.2-0.7,0.4-1.1,0.5c-0.6-0.4-1.3-0.2-1.9-0.7c2.1,0.3,2.3-0.1,2.7-0.5c1,0.3,2.8,0.7,2,0c-0.6,0-0.4,0.2-1.3,0.1
		c-0.8-0.3-1.3-0.8-1.4-0.9c0.4,0,1.9,0.6,1.5,0.2c-0.2,0-1.5-0.4-0.9-0.4c0.8,0,1.4,0.5,2.2,0.3c-0.4-0.3-2-0.8-1.6-0.9
		c0.6,0.3,2.6,0.7,2.5,0.3c-0.9-0.4-1-0.1-1.5-0.3c0.8,0-1.5-0.7-0.7-0.6c1.9,0.8,3.1,0.2,2.6-0.3c0.7,0.1,1.3,0.4,1.9,0.6
		c-0.5-0.4-0.2-0.5,0.8-0.1c-0.6-0.4,0.3-0.3-0.4-0.7c-1.3-0.2-2.8-0.1-3.2,0.2c-0.2-0.1-0.5-0.2-0.7-0.3c2.1-0.5,1.5-1.4,4.5-1.6
		c-0.8-0.4-0.2-0.4-0.9-0.7c-1.8-0.2-2.2,0.4-4.9-0.2l-0.5-0.3c2-0.1,5.4,0.2,3.4-1.2c1.1-0.3,3-0.6,1.4-1.6
		c0.6,0.2,0.9,0.2,0.8-0.1c-0.6,0-1.2-0.1-1.7-0.5c0.2-0.1,0-0.4-0.8-0.9c0.6,0,0.4-0.2,1.2,0.2c-0.3,0-0.8-0.1-0.5,0.1
		c1.5,0.5,1.2-0.2,2.6,0.1c-2.9-1.3-2.3-2-3.2-3c-1.2-0.3-1.8-1.1-2.5-1.6c-3.2-1.2-6.1-1.1-8.1-0.6c1.1,0.5,0.9,0.1,1.7,0.4
		c0.6,0.7-1.6,0.1-1.2,0.8c-4.2-1.4-3,1.3-5.2,1.1c1.3,1.4-1,1.9-2.1,2c-0.1-0.3,1.4-0.4-0.3-0.9c-0.9,0.3-0.4,1-2.1,0.9
		c0.2,0.6-0.2,1.6-1.8,1.1c-0.1,0.4,0.6,0.1,1.2,0.6c-0.4,0.3-2.6,0-1.7,0.7c0.8,0.1-0.2-0.7,0.8-0.3c0.1,0.4,0.5,1.3-1.4,0.4
		c0.6,1.2-0.4,1.8-1.3,2.5c-2.1-0.5-4.2-0.2-4.7,0.4c-1-0.4-1.9-0.7-2.9-1.2c0.1-0.1,0.4-0.2,1.1-0.2c0.6,0.4,1.3,0.6,1.9,0.6
		c-0.1-0.6-0.2-1.1,0.8-1.4c-0.4-0.3-0.8-0.3-1.2-0.6c1.4,0.3,0.4-0.2,1.1-0.3c0.2,0.1,0.5,0.3,0.7,0.3c-0.4-0.3-0.6-0.5-0.7-0.6
		c-0.8,0-2,0.5-3.3-0.1c0.6-0.6,2.6-0.3,2-1.1c-0.5-0.4-1.2-0.1-1.7-0.6c-0.2-0.5,1.1-0.5,0.2-1.2c-0.6,0-1.2,0-1.7-0.3
		c-0.6-0.6,1-0.4-0.5-1.2c0.3,0,0.6,0.2,1,0.2c-1.1-0.8-1.1-1.3-0.4-1.5c-1.6-0.9-0.6-1.1-1.6-1.8c-3.4,0.8-2.9,3-6.8,3.8
		c0.7,0.9-0.6,1.1-2.1,1.3c1.1,0.9,0.1,1.6-2.3,1.2c0.8-0.3,2.9-0.2,2.2-0.9c-1.4,0.4-3.8,0.5-3.2,1.5c-1.1-0.5-1.8-0.1-1.9,0.2
		c0.9,0.1,1.9-0.3,2.8,0c-0.7,0.5-3.2-0.1-4.2,0.3c0.4,0.3,0.8,0.3,1.2,0.6c-0.4,0.2-1.7,0.6-0.2,0.8c-0.3,0-0.1,0.1-0.3,0.2
		c-0.8-0.2-1.7-0.1-2.5-0.4c-0.2-0.2-0.1-0.2,0.1-0.3c0.5-0.1,1,0.2,1.5,0.1c-1.3-0.6,1.1-0.1,0.4-0.5c-1.6-0.2-0.7,0.2-1.9,0.2
		c-0.9-0.2-1.5-0.8-1.1-0.9c-0.9,0-1.7,0.1-2.5-0.4c1.7,0,5.7,0.2,3.5-0.8c0.3-0.2,0.8-0.3,0.9-0.5c0.4,0.2,0.8,0.3,1.2,0.4
		c-0.4-0.4-0.7-0.7-0.4-0.8c4-1.2,5.2-3.5,6.5-5.1c-2.2,0-2.3,0.2-3.7,0.2c0.2-0.5,0.5-0.9,1-1.3c-0.2-0.3-1.6-0.9-1.1-0.9
		c1.8,0.4-0.3-1,1.5-0.8c-0.9-0.6,0.1-0.4-0.3-0.9c-0.8,0-0.3,0.4-1.1,0.3c-0.6-0.4-1.4-0.7-1.3-0.9c-1.4,0-2.6,0.1-3.8,0.3
		c-1.1,0.2-2.1,0.4-3.3,0.7c-1.3,0.3-4.7,0.9-4.8,1.8c-3.2,0.1-4.5,1.5-5.5,2.6c-2.5,0.3-3.3,1.3-4.4,2.3c0.3,0,0.7,0.1,1,0.3
		c-1,0.1-0.8,1.1-2.4,0.5l1.4,0.9c-1.7,1-4,1.8-8,1.8c0.2,0.7-0.3,1-2.2,0.7c2.1,2,1.6,3.8-0.5,4.5c-0.4-0.3,0.7-0.2,0.1-0.5
		c-1.3-0.1-1.2,0.1-2.6-0.1c-0.1,0.2,0.3,0.6-0.9,0.6c0.9,0.5,1.2,0.9,0.9,1.1c-0.8-0.3-1.7-0.3-2.5-0.3c2,2.3,1.3,4-1.9,5.2
		c1.7,0.9-1.3,0.6-1.1,1.2c-2.8-0.8-1.8,1.3-4.8,0c3.1,3-3.9,4.3-3.2,6.2c-1.7,0.1-3.1,1-3,1.9c-2.8,0.7-3.1,2-3.3,3.3
		c-2.1,0.6-2.2,1.2-4,1.8c0.3,0.3,1.7,0.5,1.2,0.7c-2.2-0.5-2.5,0.6-2.9,1c0.4,0,0.9-0.2,1.3,0c-2.4,0.4-3.6,1.7-2.5,2.9
		c0.4-0.2,3.2-0.8,0.6-1.4c0.5-0.4,2.1-0.5,2.8-0.8c0.5,0.3,0.2,0.3,0.7,0.6c1-0.1,0-1,1.6-0.7c-0.6,0.4-0.3,1.4-2.6,1.1
		c2.5,1.9-3,2.2-1.3,4.1c-1.2,0-0.4,0.7-1.8,0.2c1.1,0.4,0.2,0.4,0.5,0.6c0.3,0,0.7-0.1,1,0.1c-1.6,0.2-0.5,1.1-1.9,1.4
		c-0.2-0.2,0.1-0.7-1-0.5c1.4,0.9-0.4,0.5-0.1,0.8c0.9-0.2,0.4,0.3,1.5,0.7c-1,0.4-0.8,0.9-2.1,1.1c-0.3-0.5-2.1-0.6-1-0.4L324,53
		c-1.1,0.7-1.8,1.5-3.2,2.2c0.8,0,0.3-0.6,1.5-0.1c0,0.5-0.9,0.8-1.6,0.9c0.3,0,0.7,0,1,0.2c-1.2,0-0.3,0.4-0.8,0.5
		c-0.2-0.1-0.5-0.3-0.7-0.2c1,0.7-1,0.3-0.8,0.5c0.4,0,0.8,0.1,1.2,0.4c-0.2,1,0,2-1.7,2.4c0.5,0.4,1.6,0.9-0.3,0.7
		c0.4,0.3,0.8,0.3,1.2,0.5c-1.2,0-1.7,0.7-0.6,1.5l-1,0.1c0.9,1.8,0.4,2.9-0.3,4.1c-0.7,1.2-1.5,2.3-1.2,3.8
		c-1.1,0.3-0.9,0.9-0.9,1.5l-1,0c0.8,0.7,0.2,1.2-0.6,1.2c1.5,0.5-0.2,0.3-0.6,0.4c0.9,1.9-2.1,2.8-1.9,4.5c-0.3,0-0.5,0-0.8,0
		c-1.4,2.7-3,5.3-4.6,7.9c-1.6,2.6-3.2,5.1-5.1,7.8c-3.7,5.3-7,10.6-9.2,16.5c-0.7-0.3-1.1,0-0.9,0.3c0.5,0.1,0.3-0.2,0.8,0
		c0.7,0.8-0.9,0-1.1,0.3l0.9,0.6c-1.5,1.3-1.8,2.5-3.2,3.8c0.3,0,1,0.3,0.7,0.3l-1,0c-0.6,3.2-3.6,5.6-4.2,8.8
		c-1.2,1.1-2.2,2.3-1.7,4c-1.4,0.1,0.1,1.2-1.5,1.2c1.1,1.4-1.5,1.4-0.4,2.8c-2.5,1.2-1.2,3.9-3.6,5.2l0.8,0.7
		c-1.9,1-0.6,3.6-2.7,4.2c1.4,1.1-1.2,0.9,0.4,1.9l-1-0.1c1,0.9,0,1.1-0.3,1.7c-0.4,1.1,0.2,3.5-1.4,3.3c-0.4,2.9-2.4,5.2-2.4,8.3
		c-0.3,0-0.5-0.2-0.7-0.2c0.1,1.8,0.4,3.7-1.4,4.8l1.2,1c-1.3,0.2-0.9,1-0.6,1.7c-0.3,0-0.6-0.3-0.9-0.4c-0.3,0.3,1.3,1.3,0.6,1.4
		c-1.5,1.1-1.4,2.8-1.1,4.7c0.1-0.3-0.5-0.3-1.1-0.5c0.8,2.4-0.4,4-1.1,5.8c0.4,0.4,0.9,0.4,1.3,0.9c-1.6-0.3-0.6,0.6-2,0.4
		c1.6,1.2,0,1.1,1.1,2.1c-1.6,0.2-0.7,2.1-1.4,2.9c2.2,1-0.9,1.3,0.4,2.6c-0.6,0.1-0.9-0.4-1.5-0.4c0.2,0.3,1.4,1.1-0.3,0.9
		c1.1,1.4,0.5,2.1,0,2.9c0.6,0.6,1.5,0.2,2.1,0.9c-1.6,0.3-2.5,0.7-2.8,1.8c1,0.4,0.5-0.2,1.4-0.1c0.4,0.5,1.1,0.4,1.6,0.9
		c-1.1,0-2,0.4-1.2,1.1c0.2-0.1,0.1-0.7,0.9-0.3c-0.1,0.5-0.1,1.1-1.3,1.2c0.4,0.4,0.9,0.4,1.3,0.9c-0.7,0.2,0,0.8-1.8,0.4
		c1.4,1.3-0.3,1.4-0.5,2.1c-0.6,0-0.9-1-1.6-0.7c0.3,0.7,2.2,0.9,1.7,1.2c-0.7-0.3-2.4-0.7-1.4,0.1c0.4,0.1,0.9,0,1.3,0.2
		c0.3,1.4-0.2,2.4-0.9,3.3c1,0.3-0.4-0.9,0.6-0.3c0.2,0.8,0.6,2.5-1,2c0.5,0.3,0,0.3,0.1,0.5c0.4,0,0.9,0,1.2,0.4
		c-1.3-0.3,0.1,0.5-1.2,0.3c-0.2-0.2-0.1-0.4-0.3-0.7c-1.5,0,1.8,1.3,0.3,1.3c-0.6-0.3,0.1-0.5-0.8-0.7c0.1,1-0.8,1.7-0.6,3
		c1.4,0-0.6-1.8,1.5-1.2c-0.9-0.7-0.8-1-0.1-1.1c1,0.7-0.1,0.5,0.4,1c0.9,0.3,0.5-0.4,1.1,0.1c0.2,0.8,0,1.6-1.2,1.9
		c0.4,0.1,0.8,0.2,1.2,0.4c-0.5,0,0,0.4-0.4,0.5c-0.4-0.1-0.8-0.3-1.2-0.4c0.6,0.6,0.6,0.9,0.4,1.1c-0.2-0.2-1.5-0.6-1-0.2
		c2.1,0.6,0,0.7,0.9,1.3c0.5,0.3,1.2,0,1.7,0.4c-1.5-0.2-0.6,0.6-1.1,0.7c-1-0.8-1.4,0-1.2,0.3c0.5-0.1,1.3-0.1,2.2,0.6
		c-0.3,0.1-1.6-0.3-1.1,0.1c2.5,0.6,1.4,2,1.2,2.5c-0.3-0.2-0.6-0.4-0.9-0.4c1.1,0.8-0.1,0.2-0.2,0.5l1,0.9c0.8-0.1,1.3,0.4,1.9,0.6
		c-0.4-0.8-0.7-1,0.4-1.1c-1.6-1.1-0.2-0.5-1.5-1.7c0.8,0.5,1.6,0.3,1.4-0.1c-0.4-0.1-0.9,0-1.3-0.2c0.5,0-1.3-0.7-0.3-0.7
		c0.9,0.2,1.7,0.7,2.7,0.8c-0.8-0.6-1.9-0.3-2.6-1.1c1.8,0.2-1.1-1.4,0.9-1.1c0.6,0.4,1.2,1,2,1.1c-1.1-0.7-0.9-0.7-2.2-1.2
		c2.2,0,1.1-1.4,1.3-2.2c0.2,0.1,0.5,0.2,0.7,0.2c0.4,0.3-0.5,0.2,0.3,0.7c1.2,0-1.1-1.1-0.9-1.3c0.8,0.3,1.5,0.5,1.3,0.1
		c-1.2,0.1-0.7-0.4-1.8-1.1c1.3-0.1,0.2-2.4,2.8-1.8c-0.3-0.5-0.9-0.4-1.4-0.7c0.3-0.5-0.3-1.4,0.8-1.6c-0.5,0-1-0.1-1.5-0.4
		c0.3-0.1,0.1-0.4,1.2-0.3c0.4,0.3,0.7,0.6,1.1,0.7c-0.4-0.4,0.5-0.3-0.2-0.8c-0.7,0-1.4-0.2-1.9-0.7c2.1,0.1-1.2-2.2,1.6-1.5
		c0-0.2-0.2-0.4-0.8-0.7c1.2,0.3,0.3-0.6,1.1-0.1c0.2,0.2,0,0.4,0.6,0.5c0.1-0.5-0.9-1.4-0.9-2c0.3,0.2,0.7,0.2,0.9,0.4
		c0.4,0.3,0.2,0.4,0.6,0.7c1.7-0.5-1-2.8,1.6-3c-0.7-0.7-0.4,0.1-0.9-0.4c-0.6-1,0.4-1.4,0-2.2c2.4,0.2-1.5-2.5,1.5-1.8
		c-1.7-0.9,0.8-0.6-1-1.8c1.5,0.2,0.8-0.5,1.1-0.7c-1.8-0.7-0.9-1.7,1-1.4c-0.3-0.5-0.9-0.4-1.4-0.7c0.8,0.1-0.8-0.8,0-0.8
		c0.6,0.3,1.9,0.6,1.3,0.1c-0.5-0.1-1.1,0.1-1.5-0.2c-0.7-0.7,1.4-0.2,1.5-0.6c-0.9-0.3-0.9-0.4-1.3-0.9c1.4,0.1,1.1-0.5,2.5-0.3
		c0,0.2,0.2,0.4,0.9,0.5c-0.1-0.1-0.4-0.3-0.2-0.3c0.5,0.1,0.8,0.7,1.4,0.7c-0.9-1.2,1-0.4-0.4-1.8c-0.6,0,0.1,1-1.3-0.1
		c-1-0.2,0.2,1-1,0.4c-0.1-0.3,0.6-0.3-0.7-1.2c1.4,0.2,0.2-0.5,1.2-0.4c0.8,0.5-0.1,0.3,0.3,0.7c0.6-0.1,0.9,0.4,1.4,0.6
		c0.9,0.1,1-0.1,0.5-0.6c-0.4-0.1-0.9,0-1.3-0.2c0.3,0-0.1-0.3,0.1-0.3c0.7-0.1,1.1,0.5,1.7,0.4c-0.9-1.3,1.3-1.5-1.5-3.3
		c0.3,0,0.2-0.6,1.1-0.1c0.7,0.4-0.6,0.5,0.8,0.8c-0.5-0.7,1.3-1.4-1.4-2.1c-0.2-0.2,0-0.2,0.1-0.3c0.7-0.1,1.1,0.5,1.7,0.4
		c0.3-1.3,0-3.3,1.4-3.9c-0.9-1.9,0.4-3,0.6-4.5c0.2,0.1,0.4,0.3,0.7,0.4c-1.8-1.8,0.5-2.8,0.2-4.4c0.4,0.1,0.8,0.3,1.2,0.4
		c-0.5-1.2,0.4-1.8,0-3c0.3,0.2,0.6,0.4,0.9,0.4c-1.2-1-1.5-1.8,0.2-1.4c-1.5-1.7,1.5-1.6,0.1-3.3c1.1,0.5,0.9-0.5-0.3-0.6
		c0.9,0.5-0.2,0.7-0.9,0.3c-0.2-0.6-0.9-0.6-1.7-1.2c0.8-0.4,2.8,0.5,3.5,0.8c-0.2-0.9,0.7-1.4,1.2-2c-0.3-0.3-0.8-0.4-1.1-0.7
		c3.1-0.9,1.2-4.2,3.4-5.1c-0.6-0.7-0.4-0.6-1-1.1c0.4,0,0.6,0.2,1,0.2c0.4-3.2,2.7-5.3,3.1-8.4c1.3,0.3,0.9-0.7,0-1.6
		c1.9,0.2,0.5-0.8,0.9-1.2c1.2,0.2,1.6-2,2.5-2.7c-0.4-0.1-0.8-0.2-1.2-0.5c2.2,0,0.1-1.6,2-1.3c-0.4-0.3-0.7-0.5-1.1-0.7
		c0.1-0.2,0.7-0.2,1.3,0.1c-0.6-0.7,0.9-0.1-0.8-0.8c0.9-0.3,0.2-1.1,1.7-1.2c-0.3,0-0.7-0.1-1-0.3c0.9-0.1-0.1-0.9,1.3-0.9
		c-0.3,0.1-1.4-0.8-0.9-0.7c0.6-0.2,0.9,0.5,1.5,0.4c-1-1-0.7-1.6,0.5-1.8c-1.1-0.8,0.6-0.7,0.9-1.4c0.2-0.4-1-1.8,0.7-1.4
		c-1.2-2.4,2.3-2.6,1.4-4.9c0.3,0.2,0.6,0.5,0.9,0.5c0-0.3-0.3-0.2-0.9-0.6c2.2-0.2,1.2-2.6,3.1-3.4c-0.3,0-0.5-0.1-0.7-0.3
		c1.7-0.4,1.3-1.5,1.2-2.4c1.7-0.6,2.9-1.6,0.8-3.2c0.7,0,1.3,0.5,2,0.5c-1.2-0.7,0.7-0.4,0.2-0.9c-0.5-0.1-0.3,0.2-0.8,0
		c0.4-0.2,0.3-0.3,1.3-0.1c-0.7-2.3,2.9-3.2,1.9-5.6c0.6,0.1,1.2,0.1,1.7,0.5c-11.9,24-25.9,47.6-30.2,75.9
		c-0.3,1.1-1.1,2.3-0.4,3.3c-1.3,0.1-0.6,1-1.8,1.2c0.2,0.2,1.4,0.9,0.8,0.8c-1.4-0.5-0.3,0.9-0.2,1.3c0.3,0.8-1.8,0.9-0.6,1.6
		c0.2-0.2,0.7-0.3,0.5-0.6c2.4,1.6-2.3,1.1,0,2.9c-2.6,0,0.5,3.1-2.2,2.4c0.6,0.4,0,0.3,0.8,0.8c-1.2-0.3-1.4,0.6,0.3,1.3
		c-0.4,0.7-2.2,0.8-1.3,2c0.5,0.3,1.2,0.1,1.7,0.4c-0.4,0-1,0.3-1.5-0.2c-1.2,0.5,0.6,2.2-1.2,2.5c1.1,0.4,0.8,0.9-0.4,0.5
		c0.3,0.3,0.8,0.4,1.1,0.5c-0.6,0.2,0.5,1.3-1.3,0.7c0.2,0.4,0.1,0.7,0.1,1.1c2.3,1.5-0.9,2.3,1.1,4.2c-2.6,0.2,1.2,2.8-1.8,2.8
		c1.2,0.7-0.3,0.3,0.5,0.8c1.4-0.1,0.8-1.3,1.7-1.8c0.6,0.2,1.1,0.3,1.7,0.6c0.2,0.4,0.1,0.6-1,0.4c0.6,0.7,1.6,0.1,2.1,0.9
		c-1.2-0.5-0.5,0.8-2.1-0.1c0.8,0.8-0.8,0.5,0.1,1.1c-1.2-0.7-1.2-0.3-2.4-0.8c1.1,1,0.2,1-0.7,1.1c0.4,0.5,0.9,0.4,1.4,0.7
		c-0.6,0.3-0.8,1.3,0.1,1.9c-0.3-0.6,0.8-0.6,0.7-1.1c0.6,0.5,1.4,0.5,2,1.2c-1-0.4-0.7,0-1.6-0.1c1.9,0.6,2.3,2.9,0.7,2.6
		c0.3,0.5,1,0.2,1.4,0.7c-0.3,0-0.1,0.1-0.3,0.1c-1.1-0.3-1.7-0.4-2.6-1.1c0.3,0.4,0,0.6,0,0.8c-1-0.5-0.3-0.8-1.2-1
		c1.1,0.7-0.9,0.3,0.4,1.1c1.2,0.3,1-0.1,2.1,0.3c0.6,0.6-0.6,0.4-0.1,1c0.7,0.1,1.2,0.7,1.9,0.7c0.2-0.2,1-0.5,1.9,0.1
		c0.2,0.3-1.5-0.1-1.2,0.3c1.2,0.1,1,1,1.8,0.9c0.1,0.4-0.7,0.7-1.8-0.2c1.5,0.4-0.3-0.3-0.8-0.7c0.2,0,0.5,0,0.3-0.1
		c-0.5,0-0.8-0.2-1.3-0.2c-0.1,0.4,1.2,0.6,1.7,1.2c-0.3,0-0.2,0.2-0.9,0.1c-0.6-0.3,0.1-0.5-0.8-0.7c0.4,0.8-0.7,1,0.1,1.9
		c0.8-0.4,1.7-0.3,2.4-0.9c0.2,0.2,0.5,0.2,0.7,0.4c-0.5,0.6-1.7,0.9-1.9,1.5c0.3,0.3,0.8,0.4,1.1,0.5c-0.3,0-0.1,0.1-0.3,0.1
		c-0.4,0-0.6-0.3-0.9-0.4c-0.3,0.2-0.8,0.6,0.4,1.1c-0.6,0.3-3.4,0.3-1.8,1.2c0.2-0.1,1.3-0.2,2.6-0.5c0.1,0.7-1.8,0.5-0.8,1.6
		c-0.7-0.7-1.6-0.4-2.4-0.9c0.3,0.3-0.5,0.1,0.1,0.5c0.5-0.2,1.7,0.2,2.7,0.8c-1.6-0.2-0.8,0.3,0.2,1c-2.2,0.3-0.7,1.4-1.8,2
		c1.7,0.6,0.8-0.7,2.7,0c0.5,0.8-1.9,0.6,0.3,2.1c-1.1,0.1-0.8,0.8-1,1.2c-0.6,0-1.1-0.3-1.8-0.2c0.2,0.2,0.6,0.5,0.4,0.5
		c-0.5-0.5-1.1-0.6-1.2-0.4C279.2,235.2,279.6,234.7,280.4,234.8z M277.5,198.8c0.1,0.4,1,1.1-0.1,1
		C276.9,199.3,276.6,198.8,277.5,198.8z M278.1,173.7c-0.3-0.1-0.6-0.3-0.9-0.4c-0.3,0,0.3,0.4,0.6,0.7c-1.6-0.4-1-0.1-2.1-0.3
		c-0.4-0.7-0.6-1.2,0.2-1.4c1.3,1,0.6,0.1,1.8,0.3C279.1,173.5,277.8,173.3,278.1,173.7z M403.8,18.8c0.9,0.6,0,0.3-0.8,0.3
		C402.2,18.6,403.1,18.5,403.8,18.8z M429.1,26.7c-0.9-0.4-0.5,0.3-1.5-0.3c-0.7-0.7,2.7-0.2,1-1.3c1.4,0.1,3.7,0.7,4.1,1.4
		c-1-0.4-1.9-0.9-2.9-0.9c1.3,0.5,1.4,0.6,2.4,1.1c-0.7,0-1.4-0.1-0.3,0.4c-1.6-0.1-1.9-0.1-2.6,0.1
		C428.2,27.1,428.4,26.7,429.1,26.7z M408.6,72.9c0.5-0.2-0.6-0.8,0.3-0.9C409.5,72.5,409.6,72.8,408.6,72.9z M401.4,99.3
		c-1.1-0.2-0.8-0.7-1.6-1.1C401.4,98.4,400.3,98.8,401.4,99.3z M394.5,118c1.1,0.6,0.2,0.6,0.3,0.8
		C393.8,118.6,393.8,117.9,394.5,118z M357.2,233.2c-0.7-0.7-0.5-1-0.3-1.3C358,232.4,357.2,232.9,357.2,233.2z M344.3,220.7
		c-1.6-0.4-1.3-1.8-0.3-1.5C345.1,220.1,343.2,219.8,344.3,220.7z M338.1,247.4c0.4,0.3,0.1,0.3,0.6,0.7c-0.5,0-0.8-0.2-1.3-0.2
		C336.6,247.3,337.3,247.3,338.1,247.4z M314.3,199.1c-0.1-0.7,0-1.1,0.4-1.7C315.2,198.2,315.3,198.9,314.3,199.1z M309.3,213.5
		c-0.9-0.3-0.3-0.8-0.4-1.1C310,212.8,309.4,213.3,309.3,213.5z M306.6,220.8c-1-0.6,0.8-0.2,1.1-0.1
		C308.2,221.1,307.1,221.2,306.6,220.8z M282.5,234c-1.4-0.8,1-0.2-0.5-1c0.4,0,1,0.3,0.8,0C283.7,233.4,283.9,234.3,282.5,234z
		 M280.7,220.3c-0.8-0.5,0.1-0.4,0.2-0.6C281,219.8,282,220.4,280.7,220.3z M277,206.7c-0.8-0.6-0.6-1.1,0.3-0.8
		C277.6,206.3,278.1,206.8,277,206.7z M278.5,204.8c-1.1-0.5-1.3-1.3-0.6-1.3C279.1,204.3,278,204.3,278.5,204.8z M321.3,237.2
		c0.4,0.7-0.5,1-0.6,1.6C320,238.2,319.9,237.2,321.3,237.2z M263.9,191c-0.7-0.6-0.5-1.1,0.6-0.8C265,190.8,265.3,191.3,263.9,191z
		 M292.1,214.2c-0.6-0.6,0.2-0.5,0.3-0.8C293.6,213.8,292.8,214.2,292.1,214.2z M325.8,241.2c-1.3-0.4-0.1-0.4-0.8-0.8
		C326.5,240.7,325.6,240.9,325.8,241.2z M324.7,239.9l-0.6-0.5c1.1,0,0.2-0.2,0.2-0.6c0.4,0.1,0.7,0.5,1.2,0.5
		c0.3,0.5-0.8,0.2,0.5,0.8C325.5,240.2,325.1,240,324.7,239.9z M323.1,238.2c-0.9-0.6,0.1-0.6,0.3-0.8
		C324.1,238.1,324.4,238.4,323.1,238.2z M301.5,217.7c-0.5-0.8,1.7,0.3,2.6,0.3c0.1,0.2-0.2,0.3-0.6,0.3
		C302.8,217.7,302.6,218.3,301.5,217.7z M324.5,235.8c-0.2-0.2-0.4-0.3-0.6-0.5c0.4,0,0.7,0,1.1,0.1
		C325,235.6,325.6,236,324.5,235.8z M337.9,246.5c-0.5-0.5,1.3,0-0.3-0.8C339.2,245.7,339.4,247.1,337.9,246.5z M302.7,216.8
		c0.6,0.5,1.2,0.9,0.2,0.8c-0.5-0.5-0.6-0.8-0.2-1c-0.3-0.3-0.7,0-0.6,0.1c-1.1-0.6,0.2-1,0.7-1.2c-1.6-0.8,0.6,0-1.2-1
		c1.3-0.3,2.9,0.5,3.5-0.1c0.6,0.5,0.4,1.1-1,0.6c2.1,1.2-0.4,0.9,0.4,1.8C303.3,216.3,303.5,216.8,302.7,216.8z M278.5,197.4
		c-0.1-0.3-0.2-0.9,1-0.4C279.9,197.5,279.5,197.8,278.5,197.4z M305.8,219.4c-0.3-0.3,0-0.4,0.6-0.3l0.8,0.7
		C306.6,219.9,306.4,219.2,305.8,219.4z M337.5,243.8c0.2-0.4-0.9-0.5-1.5-1c1.4,0.3-0.7-0.8,0.5-0.6
		C336.5,242.7,339.4,243.9,337.5,243.8z M323.8,232.7c-0.9-0.6,0.2-0.5,1-0.4C325.5,232.9,323.9,232.5,323.8,232.7z M333.2,238.6
		c0.2-0.1,0.9-0.1,1.8,0.3c0.8,0.7-1.2,0.8-2.4,0C333.5,239.1,334.4,239.1,333.2,238.6z M304.5,210.4c1,0.9-0.1,0.9-1.6,0.7
		c-0.2,0.2,0.7,0.9,0.7,1.2c0.1-0.1,0.2-0.2,0.5,0c-0.2-0.5,0.3-1.1,1.9-0.7c0.9,0.7-0.6,0.5-0.8,0.8l1,0.9
		c-0.9,0.2-0.4,1.5-3.1,0.5c0.3,0.3,0.6,0.3,0.9,0.4c0.5,0.7-1.3,0-1.9-0.6c1.5,0.1-0.1-0.2-0.6-0.7c1.4-0.1,0-1.3,1.3-1.4
		c-0.6-0.3-0.8-0.4-0.8-0.7c1,0.2,1.9,0.2,0.6-0.3C303.3,210.4,304.3,211,304.5,210.4z M324.8,232c-0.2-0.2-0.4-0.3-0.6-0.5
		c0.9,0,1.7,0.4,2.5,0.5c1,0.6-0.7,0.1,0.3,0.7c-0.5,0-0.9-0.5-1.4-0.6L324.8,232z M264.8,182c-0.9-0.5,0.2-0.7,0.9-0.3
		C266.7,182.4,265.2,182,264.8,182z M279.8,192.4c0.1,0.4-1.7-1.2,0-0.8C280.7,192.2,279.7,192.1,279.8,192.4z M333.9,236.8
		c-0.3,0-0.6-0.3-0.9-0.5l1.1,0.1C335,237,333.6,236.5,333.9,236.8z M328.4,231.9c-0.3-0.4-0.8-0.9-0.9-1.2l1.3,0.1
		c0.3,0.3,0.7,0.5,1.1,0.5C329.5,231.5,328.6,231.6,328.4,231.9z M335,236.7c-1.8-0.8,0-0.9-0.5-1.5c1.4,0.3,0.1,1.2,2,1.2
		c0.8,0.5-0.1,0.3,0.3,0.6c-0.7-0.3-1.4-0.6-2.1-0.7L335,236.7z M327.5,229.8c-0.5-0.6,1.3-0.3-0.4-1.1
		C329,229.1,329.7,230.4,327.5,229.8z M324.2,227c0.6,0,0.9,0.3,1.5,0.2c-0.3-0.3-0.6-0.3-0.9-0.4c-0.4-0.4,0.2-0.3,0.9-0.3
		c0.3,0.4,0.8,0.3,1.2,0.4c0.3,0.2,0.6,0.5,0.8,0.7c-0.6-0.1-1.1-0.5-1.7-0.6c-0.6,0,0.7,0.3,0.8,0.7
		C326,227.6,324.9,227.7,324.2,227z M321.4,224.3c-1-0.8-1-1.2,0.1-1.1C322.1,223.8,322.3,224.3,321.4,224.3z M334.3,234.7
		c0.1-0.5-0.1-0.8,1.1-0.7c-0.8,0.1,0.5,1.1-0.2,1.3C334.9,235,334.7,234.8,334.3,234.7z M305.2,210.6l-0.6-0.5
		c1.1,0.2,1.1,0,0.2-0.6l1.1,0.1C305.8,209.9,306.2,210.5,305.2,210.6z M334.4,233.8c-0.6-0.5,0-0.5-0.4-1
		C335,233.1,335.3,233.9,334.4,233.8z M279.4,188.4c0.6-0.3-0.3-1.1,0.5-1.2C280.3,187.8,281,188.9,279.4,188.4z M339.7,237.7
		c-2.2-1.2-0.9-2-0.5-2.2c-0.8-0.1-1.2-0.4-1-0.9c0.4,0.1,0.8,0.2,1.1,0.5c-0.1-0.6-0.7-1.8,0.6-1.6c0.5,0.8,0.2,1,1.7,2
		c-0.4,0.3,0,0.8-1.8,0.5c0.7,0.2,1.5,0.4,2.1,0.8c0.1,0.3,0.1,0.5-0.2,0.6c-0.6-0.1-1.2-0.1-1.7-0.4
		C340,237.5,339.2,237.1,339.7,237.7z M328.9,228.9c-0.5-0.7,0.2-0.6,1.4-0.2C330.4,229.2,329.1,228.3,328.9,228.9z M337,234.1
		c0.6,0.4,0.2,0.5,0.5,0.8C336.4,234.7,336.1,234,337,234.1z M305.1,207c-1.1-0.2-0.6,0.3-1.4,0.2c-0.7-0.5-0.7-0.8-0.9-1.2
		c0.9,0,1.7,0.3,2.4,0.8c0.5-0.2,1.1-0.3,0.3-0.9c0.6-0.1,0.9,0.4,1.5,0.4c-1,0.3-0.1,0.8-1.4,0.9c0.3,0.3,0.7,0.6,1,0.9
		c-0.5,0-0.5,0.1-0.4,0.3C305.3,207.9,306,207.5,305.1,207z M305.4,208.6c-0.9-0.6-1-1-0.2-1C305.3,208,306,208.6,305.4,208.6z
		 M334.8,232.1c-0.5-0.4-0.4-0.6,0.2-0.6c0.3,0.5,1,0.2,1.4,0.7C336.3,232.4,335.4,232.3,334.8,232.1z M274.1,181.8
		c-0.6-0.5,0-0.5,0.7-0.4C274.9,181.6,275,181.9,274.1,181.8z M337,233.3c-0.6-0.4-0.8-0.7,0-0.6c0.3,0.3,0.8,0.4,1.1,0.7L337,233.3
		z M321.7,219.9c-1-0.8-0.2-0.9,0.1-1.1c0.4,0.2,0.7,0.4,1.1,0.7C321.7,219.3,322.9,220.1,321.7,219.9z M335.5,230.8
		c-0.9-0.8,1-0.6,0.9-1.1c0.7,0.8-0.7,0.7,0,1.4C336.1,231.1,335.8,230.8,335.5,230.8z M331.4,226.5c0.6,0.2,1,0.6,1.6,0.9l-1.1-0.1
		C331.1,226.8,332.2,227,331.4,226.5z M338.9,233.2c-0.9-0.2-0.5-0.5-1-0.8l1.3,0.1c0.5,0.6,1.7,0.7,1.5,1c-0.8,0.1-1.2-0.7-1.8-0.9
		C338.7,232.7,339.2,233.2,338.9,233.2z M305.7,205.6c-0.6-0.7,0.9-0.1,0.5-0.6C307.5,205.5,306.7,205.8,305.7,205.6z M331.4,225.7
		c-0.2-0.4,0.3-0.5,0.5-0.8C332.1,225.3,332.7,225.9,331.4,225.7z M274.4,178c-0.6-0.5,0-0.4,0.4-0.5
		C275.8,178.1,275.3,178.3,274.4,178z M328.5,221.9c-0.7-0.6-0.2-0.7-0.4-1.1C328.9,221,329.5,222,328.5,221.9z M306.7,202
		c0.1,0.5,0.4,1,0.1,1.3C305,202.8,305.6,202,306.7,202z M346,232.8c0.4,0.3,0.3,0,0.8,0c0.9,0.6,0.6,0.6,0.5,0.8
		c-1.2-0.6-0.5-0.1-1.3-0.1c-0.4-0.2-0.7-0.4-1.1-0.7c-0.3,0,0.5,0.5,0.1,0.5c0.4,0.2,0.8,0.2,1.1,0.5c-2.1-0.5-3.2-0.5-4.2-1.7
		c0.4,0.1,0.7,0.5,1.1,0.5c0.1-0.4-0.1-0.6-1.1-1.3c0.8,0-0.7-1,0.8-0.7c-0.8-0.4-0.1-0.7-1-0.9c-0.2-0.6,1.3,0.3,1.7,0.6
		c0.5,0.5-0.1,0.6,1.1,1.3c0.7,0.1-0.6-0.6,0.4-0.5c0.6,0.4-0.1,0.5,0.9,0.5C346,232.3,346.2,232.6,346,232.8z M334.1,224.9
		c-0.5-1,2.1,0.3,3.7,0.2c0.4-0.2-0.5-1,0.1-1.1c1.4,0.7-0.3,0.8,1.2,1c0.4,0.6-0.7,0.6,0.6,1.3c-0.4,0.1-0.3,0.4-1.1,0.1
		C338.2,225.4,335.1,224.8,334.1,224.9z M275.1,176.1c-0.5-0.9-0.3-0.9-1.9-2.2c1.7,0.4,2.2,0.2,4.1,0.7c0.4,0.3,0.1,0.3,0.6,0.7
		c-0.8-0.1-1.4-0.6-2.3-0.4c0.4,0.5,1.2,0.3,1.7,0.6C277.2,176,276,176.1,275.1,176.1z M306.5,201.9c-0.4-0.5,0-0.7,1-0.4
		C307.2,201.6,307.1,201.8,306.5,201.9z M346.4,234.1c0.5,0,0.9,0.5,1.4,0.6C348,235.2,345.9,234.4,346.4,234.1z M334.4,224.1
		c-0.4-0.3-0.1-0.3-0.4-0.5l2.1,0.1C336.7,224.4,335.4,224.6,334.4,224.1z M306.4,200.6c-0.8-0.5,0.1-0.3-0.3-0.7
		c0.9,0.2,0.6,0.3,1.1,0.7C307,200.6,306.7,200.6,306.4,200.6z M322.9,213.6c-0.5-0.5,0.4-0.9,1.4-0.1
		C323.3,213.4,323.9,213.8,322.9,213.6z M342.6,229.6c0.7,0,1.6,0.7,1.6,0.9C343.6,230.5,343.1,230.1,342.6,229.6z M308,200.8
		c-0.4-0.5-0.1-0.6,0.8-0.6c0.1,0.2,0.1,0.3-0.4,0.3c0.1,0.1,0.3,0.2,0.5,0.2C309,200.9,308.3,200.8,308,200.8z M312.9,203.5
		c-0.8-0.6,1-0.2,0.3-0.8C314.4,203.1,313.8,203.6,312.9,203.5z M356,238.6c-0.2-0.7,0.4-0.3,0.3-0.8c0.6,0.2,1.1,0.3,1.6,0.7
		c-0.6-0.4-1.4-0.1-0.3,0.1C357.4,238.9,356.8,238.8,356,238.6z M277.5,170.2c0-0.2-0.7-0.7,0.2-0.6
		C278.5,170.1,278.4,170.3,277.5,170.2z M325.6,209.1c-0.6-0.4-0.8-0.7,0-0.6C326.2,208.9,326.4,209.2,325.6,209.1z M306.7,193.4
		c-1-0.7,0.5-0.6,1.1,0.1C307.5,193.7,307.4,193.4,306.7,193.4z M324,206.2c0.2-0.3,1.8-0.1,0.6-0.9c1.3,0.6,1.4,1.5,0.3,1.5
		C324,206.4,324.8,206.3,324,206.2z M277.8,166.3c-0.8-0.7-0.3-0.9,0.1-1.1C279.2,165.8,278.5,166.2,277.8,166.3z M357.3,231.4
		c-1-0.3-0.9-0.9-1.2-1.2C357,230.5,357.7,231.4,357.3,231.4z M343.5,218.4c-0.8-0.5-0.2-0.4-0.8-0.8c1.8,0.4,0.5-0.5,1.5-0.4
		c0.7,0.6,0,0.6,1.1,1.3C344.2,218.3,344.4,218.4,343.5,218.4z M315.7,194.5c0.4-0.3-0.8-0.9-0.9-1.2c0.8-0.1,1.5,0.3,2.1,0.9
		C315.9,194.2,316.9,194.8,315.7,194.5z M354.8,224.3c-0.2-0.4,0.6-0.4,1.5-0.4C357.1,224.5,355.7,224.3,354.8,224.3z M337.2,209.3
		c-0.6-0.4-0.8-0.7,0-0.6C337.8,209.1,337.9,209.4,337.2,209.3z M344.7,215.3c-0.8-0.7-0.3-0.8,0.6-0.8
		C345.2,214.8,345.5,215.3,344.7,215.3z M340.2,210.6c-0.5-0.4-0.1-0.2,0.3-0.1c0.4-0.5-0.1-1.3,1.7-0.9c0.2,0.6-1.2,0.5-0.5,1.3
		C341.2,210.8,340.7,210.7,340.2,210.6z M326.1,198.3c0-0.5,0-0.9,1.1-0.9C327.3,197.9,327.3,198.3,326.1,198.3z M360.8,224.1
		c-0.9-0.1-1.6-0.6-2.4-0.8c0.2-0.2,0-0.5,0.7-0.4C359.6,223.5,360.3,223.5,360.8,224.1z M360.3,224.1c1.8,1-1,0.4-1.4,0.9
		c-0.6-0.6,0-0.6-1.2-1.2C358.7,224,359.7,224.4,360.3,224.1z M355.4,221.9c-0.2-0.4,0.1-0.6,0.8-0.6c0.3,0.3,0.7,0.5,1.2,0.5
		c1,0.7,0.5,0.9,0.4,1.1c-1.3-0.4,0.2-0.5-0.7-1C356.1,221.5,355.9,222,355.4,221.9z M345.6,212c-0.8-0.5,0.2-0.4-0.2-0.8
		C346.1,211.3,346.4,212.1,345.6,212z M346.7,212.7c-0.7,0.1-1-0.6-1.7-0.6C344.8,211.6,346.4,212.2,346.7,212.7z M340.1,207.8
		c1.1,0.1,0.8-0.1,0-0.6c1,0.1,1,0.2,1.6,0.1c0.1,0.3-0.2,0.4,0.7,1c-0.4,0.1-0.2,0.4-1.2,0.3C340.8,208.4,340.5,208.1,340.1,207.8z
		 M309.9,182.9c-0.2-0.1-0.1-0.2,0.1-0.2l-0.4-0.3c1,0.4,0.7-0.1,1.8,0.1C311.9,183.1,311.1,183.2,309.9,182.9z M281,158.8
		c1,0.4,0.3,0.3,0.6,0.7C280.8,159.3,279.9,158.6,281,158.8z M358.9,222.7c-0.5-0.5-0.6-0.8-0.4-1
		C358.8,221.9,360.2,223.1,358.9,222.7z M318.5,188.3c-0.5-0.5-0.4-0.9,0.3-0.9C319.3,187.9,319.2,188.2,318.5,188.3z M356.9,219.3
		c-1-0.5-1.3-0.9-1.2-1.2c1.2,0.2,0.7,0.6,1.6,0.9c1.3,0-0.1-0.6-0.2-1c0.4,0,1,0.3,0.8,0C359.3,218.8,358.4,219.4,356.9,219.3z
		 M325.1,192.3c0.7,0,0.5-0.5,1.5-0.4c1.2,0.8-0.3,0.6-0.1,1.1C325.9,193,325.5,192.7,325.1,192.3z M344.3,206.6
		c0.6,0.4,0.8,0.7,0.8,0.8C344.3,207.4,343.2,206.4,344.3,206.6z M357.9,217.4c-0.6-0.4-0.8-0.7-0.8-0.8c0.3,0.1,0.6,0.2,1,0.2
		C358.6,217.2,358.5,217.4,357.9,217.4z M344.3,206.1c-0.8-0.6,0.8-0.2,1-0.4C345.4,206.1,345.1,206.2,344.3,206.1z M341.8,202.7
		c-0.4-0.2-0.8-0.4-1.1-0.7c1.5,0.4,0.1-0.2,1.4-0.1C342.8,202.5,342.7,202.7,341.8,202.7z M341.8,202.7c1.3,0.9-0.7,0.4,0.1,1.1
		C340.7,203.3,340.3,202.4,341.8,202.7z M355.9,215.4c-0.5-0.5-1.5-1.1-0.2-0.8C355.8,214.9,356.8,215.5,355.9,215.4z M344,204.7
		c0.3-0.1-0.3-0.6,0.7-0.4C345.4,204.8,345.1,205.1,344,204.7z M345.3,203.2c0.5,0,0.8,0.2,1.3,0.2c0.7,0.6,1.5,1.2,0.8,1.5
		c-0.6-0.2-0.4-0.3-0.6-0.5c-0.4,0.1-0.2,0.4-1.2,0.3c-0.6-0.4-1.4-0.6-1.3-0.9c1.3,0.5,1.4,0.3,2.6,0.3
		C346.4,203.7,345.8,203.7,345.3,203.2z M343.7,203.2c-0.1-0.7-0.1-1.2,1-1.4C345.3,202.7,345.9,204,343.7,203.2z M362.7,219
		c0.1-0.4-0.4-1,0.2-1.3C363.7,218.5,363.3,218.8,362.7,219z M355.4,212.5c-0.5-0.6,0.7-0.1,1.3,0.1
		C357.1,213,355.7,212.6,355.4,212.5z M359.5,215.1c0-0.5-0.3-1.1,0.9-1.1c0.9,0.6-0.6,0.2-0.2,0.6c0.5,0.4,1.3-0.1,1.7,0.6
		C360.3,214.8,360.6,215.4,359.5,215.1z M340.4,198.4c1.5,0.3,3.4,1.8,1.8,1.7C341.7,199.2,341.2,199,340.4,198.4z M344.8,201.7
		c-0.3,0-0.6-0.3-0.9-0.5l1.3,0.1C346.5,201.9,344.2,201.2,344.8,201.7z M354.1,208.7c-0.4-0.3-0.1-0.3-0.4-0.5
		c0.6,0.1,1.2,0.1,1.7,0.6C354.9,208.8,354.5,208.8,354.1,208.7z M357.7,211.3c1,0.1,1.8,0.4,2.6,0.9
		C360.1,212.5,358.4,212,357.7,211.3z M347,201.7c0.7,0.3,1.9,1.2,0.7,1C347.1,202,345.7,201.6,347,201.7z M359.9,211.8
		c-0.8-0.7,0.5-0.5-0.9-1.2c1.7,0.4,0.7-0.1,1.4-0.2c0,0.1,0.2,0.4,0.6,0.7C359.9,211,361,211.8,359.9,211.8z M360.1,210
		c-1.6-0.9,0.9-1-0.6-2.1C362.1,208.9,360.1,209.5,360.1,210z M358.4,208.7c-0.5-0.4-0.4-0.4-0.6-0.7c0.6-0.1,0.9,0.4,1.5,0.4
		C359.6,208.9,358.9,208.4,358.4,208.7z M359.8,205.5c-0.2-0.3,0.2-0.4,0.7-0.5c0.8,0.5-0.3,0.3,0.5,0.8
		C360.6,205.8,360.2,205.6,359.8,205.5z M348.5,193.8c-2-0.5-0.6-0.9-0.4-1.1C349.1,193.1,347.5,193.2,348.5,193.8z M324.9,174.9
		c-0.6-0.5,1-0.4,1.5,0.2C325.8,175.3,325.4,174.9,324.9,174.9z M351,194.3c0.3,0.4-1.3-0.3-1.8-0.2c-0.3-0.3-0.8-0.7,0-0.6
		C349.8,193.6,350.3,194.1,351,194.3z M349.6,193.6c-0.6-0.6,1.2-0.3,1.7,0.4C350.7,194.1,350.2,193.8,349.6,193.6z M359.7,201.5
		c0.2-0.4,0.2-0.8,1.1-0.9c1,0.7-0.8,0.2,0.4,1L359.7,201.5z M352.8,195.2l-0.6-0.5l1.1,0C353.3,194.9,353.8,195.4,352.8,195.2z
		 M348.4,190.3c0,0.5,2,1.2,0.7,1.2C348.1,191.1,347.9,190.4,348.4,190.3z M347.2,189.9c-1.2-0.4-0.7-0.8,0.2-0.6l0.8,0.7
		C348,189.9,346.7,189.5,347.2,189.9z M325.6,172.2c-0.4-0.3-0.5-0.6-0.3-0.7c0.7-0.1,1.1,0.6,1.7,0.6c0.6-0.2-1.1-0.4-1.3-0.9
		c0.9,0.2,0.4-0.2,1.1-0.1c0.9,0.6,0.6,0.7,0.7,1c1.5,0.2-0.2-0.9,1.1-0.7c-0.5-0.6-1.6-0.8-1.5-1.2c1,0.2,0.6,0.3,1.1,0.7
		c1.4,0.2-1-1.1,0.8-0.8c0.7,1.5,0,2.5-0.7,3.5c-0.2-0.3-0.7-0.7-0.5-0.8C327.1,172.5,326.3,172.5,325.6,172.2z M350.4,192.1
		c0.8,0,0.6-0.3,1-0.4c-0.6-0.3-1.3-0.3-1.8-0.9c0.5-0.3,1.2,0.3,2.3,0.4c0.6,0.7-0.6,0.6,0.5,1.5
		C351.6,192.7,350.9,192.7,350.4,192.1z M360,199.9c-0.7-0.6,0.4-0.5,1.2-0.4C361.9,200,360.5,199.7,360,199.9z M343.8,186.5
		l-0.6-0.5l1.1,0C344.9,186.5,344.6,186.6,343.8,186.5z M352.1,185.3c0.8,0.3,1.3,1.7-0.4,1.1c1.1,0.8,3.1,0.9,2.6,0.3
		c1.5,0.6-0.4,0.7,0.3,1.3c-0.6-0.1-0.4-0.3-0.6-0.5c-0.9,0-0.7,0.4-1.5,0.4c0.4,0.4,1,0.1,1.5,0.2c-0.5,0.5-3.1,0.6-1.2,1.9
		c-1.6-0.3-2.5-0.2-4-0.2c-1-0.8,1.6-0.1-0.2-0.8c0.4-0.1,1.3,0.1,2.5,0.4c0.7-0.4,1.1-0.9-0.1-2.1l1.3,0.1c-0.3-0.5-3.1-1.9-1.7-2
		c0.4,0.3,0.3,0.4,0.1,0.5C352.4,186.7,352,185.6,352.1,185.3z M353.9,185.5c0.7,0.4,0,0.7,0.8,0.8c-0.1,0.2-0.9,0.3-1.4,0.1
		C353.2,186.1,352.9,185.6,353.9,185.5z M360.9,198c0.2,0.6,0.3,1-0.2,1.3C359.5,198.6,360.3,198.2,360.9,198z M354,193.4
		c-1-0.6-0.1-0.4-0.3-0.7C354.3,192.9,355.2,193.8,354,193.4z M353.5,191.8c-1.3-0.4-0.7-0.9,0-0.8
		C353.8,191.4,353.2,191.4,353.5,191.8z M360.7,197.8c-0.7-0.5,0-0.7,0.7-0.5C361.6,197.6,361.7,197.9,360.7,197.8z M326.8,168.8
		c1.4,0.6,0.7-0.1,1.8,0.2C329.2,169.5,327.3,169.4,326.8,168.8z M327.7,168.7l-0.6-0.5c1.2,0.2,1.1-0.3,2.1,0.1
		C329.7,168.8,328.5,168.7,327.7,168.7z M354,189.6c-1.3-0.4-0.2-0.7,0-0.8C354.6,189.3,353.8,189.2,354,189.6z M360.4,193.6
		c-0.6-0.5-0.3-0.5,0.4-0.5C361.4,193.6,361.1,193.7,360.4,193.6z M351.2,184c-0.2-0.5,0.7-0.1,1.6-0.1c0,0.3-0.2,0.4-0.2,0.6
		C352.1,184.6,351.7,184,351.2,184z M348.5,181.8c-0.9-0.5-0.2-0.5-0.5-0.8c0.5-0.1,2.4,1.1,1.5,0.2c0.2,0,0.3,0.1,0.5,0.2l0.5,0
		c0,0.1,0.2,0.4,0.6,0.7C350.2,182,349.4,181.7,348.5,181.8z M354,185.2c-1.3-0.9,0.2-0.8-0.1-1.3c0.4,0.1,0.7,0.4,1.1,0.7
		C353.9,184.5,354.9,185.1,354,185.2z M290.6,134.5c0-0.1-0.1-0.3-0.4-0.5c0.7,0,1.4,0,2,0.6C292.1,134.7,291.2,134.7,290.6,134.5z
		 M328.9,164.1c-0.8-0.8,0.9-0.2,1.9-0.1c0.7,0.5,0.8,0.9,0.2,1C330.8,164.4,330,164.2,328.9,164.1z M351.8,179.4
		c1.1,0.2,1-0.2,1.8,0.1c0.6,0.5,0.3,0.9-0.6,0.3c-0.2,0.3,0.7,0.6-0.6,0.3c0.4,0.2,0.8,0.2,1.2,0.5c-0.2,0.3-0.3,0.3-1.3-0.1
		c0.6,0.4,1.2,0.7,1.8,0.9c-1,0.1-2,0.6-1.2,1.7c-1.7-1-1.8-2.1-0.5-2.3c-0.6-0.2-1.4-0.6-1.3-0.9
		C352.5,180.3,351.8,180,351.8,179.4z M367.8,193.1c0.4,0,1.5,0.2,0.6-0.3c1.4,0.3,1.4-0.2,2.5,0.6c-0.2,0.2-2.6-0.4-1.8,0.4
		C368.6,193.7,368.2,193.5,367.8,193.1z M353.9,180.9c0-0.3,0.4-0.4,1-0.4c0.2,0.5,0,0.8,0.3,1.3
		C353.8,181.6,354.3,180.9,353.9,180.9z M365,189.6c-0.6-0.5,0.8-0.4,1.4-0.1C366.8,189.9,365.4,189.5,365,189.6z M369.4,192.5
		c-1.4-0.5-0.6-1-0.9-1.3c0.9,0.2,0.6,0.3,1.1,0.7c1,0.2,0.4-0.3,1.4-0.1C371.6,192.6,370.2,192.4,369.4,192.5z M353,178.1
		c1.4,0.4-0.6,0.3,0.5,0.8C352,178.6,352.7,178.2,353,178.1z M360.9,184.7c0.4-0.2,0.4-0.6,0.8-0.8
		C362.8,184.4,361.5,185,360.9,184.7z M369.3,191.2c-1-0.3-0.5-0.8-0.9-1.2c0.3,0.1,0.6,0.2,1,0.2
		C370.3,190.9,368.7,190.7,369.3,191.2z M355.8,178.5c-1.6-0.8-1.7-0.5-2.7-0.6c-0.8-0.8,0.8-0.5-1.1-1.3c0.6,0,1.1,0.4,1.6,0.7
		c0.5-0.5,0.7-1.3,1.6-1.6C355.9,176.9,353.4,177,355.8,178.5z M293.7,130.4c-1-0.6,0.5-0.4,0.2-0.8
		C295.1,130,294.1,130.4,293.7,130.4z M330.6,159.1c-0.7-0.7,1.3-0.9,2.7-0.1c-0.8-0.1-0.9,0-0.2,0.5
		C331.8,159,331.8,159,330.6,159.1z M369.7,189.9l-0.8,0c0.2-0.5-0.2-1.2,0.5-1.4C369.9,189.1,369.3,189.3,369.7,189.9z
		 M348.4,172.9c-1.3-0.6-0.6-1.1-0.6-1.5C349.4,172.1,347.9,172.4,348.4,172.9z M351.5,174c-0.7-0.5-1-1.6,0.3-1.6
		c0.7,0.7-0.4,0.8,0.5,1.6C351.9,173.9,351.2,173.7,351.5,174z M369.3,188.3c-0.8-0.5,0.2-0.4-0.2-0.8c0.4,0.1,0.7,0.5,1.1,0.5
		C370.6,188.4,369.9,188.4,369.3,188.3z M369.2,186.9c-0.3-0.4-0.3-0.7,0.8-0.6C370.5,186.7,369.6,186.7,369.2,186.9z M353.6,173.9
		c-0.1-0.1-0.3-0.2-0.4-0.3c0.4,0.1,0.8,0.2,1.3,0.2c1,0.8,2.1,1.3,0.9,1.3C355.2,174.6,354.8,174.2,353.6,173.9z M370.9,187.4
		c0.7-0.1,1.1,0.3,1.7,0.4c0.4-0.2-1.4-0.4-1.8-1c0.2-0.3,1.7,0.4,2.1,0.1c1.1,0.9-0.1,0.9,0,1.5
		C372.3,188.1,371.5,187.9,370.9,187.4z M370.1,185.9l-0.5,0c-0.8-0.5,0.3-0.4-0.7-1c0.5,0,1,0.1,1.5,0.2
		C370.5,185.6,369.3,185.3,370.1,185.9z M355.4,173.5c-2.3-0.7,0.3-0.9,0.4-1.3C356.8,173.1,354.5,172.7,355.4,173.5z M352.1,168.8
		c-0.2-0.3,0.1-0.4,0.7-0.5C353.5,168.9,352.9,169.1,352.1,168.8z M356.1,171.4c-2.5-0.9-0.3-1.4-0.6-2.1
		C356.8,170,355,170.4,356.1,171.4z M349.8,164.7c-0.1-0.3-0.2-0.6,0.7-0.5C350.9,164.7,350.6,165,349.8,164.7z M352.3,165.9
		c0.1-0.5-0.8-1.9,0.8-1.6c0.7,0.8-1.1,0.6,0.7,1.8C353.3,166.3,352.9,165.9,352.3,165.9z M354.1,165.4c1.1,0.2,0.8,0.3,1.8,0.2
		c0.9,0.9-2.2-0.2-1.1,0.8C353.5,166.1,354,165.6,354.1,165.4z M354.4,163.9c-0.2-0.4-0.1-0.6,1-0.5
		C356.4,164.2,355.2,164.2,354.4,163.9z M370.5,176.1c0-0.3-0.6-0.8,0.8-0.6C371.7,176,370.9,175.9,370.5,176.1z M372.4,176.8
		c-1-0.3-1-0.9-0.3-0.8C373.3,176.7,371.9,176.4,372.4,176.8z M368.2,173.6c-0.6-0.4-0.3-0.5,0.4-0.5c0.5,0.1,0.8,0.7,1.4,0.7
		C370.2,174.4,368.7,173.5,368.2,173.6z M370.6,175.1c-0.8-0.7,0.8-0.6,1.6-0.8c0.6,0.4,1.1,0.8,0.5,0.8c0.9,0.5,1.8,0.5,2.2,0.6
		C375.8,176.9,371.9,174.9,370.6,175.1z M352.3,159.7c-1-0.2-1.1-0.9,0-0.6C353.2,159.6,352,159.3,352.3,159.7z M371.3,173.7
		c-0.6-0.4-0.3-0.5,0.4-0.5C372.4,173.7,372.1,173.8,371.3,173.7z M355,160.4l1.3,0c-0.4-0.3-1-0.2-1.4-0.7c1.6,0.5,1.7,0.2,1.2-0.4
		c0.9,0.3,0.4-0.1,1.3,0l0.8,0.7c-1.7-0.6-0.6,0.4-1.5,0.4c1.3,0.6,0.7,1.2,0.3,1.5C357.1,161.2,356.2,161.3,355,160.4z
		 M356.2,159.1c-0.4-0.1-0.8-0.3-1.2-0.4c-0.9-0.6,0.4-1.2,1.7-0.3C354.7,158.1,356.6,158.7,356.2,159.1z M356.1,158
		c-0.6-0.4,0.2-0.2-0.1-0.5c1,0.1,2,0,2.7,0.7C356.9,157.8,357.8,158.3,356.1,158z M353.4,154.9c-0.7-0.5-0.1-0.6,0.5-0.6
		C354.4,154.7,354.3,154.9,353.4,154.9z M302.8,110.9c0.6,0.2,1.6,0.3,1.1-0.1c1.2,0.3,0.6,0.8,0.1,0.8
		C303.5,111.4,303.2,111.2,302.8,110.9z M357.6,151.5c-2-0.7,0.1-1.3,1.4-0.3C358.7,151.6,357.1,151,357.6,151.5z M305.1,109.9
		c-0.9-0.3-1.8-0.5-2.6-1.1c0.8,0,2.6,1,2,0.2c1.8,0.8,0.7,1.3,0.1,1.5C303.4,110,303.9,109.7,305.1,109.9z M305.4,108.8
		c-0.4-0.4,0.3-0.3,0.2-0.6C306.8,108.4,306.9,109.4,305.4,108.8z M378,159.3c-0.5-0.5-0.4-0.8,0.3-0.8
		C378.7,158.9,379.1,159.4,378,159.3z M379.7,158.8c-1.5-0.6-0.2-1-0.1-1.3c-3.7-0.9,1.2-1,0.6-1.8c0.7,0.1,1.3,0.9,1.3,1
		c-0.5,0.1-0.9-0.1-1.3-0.2c0.9,0.8,2.2,0.3,3.1,1c-0.8-0.1-1.8,0-3-0.7c0,0.3,1.7,1.1-0.2,0.7C381.3,158.1,380.7,158.9,379.7,158.8
		z M381.6,158.8c0.1-0.4,0.1-0.9,1.1-1C383.3,158.5,382.4,158.7,381.6,158.8z M310.7,103.3c1.8,0.7-0.6,0.7,0,1.2
		C308.9,103.8,310.8,103.7,310.7,103.3z M382,156.5c1.3,0.3,1.6,0.2,0.9-0.5c0.4,0.1,0.8,0.4,1.1,0.7
		C383.5,156.8,383.3,157.2,382,156.5z M381.4,153.4c1.2,0.6-0.3,0.3,0.5,0.8C380.9,154.1,380.8,153.4,381.4,153.4z M385.7,156.7
		c-0.2-0.2,0.2-0.1,0.3-0.2c0.3,0-0.2-0.3-0.4-0.5c0.5,0,1,0.3,1.4,0.7L385.7,156.7z M311.4,101.4c-0.3-0.3,0.3-0.3-0.6-0.8
		c0.4-0.1,0.8,0.1,1.3,0.2C312.8,101.3,312.2,101.4,311.4,101.4z M382,151.5c-0.4-0.6,0-1-0.1-1.5c1.2,0,2.4,0.6,2.1,1
		c-0.4-0.1-0.8-0.3-1.2-0.3c0.2,0.1,0.1,0.6,0.6,0.7C383.3,151.5,382.6,151.4,382,151.5z M311.4,99.5c-0.3-0.2-0.6-0.4-0.9-0.6
		C311.3,98.7,312.6,99.6,311.4,99.5z M382.6,148.7c-0.3-0.4-0.4-0.7,0.5-0.7c0.7,0.5,0.5,0.7,0,0.8
		C382.9,148.8,382.7,148.8,382.6,148.7z M313,96.4c-0.8-0.4,0.1-0.3-0.4-0.6c0.5,0.1,1,0.2,1.5,0.5c0.5,0,0-0.4-0.7-0.5
		c-0.4-0.5,1,0.2,1.3,0.2c0.6,0.4,0.3,0.5,0.6,0.8C314.4,96.9,313.8,96.3,313,96.4z M382.9,145.8c0.9,0.3,1.4,0.1,1.9,0
		c0.4,0.3,0.1,0.3,0.6,0.7c0.1-0.2,0.7-0.3,0.5-0.7c1.2,0.5,0,1,0.3,1.5C385.1,146.8,384,146.4,382.9,145.8z M313.9,94.9
		c0.6,0,1.2,0.2,1.7,0.3C316.3,95.8,314.5,95.3,313.9,94.9z M382.9,144.3c0-0.1-0.1-0.3-0.4-0.5c1.1,0.2,2.1,0.6,3,1.3
		C384.5,145.2,383.8,144.4,382.9,144.3z M314.2,94.6c-0.7-0.4-0.4-0.5,0.3-0.4C315.2,94.6,314.9,94.7,314.2,94.6z M386.5,144.6
		c0.2,0.2,0.4,0.3,0.7,0.3c-0.1,0.3-0.6,0.3-1,0.7c-0.5-0.7,0-1,0.4-1.3C387,144.6,386.8,144.6,386.5,144.6z M386,144.5
		c-0.7,0-1.3-0.4-2-0.3c-0.4-0.7-0.5-1.2,0.7-1.3c0.4,0.1,0.7,0.5,1.2,0.5C386.2,143.8,385.7,144,386,144.5z M316.4,93.9
		c-1-0.1-0.3-0.5-1.9-0.6c-0.3-0.3,0.5-0.3-0.1-0.7c0.7,0.3,1.5,0.3,2.3,0.3C316.9,93.3,315.5,93.2,316.4,93.9z M386.6,143.5
		c-0.2-0.2-0.4-0.3-0.6-0.5c0.4,0,0.7,0,1,0.2c0.3,0-0.2-0.3-0.4-0.5c0.6-0.1,1.2-0.1,1.7,0.5c-0.3,0-0.5-0.2-0.7-0.2
		c0.4,0.3,0.8,0.4,1.1,0.7C387.4,143.4,387.7,143.4,386.6,143.5z M385.8,140.5c-0.1,0.3,0.5,0.8-0.2,0.8
		C384.2,140.8,384.5,140.3,385.8,140.5z M387.1,139.6c0.3,0,0.5,0.2,0.7,0.3c0.3-0.2-0.5-0.7,0.7-0.5c0.5,0.4-0.2,0.5-0.4,0.7
		C387.7,140,387.4,139.8,387.1,139.6z M387.1,138.6c-0.8-0.6,0.2-0.6-0.3-1C388,138,387.8,138.6,387.1,138.6z M385.4,137.3
		c-0.2-0.2,0.1-0.3-0.1-0.5c0.5,0,1,0.3,1.4,0.7c-0.3,0-0.4,0-0.3,0.2C386,137.6,385.7,137.3,385.4,137.3z M385.7,136.8
		c-0.4-0.6-0.5-1.1,0.8-1.2C386,135.9,386.9,136.7,385.7,136.8z M387.8,136.9c-0.2-0.5-0.2-1.1,1.5-0.7
		C389.8,136.8,389,136.9,387.8,136.9z M385.1,133.5c-1-0.7-0.5-0.9,0.5-1c0.3,0.3,0.8,0.4,1.1,0.6
		C386.1,132.9,385.3,133.1,385.1,133.5z M391.4,129.5c-0.7-0.1-1.4-0.9-0.6-0.8c0.9,0.4,0.1,0.6,0.9,0.6
		C391.9,129.6,391,129.2,391.4,129.5z M401.1,94.8l-0.7-0.5c0.2-0.3,0.4-0.6,1.6-0.7c0.9,0.5,0.5,0.6,0.9,1
		C401.5,94.4,401.7,94.4,401.1,94.8z M403.2,92.4c-2.2-0.4,0-0.4-1.1-1.1C403.4,91.5,402.6,92,403.2,92.4z M332.1,42.1
		c0-0.4-0.1-0.3-1.2-0.9c2.6-0.3,1.1,1,3,0.7C334.6,42.4,332.9,42.2,332.1,42.1z M333.6,42.6c-0.2,0.4-2.3-0.1-2.6,0.3
		c-0.6-0.3-1.2-0.3-1.7-0.5c-0.3-0.5,1.5,0.1,2,0.1c0.3-0.1-0.2-0.3-0.5-0.5C331.8,41.9,332.7,42.3,333.6,42.6z M404.1,82.6
		c1.1,0,0.9-0.4,1.8-0.2c0.1,0.3,0.4,0.6-0.3,0.7C405.1,82.8,404.6,83,404.1,82.6z M331.8,40.6c-1-0.5,0.5-0.3,0.1-0.7
		c0.8,0.3,1.7,0.3,2.5,0.7C332.9,40.6,333.1,40.7,331.8,40.6z M404.5,81.7c-0.6-0.5,1,0,0.6-0.6C406.7,81.4,405,81.9,404.5,81.7z
		 M333.1,39.9c0-0.2,0.4-0.2,1-0.1c0.6,0.3,0.6,0.5,0,0.5C333.8,40.1,333.4,39.9,333.1,39.9z M414.5,59.1c-0.5-0.4,1.1-0.4,0.3-0.8
		C416.1,58.5,415.9,59.1,414.5,59.1z M415.6,58.3c-0.8-0.6-0.1-0.8-0.2-1.3C416.7,57.8,416.6,58.1,415.6,58.3z M416.4,57.3
		c-0.2-0.1-0.5-0.3-0.7-0.4l1-0.1C416.8,57,417.4,57.3,416.4,57.3z M378,22.5c-0.3,0-0.6-0.3-1-0.4c1.2-0.3,1.2-0.9,2-1.1
		c0.9,0,1.7,0,2.5,0.5C380.6,21.9,379.3,22.5,378,22.5z M379.4,20.1c-0.1-0.6,0.9-0.9,1.2-1.4c0.5,0.1,1,0.3,1.4,0.6
		C381,19.5,380.4,19.9,379.4,20.1z M421.9,44.2c-0.5-0.4,0.6-0.8,1.6-0.6C423.1,43.9,423.2,44.3,421.9,44.2z M381.6,18.7
		c-0.3-0.2-0.6-0.4-0.9-0.6c2.1,0.2,2.7-0.2,4.2-0.6C385.6,18.7,382.3,18.3,381.6,18.7z M428.9,39.7c-1.1-0.5,0.1-0.5,0.4-0.7
		c1.1,0.8,2.3,0.5,3.4,1.2c0,0.1-0.3,0.2-0.8,0.2C430.7,39.6,429,39.3,428.9,39.7z M384.3,11.6c-0.9-0.5-0.3-0.5-0.6-0.8
		c0.6,0.2,1.4,0.1,1.9,0.6C384.7,11.3,384.9,11.6,384.3,11.6z M403.3,19.7c1.6,0.7,1.5,0.3,1.8,0c0.3,0.2,0.3,0.3,0.2,0.3
		c0.5,0.2,1,0.1,1.4,0.6c-0.5,0-2.3-0.4-2-0.1C404.1,20.2,403.3,19.9,403.3,19.7z M427.6,30.6c-1-0.4,0.5-0.2-0.2-0.6
		C428.4,30.1,428.7,30.7,427.6,30.6z M426.8,28.9c-0.7-0.6,0.1-0.7,0.9-0.8C428.5,28.6,427,28.6,426.8,28.9z M427.4,27.1
		c-1-0.5-0.4-0.5,0.1-0.6C428.1,26.9,428.1,27,427.4,27.1z M431.4,27.9c-0.8-0.4,0.3-0.7,1.1-0.1c-0.8-0.2-0.8-0.1,0,0.3
		C432.1,28,431.7,27.9,431.4,27.9z M425,13.1c0-0.2,0.7-0.4,1.6,0C427.2,13.5,425.6,13.4,425,13.1z"/>
	<g id="XMLID_5180_">
		<path id="XMLID_5197_" class="st1" d="M52.2,133.2c0,3-0.5,5.6-1.6,7.9c-1.1,2.3-2.5,4.3-4.4,5.9c-1.8,1.6-3.9,2.8-6.3,3.6
			c-2.4,0.8-4.8,1.2-7.4,1.2H6.8c-0.9,0-1.5-0.2-1.8-0.6c-0.3-0.4-0.4-0.9-0.4-1.5V91c0-0.6,0.1-1.1,0.4-1.5C5.3,89.2,5.9,89,6.7,89
			l24.1-0.1c6.5,0,11.4,1.6,14.7,4.7c3.3,3.1,5,7.4,5,12.8c0,0.8-0.1,1.7-0.3,2.7c-0.2,1.1-0.5,2.2-1,3.3c-0.5,1.1-1.2,2.2-2.1,3.3
			c-0.9,1.1-2.1,2-3.5,2.7l0.1,0.4c1.8,0.7,3.3,1.6,4.4,2.8c1.1,1.2,2,2.5,2.6,3.9c0.6,1.4,1,2.8,1.2,4.1
			C52.1,131,52.2,132.2,52.2,133.2z M35,107.5c0-1.7-0.5-3.1-1.6-4.2c-1-1.1-2.8-1.7-5.2-1.7h-8.6v11.7h9.1c2,0,3.5-0.5,4.6-1.6
			C34.5,110.6,35,109.2,35,107.5z M36.7,132.5c0-2-0.6-3.6-1.7-5c-1.1-1.4-3-2.1-5.6-2.1h-9.8v13.9h9.8c2.8,0,4.7-0.7,5.7-2
			C36.2,136,36.7,134.3,36.7,132.5z"/>
		<path id="XMLID_5195_" class="st1" d="M68.2,91c0-0.6,0.1-1.2,0.4-1.6c0.3-0.4,0.8-0.6,1.7-0.6h37.6c1.3,0,2,0.7,2,2.1v8.6
			c0,0.6-0.1,1-0.4,1.4s-0.8,0.6-1.7,0.6H83.3V113h21.4c1.5,0,2.2,0.7,2.2,2v8.6c0,0.6-0.1,1-0.4,1.4c-0.3,0.4-0.9,0.6-1.8,0.6H83.3
			v13.6h25c1.4,0,2.1,0.7,2.1,2.1v8.6c0,0.6-0.1,1-0.4,1.4c-0.3,0.3-0.8,0.5-1.7,0.5h-38c-0.8,0-1.4-0.2-1.7-0.6
			c-0.3-0.4-0.4-0.9-0.4-1.4V91z"/>
		<path id="XMLID_5192_" class="st1" d="M140.8,149.8c0,0.5-0.1,1-0.3,1.4c-0.2,0.4-0.8,0.7-1.7,0.7h-11c-1.4,0-2.1-0.7-2.1-2.1V91
			c0-0.6,0.1-1.1,0.4-1.5c0.3-0.4,0.8-0.6,1.7-0.6h22c3,0,5.7,0.4,8.3,1.2c2.6,0.8,4.9,2,6.8,3.6c2,1.6,3.5,3.6,4.6,6.1
			c1.1,2.5,1.7,5.3,1.7,8.6c0,2.2-0.3,4.5-0.9,6.9c-0.6,2.4-1.7,4.5-3.3,6.5c-1.6,2-3.8,3.6-6.5,4.9c-2.8,1.3-6.3,1.9-10.7,1.9h-9
			V149.8z M155.8,108.9c0-2.5-0.7-4.4-2.2-5.6c-1.5-1.2-3.5-1.8-5.9-1.8h-6.8v15.1h7c2.5,0,4.4-0.6,5.8-1.9
			C155,113.4,155.8,111.4,155.8,108.9z"/>
		<path id="XMLID_5190_" class="st1" d="M217.7,91.1c0-0.6,0.2-1.2,0.5-1.6c0.3-0.4,0.9-0.6,1.6-0.6h11c0.9,0,1.4,0.2,1.7,0.7
			c0.2,0.5,0.3,1,0.3,1.5v58.7c0,0.5-0.1,1-0.3,1.4c-0.2,0.4-0.8,0.7-1.7,0.7h-11c-1.4,0-2.1-0.7-2.1-2.1v-24.3h-18.5v24.3
			c0,0.5-0.1,1-0.3,1.4c-0.2,0.4-0.8,0.7-1.7,0.7h-11c-1.4,0-2.1-0.7-2.1-2.1V91c0-0.6,0.2-1.2,0.5-1.6c0.3-0.4,0.9-0.6,1.6-0.6h11
			c0.9,0,1.4,0.2,1.7,0.7c0.2,0.5,0.3,1,0.3,1.5v21.9h18.5V91.1z"/>
		<path id="XMLID_5188_" class="st1" d="M250.7,91c0-0.6,0.1-1.2,0.4-1.6c0.3-0.4,0.8-0.6,1.6-0.6h11.1c0.9,0,1.4,0.2,1.7,0.7
			c0.2,0.5,0.3,1,0.3,1.5v58.7c0,0.5-0.1,1-0.3,1.4c-0.2,0.4-0.8,0.7-1.7,0.7h-11.1c-0.8,0-1.3-0.2-1.6-0.6
			c-0.3-0.4-0.4-0.9-0.4-1.5V91z"/>
		<path id="XMLID_5186_" class="st1" d="M282.9,120.7c0-3.9,0.4-7.7,1.1-11.6c0.7-3.9,2.1-7.4,4.1-10.5c2-3.1,4.8-5.6,8.3-7.5
			c3.6-1.9,8.2-2.9,14-2.9c3,0,6,0.2,9.2,0.7c3.2,0.5,6,1.2,8.6,2.3c0.9,0.4,1.7,0.9,2.2,1.5c0.5,0.5,0.6,1.4,0.4,2.6l-1.2,5.5
			c-0.2,0.9-0.5,1.5-0.9,1.7c-0.4,0.3-1.2,0.3-2.3,0.2c-2.7-0.3-5.2-0.6-7.7-0.8c-2.5-0.2-4.8-0.3-6.8-0.3c-2.7,0-4.8,0.5-6.5,1.5
			c-1.7,1-3,2.3-3.9,4c-0.9,1.7-1.6,3.7-1.9,6c-0.3,2.3-0.5,4.7-0.5,7.3c0,3,0.2,5.6,0.5,8c0.3,2.4,1,4.4,1.9,6
			c0.9,1.6,2.3,2.9,3.9,3.7c1.7,0.9,3.8,1.3,6.4,1.3c2.6,0,4.9-0.1,7.1-0.3c2.1-0.2,4.7-0.4,7.6-0.8c1.2-0.1,2-0.1,2.4,0.1
			c0.4,0.2,0.7,0.8,0.9,1.8l1.2,5c0.3,1.2,0.2,2.1-0.2,2.7c-0.5,0.6-1.2,1.1-2.1,1.6c-1.2,0.5-2.5,1-4,1.4c-1.5,0.4-3,0.8-4.6,1
			c-1.6,0.3-3.2,0.5-4.8,0.6c-1.6,0.1-3.1,0.2-4.6,0.2c-5.7,0-10.3-0.9-13.9-2.8c-3.6-1.9-6.4-4.3-8.4-7.3c-2-3-3.4-6.5-4.1-10.3
			C283.3,128.5,282.9,124.6,282.9,120.7z"/>
		<path id="XMLID_5183_" class="st1" d="M354.4,149.2c-0.3,1-0.7,1.7-1.2,2.1c-0.5,0.4-1.2,0.6-2.1,0.6h-10.5
			c-0.7,0-1.2-0.1-1.4-0.4c-0.3-0.3-0.2-1,0.1-2l18.6-96c0.3-0.9,0.7-1.6,1.1-2c0.4-0.5,1.3-0.7,2.6-0.7h11.9c1.3,0,2.2,0.3,2.6,0.8
			c0.4,0.5,0.8,1.2,1.1,2.1l18.7,96.1c0.2,0.8,0.2,1.3,0.1,1.7c-0.1,0.4-0.5,0.6-1.2,0.6h-11.7c-1.1,0-1.8-0.2-2.2-0.7
			c-0.4-0.5-0.7-1.2-1-2.2l-0.9-3.3c-1.3-4.7-5.6-8-10.5-8H366c-4.8,0-9.1,3.2-10.5,7.8L354.4,149.2z M367.5,70.4H367l-6,55.8h12.3
			L367.5,70.4z"/>
		<path id="XMLID_5181_" class="st1" d="M465.6,132.3c-0.9-2.8-2.1-4.6-3.5-5.4c-1.5-0.8-3-1.2-4.7-1.2h-3.7v24.1
			c0,0.4-0.1,0.9-0.3,1.4c-0.2,0.5-0.8,0.7-1.7,0.7h-11.1c-0.8,0-1.4-0.2-1.7-0.6c-0.3-0.4-0.4-0.9-0.4-1.5v-24.1h-3.7
			c-1.7,0-3.3,0.4-4.7,1.2c-1.5,0.8-2.6,2.6-3.5,5.4l-4.8,16.8c-0.4,1.1-0.8,1.8-1.3,2.2c-0.5,0.4-1.4,0.6-2.9,0.6h-10.8
			c-1.6,0-2.2-0.8-1.7-2.4l5.8-18.4c0.9-3,2-5.4,3.1-7.4c1.1-2,2.8-3.4,5-4.3c-1.9-0.8-3.5-2.2-4.7-4.2c-1.2-2.1-2.4-4.6-3.4-7.6
			l-5-16c-0.5-1.6,0.1-2.4,1.7-2.4h10c1.5,0,2.4,0.2,2.9,0.6c0.5,0.4,0.9,1.2,1.3,2.2l4.5,14.5c0.4,1.4,1,2.5,1.7,3.4
			c0.7,0.9,1.4,1.5,2.1,1.9c0.7,0.4,1.5,0.7,2.2,0.9c0.8,0.2,1.5,0.2,2.3,0.2h4V91c0-0.6,0.1-1.2,0.4-1.6c0.3-0.4,0.8-0.6,1.7-0.6
			h11.1c0.9,0,1.4,0.2,1.7,0.7c0.2,0.5,0.3,1,0.3,1.5v21.9h4c0.8,0,1.5-0.1,2.3-0.2c0.8-0.2,1.5-0.5,2.3-0.9
			c0.8-0.4,1.5-1.1,2.1-1.9c0.6-0.9,1.2-2,1.6-3.4l4.5-14.5c0.4-1.1,0.9-1.8,1.3-2.2c0.4-0.4,1.4-0.6,2.8-0.6h10
			c1.6,0,2.2,0.8,1.7,2.4l-4.9,16c-1.1,3-2.2,5.6-3.5,7.6c-1.3,2.1-2.8,3.5-4.6,4.2c2.2,0.9,3.9,2.3,5,4.3c1.1,2,2.1,4.5,3.1,7.4
			l5.8,18.4c0.5,1.6-0.1,2.4-1.7,2.4h-10.8c-1.5,0-2.4-0.2-2.8-0.6c-0.4-0.4-0.9-1.2-1.3-2.2L465.6,132.3z"/>
	</g>
	<g id="XMLID_5141_">
		<path id="XMLID_5178_" class="st1" d="M300.3,164.9c0.5,0,0.8,0.1,0.8,0.1l-3.4,5.5l3.9,6.2c0,0-0.3,0.1-0.9,0.1
			c-0.6,0-0.9-0.1-0.9-0.1l-3.4-5.4h-2.1v5.5c0,0-0.3,0.1-0.8,0.1c-0.5,0-0.8-0.1-0.8-0.1v-5.5h-2.1l-3.4,5.4c0,0-0.3,0.1-0.9,0.1
			c-0.7,0-0.9-0.1-0.9-0.1l3.9-6.2l-3.4-5.5c0,0,0.3-0.1,0.9-0.1c0.6,0,0.9,0.1,0.9,0.1l3,4.9h2.1V165c0,0,0.3-0.1,0.8-0.1
			c0.5,0,0.8,0.1,0.8,0.1v4.9h2.1l3-4.9C299.4,165,299.7,164.9,300.3,164.9z"/>
		<path id="XMLID_5176_" class="st1" d="M312.5,164.9c0.6,0,0.9,0.1,0.9,0.1v11.7c0,0-0.3,0.1-0.8,0.1c-0.5,0-0.8-0.1-0.8-0.1v-6.5
			c0-1.9,0.1-3.1,0.1-3.1h-0.1c0.1,0-0.7,1.4-1.5,2.7l-4.6,6.9c0,0-0.3,0.1-0.9,0.1c-0.5,0-0.8-0.1-0.8-0.1V165c0,0,0.3-0.1,0.8-0.1
			c0.5,0,0.8,0.1,0.8,0.1v6.5c0,1.5-0.1,3-0.1,3.1h0c0,0,0.4-0.8,1-1.8l5.1-7.8C311.6,165,311.9,164.9,312.5,164.9z"/>
		<path id="XMLID_5174_" class="st1" d="M324.5,164.9c0,0,0.1,0.2,0.1,0.7c0,0.5-0.1,0.7-0.1,0.7H321v10.4c0,0-0.3,0.1-0.8,0.1
			c-0.6,0-0.8-0.1-0.8-0.1v-10.4h-3.5c0,0-0.2-0.2-0.2-0.7c0-0.5,0.2-0.7,0.2-0.7H324.5z"/>
		<path id="XMLID_5172_" class="st1" d="M325.7,177c-0.5,0-0.8-0.1-0.8-0.1s-0.1-0.2-0.1-0.6c0-0.3,0.1-0.6,0.1-0.6s0.3,0.1,0.7,0
			c0.9-0.1,1.6-1.4,1.9-5.5l0.4-5.3h7.2v11.8c0,0-0.3,0.1-0.8,0.1c-0.5,0-0.8-0.1-0.8-0.1v-10.5h-4.1l-0.3,4
			C328.4,176.1,327.2,177,325.7,177z"/>
		<path id="XMLID_5169_" class="st1" d="M343,164.7c3,0,4.8,1.7,4.8,6.2c0,4.5-1.8,6.2-4.8,6.2c-3,0-4.8-1.7-4.8-6.2
			C338.1,166.4,339.9,164.7,343,164.7z M343,166c-1.9,0-3.2,1.1-3.2,4.9c0,3.8,1.2,4.9,3.2,4.9s3.2-1.1,3.2-4.9
			C346.1,167.1,344.9,166,343,166z"/>
		<path id="XMLID_5165_" class="st1" d="M359.1,168c0,1.3-0.5,2.2-1.5,2.7c1.2,0.5,1.9,1.5,1.9,2.9c0,2.1-1.3,3.3-3.6,3.3h-5v-11.9
			h4.9C357.8,164.9,359.1,166,359.1,168z M355.4,170.2c1.3,0,2.1-0.8,2.1-2c0-1.3-0.7-2-2.1-2h-2.9v4H355.4z M355.6,175.6
			c1.5,0,2.2-0.7,2.2-2c0-1.3-0.7-2.1-2.2-2.1h-3.1v4.2H355.6z"/>
		<path id="XMLID_5163_" class="st1" d="M371.2,164.9c0.6,0,0.9,0.1,0.9,0.1v11.7c0,0-0.3,0.1-0.8,0.1c-0.5,0-0.8-0.1-0.8-0.1v-6.5
			c0-1.9,0.1-3.1,0.1-3.1h-0.1c0.1,0-0.7,1.4-1.5,2.7l-4.6,6.9c0,0-0.3,0.1-0.9,0.1c-0.5,0-0.8-0.1-0.8-0.1V165c0,0,0.3-0.1,0.8-0.1
			c0.5,0,0.8,0.1,0.8,0.1v6.5c0,1.5-0.1,3-0.1,3.1h0c0,0,0.4-0.8,1-1.8l5.1-7.8C370.3,165,370.6,164.9,371.2,164.9z"/>
		<path id="XMLID_5160_" class="st1" d="M384.2,164.9c0.6,0,0.9,0.1,0.9,0.1v11.7c0,0-0.3,0.1-0.8,0.1c-0.5,0-0.8-0.1-0.8-0.1v-6.5
			c0-1.9,0.1-3.1,0.1-3.1h-0.1c0,0-0.4,0.9-1,1.9l-5.1,7.7c0,0-0.3,0.1-0.9,0.1c-0.5,0-0.8-0.1-0.8-0.1V165c0,0,0.3-0.1,0.8-0.1
			c0.5,0,0.8,0.1,0.8,0.1v6.5c0,1.6-0.1,3.1-0.1,3.1h0c0,0,0.4-0.8,1-1.8l5.1-7.8C383.4,165,383.7,164.9,384.2,164.9z M382.9,160.6
			c0.4,0.1,0.6,0.4,0.7,0.8c0,0-1.1,1.4-3.2,1.4c-2.1,0-3.2-1.4-3.2-1.4c0.1-0.4,0.4-0.7,0.7-0.8c0,0,1,0.8,2.5,0.8
			S382.9,160.6,382.9,160.6z"/>
		<path id="XMLID_5158_" class="st1" d="M401,165c0,0,0.3-0.1,0.9-0.1c0.5,0,0.8,0.1,0.8,0.1l-3.7,5.5l4.2,6.2c0,0-0.3,0.1-1,0.1
			c-0.6,0-0.9-0.1-0.9-0.1l-3.7-5.4h-1.9v5.5c0,0-0.3,0.1-0.8,0.1c-0.5,0-0.8-0.1-0.8-0.1V165c0,0,0.3-0.1,0.8-0.1
			c0.5,0,0.8,0.1,0.8,0.1v4.9h1.9L401,165z"/>
		<path id="XMLID_5155_" class="st1" d="M409.3,164.7c3,0,4.8,1.7,4.8,6.2c0,4.5-1.8,6.2-4.8,6.2c-3,0-4.8-1.7-4.8-6.2
			C404.4,166.4,406.2,164.7,409.3,164.7z M409.3,166c-1.9,0-3.2,1.1-3.2,4.9c0,3.8,1.2,4.9,3.2,4.9s3.2-1.1,3.2-4.9
			C412.4,167.1,411.2,166,409.3,166z"/>
		<path id="XMLID_5153_" class="st1" d="M427.9,164.9c0.5,0,0.9,0.1,0.9,0.1v11.7c0,0-0.2,0.1-0.8,0.1c-0.5,0-0.8-0.1-0.8-0.1v-6.9
			c0-1.5,0.1-2.5,0.1-2.7h-0.1c-0.1,0.2-0.3,0.8-0.9,1.8l-3.1,5.2c0,0-0.2,0.1-0.4,0.1c-0.3,0-0.4-0.1-0.4-0.1l-2.9-5.1
			c-0.6-1-0.8-1.7-0.9-1.9h-0.1c0,0.2,0.2,1.2,0.2,2.7v6.9c0,0-0.3,0.1-0.8,0.1c-0.5,0-0.7-0.1-0.7-0.1V165c0,0,0.4-0.1,0.9-0.1
			c0.6,0,0.9,0.1,0.9,0.1l3.2,5.7c0.3,0.6,0.5,1.1,0.7,1.4h0.1c0.2-0.4,0.4-0.9,0.7-1.4l3.3-5.7C426.9,165,427.3,164.9,427.9,164.9z
			"/>
		<path id="XMLID_5151_" class="st1" d="M434,176.7c0,0-0.3,0.1-0.8,0.1c-0.5,0-0.8-0.1-0.8-0.1v-11.8h8.8v11.8c0,0-0.3,0.1-0.8,0.1
			c-0.5,0-0.8-0.1-0.8-0.1v-10.4H434V176.7z"/>
		<path id="XMLID_5149_" class="st1" d="M444.4,177c-0.5,0-0.8-0.1-0.8-0.1s-0.1-0.2-0.1-0.6c0-0.3,0.1-0.6,0.1-0.6s0.3,0.1,0.7,0
			c0.9-0.1,1.6-1.4,1.9-5.5l0.4-5.3h7.2v11.8c0,0-0.3,0.1-0.8,0.1c-0.5,0-0.8-0.1-0.8-0.1v-10.5h-4.1l-0.3,4
			C447.1,176.1,445.9,177,444.4,177z"/>
		<path id="XMLID_5146_" class="st1" d="M458.5,171.4c0.2,3.1,1.3,4.2,3.5,4.2c1.7,0,2.8-0.7,2.8-0.7c0.3,0.2,0.5,0.7,0.5,1.2
			c0,0-1.2,1-3.7,1c-3.3,0-4.9-2.2-4.9-6.3c0-4.3,2-6.1,4.9-6.1c2.7,0,4.3,1.7,4.3,4.4c0,1.4-0.2,2.3-0.2,2.3H458.5z M461.6,166
			c-1.8,0-3,1.2-3.2,4.1h5.7c0-0.1,0.1-0.6,0.1-1.3C464.3,167.3,463.6,166,461.6,166z"/>
		<path id="XMLID_5144_" class="st1" d="M475.8,165c0,0,0.3-0.1,0.9-0.1c0.5,0,0.8,0.1,0.8,0.1l-3.7,5.5l4.2,6.2c0,0-0.3,0.1-1,0.1
			c-0.6,0-0.9-0.1-0.9-0.1l-3.7-5.4h-1.9v5.5c0,0-0.3,0.1-0.8,0.1c-0.5,0-0.8-0.1-0.8-0.1V165c0,0,0.3-0.1,0.8-0.1
			c0.5,0,0.8,0.1,0.8,0.1v4.9h1.9L475.8,165z"/>
		<path id="XMLID_5142_" class="st1" d="M480.9,170.9c0,3.2,1.1,4.7,3.6,4.7c1.3,0,2.2-0.4,2.2-0.4c0.3,0.2,0.5,0.7,0.5,1.2
			c0,0-1,0.7-3.1,0.7c-3.2,0-4.9-2.2-4.9-6.2c0-4,1.7-6.2,4.9-6.2c2,0,2.9,0.5,2.9,0.5c0,0.5-0.2,0.9-0.5,1.2c0,0-0.8-0.4-2.1-0.4
			C482,166.1,480.9,167.6,480.9,170.9z"/>
	</g>
</g>
</svg>
