<?xml version="1.0" encoding="utf-8"?>
<!-- Generator: Adobe Illustrator 22.1.0, SVG Export Plug-In . SVG Version: 6.00 Build 0)  -->
<svg version="1.1" xmlns="http://www.w3.org/2000/svg" xmlns:xlink="http://www.w3.org/1999/xlink" x="0px" y="0px"
	 viewBox="0 0 566.9 566.9" style="enable-background:new 0 0 566.9 566.9;" xml:space="preserve">
<style type="text/css">
	.st0{fill:url(#SVGID_1_);}
	.st1{fill:url(#SVGID_2_);}
	.st2{fill:url(#SVGID_3_);}
	.st3{fill:url(#SVGID_4_);}
	.st4{fill:url(#SVGID_5_);}
	.st5{fill:url(#SVGID_6_);}
	.st6{fill:url(#SVGID_7_);}
	.st7{fill:url(#SVGID_8_);}
	.st8{fill:url(#SVGID_9_);}
	.st9{fill:url(#SVGID_10_);}
	.st10{fill:#FFFFFF;}
	.st11{fill:url(#SVGID_11_);}
	.st12{fill:url(#SVGID_12_);}
	.st13{fill:url(#SVGID_13_);}
	.st14{fill:url(#SVGID_14_);}
	.st15{fill:url(#SVGID_15_);}
	.st16{fill:url(#SVGID_16_);}
	.st17{fill:url(#SVGID_17_);}
	.st18{fill:url(#SVGID_18_);}
	.st19{fill:url(#SVGID_19_);}
	.st20{fill:url(#SVGID_20_);}
	.st21{fill:url(#SVGID_21_);}
	.st22{fill:url(#SVGID_22_);}
	.st23{fill:url(#SVGID_23_);}
	.st24{fill:#808285;}
	.st25{display:none;}
	.st26{display:inline;}
</style>
<g id="Шар_1">
	<g>
		<g>
			<path d="M188.8,212.9h30.2l23.5,81.4l13.3-50.6h23.2l13.5,50.6l11.9-50.6h30.2l-24.8,72.4h-30.4l-12.3-46.9l-12.5,46.9h-30.1
				L188.8,212.9z"/>
			<path d="M385.6,243.6c30.3,0,46.1,12.9,46.1,36.3c0,23.4-15.7,36.2-46.1,36.2h-46.4v-72.5H385.6z M367.3,296.9h13.9
				c13.9,0,20.4-4.6,20.4-17.6c0-12.9-6.4-17.7-20.4-17.7h-13.9V296.9z"/>
			<path d="M468.3,294.1c0.5,3.8,5,6.1,12.7,6.1c7.5,0,11.4-1.7,11.4-5.2c0-3.1-3.4-5-10.1-5.8l-21-2.6
				c-17.4-2.1-26.1-9.4-26.1-21.6c0-16.6,13.4-23.2,41.7-23.2c29.4,0,44.3,6.8,45.5,22.9h-32.6c-0.7-4.5-5.4-6.9-14.1-6.9
				c-6.7,0-10.2,2-10.2,4.8c0,3.2,3.5,4.1,10.8,5.1l25.5,3.7c16,2.3,23.8,9.2,23.8,21.2c0,18.1-16,25.7-49.2,25.7
				c-27.5,0-41.9-9-42.1-24.2H468.3z"/>
		</g>
		<g>
			<linearGradient id="SVGID_1_" gradientUnits="userSpaceOnUse" x1="117.4481" y1="326.235" x2="72.1959" y2="224.1123">
				<stop  offset="0" style="stop-color:#0061AF"/>
				<stop  offset="0.2727" style="stop-color:#0083CA"/>
				<stop  offset="1" style="stop-color:#0083CA"/>
			</linearGradient>
			<path class="st0" d="M56.4,212.9c-8,0-14.6,5.9-14.6,13.1v102.8h85.9c14.8,0,16.4-10,16.4-14.4V212.9H56.4z M114.2,305.9
				c0,1.7-1.4,3.1-3.1,3.1H75.4c-1.7,0-3.1-1.4-3.1-3.1v-70.4c0-1.7,1.4-3.1,3.1-3.1h35.7c1.7,0,3.1,1.4,3.1,3.1V305.9z"/>
			<linearGradient id="SVGID_2_" gradientUnits="userSpaceOnUse" x1="116.385" y1="324.9213" x2="71.7021" y2="224.0834">
				<stop  offset="0" style="stop-color:#0083CA"/>
				<stop  offset="0.3437" style="stop-color:#00AEEF"/>
				<stop  offset="1" style="stop-color:#6DCFF6"/>
			</linearGradient>
			<path class="st1" d="M56.4,212.9c-8,0-14.6,5.9-14.6,13.1v101h85.9c11.7,0,14.7-6.7,14.7-12.6V212.9H56.4z M114.2,305.9
				c0,1.7-1.4,3.1-3.1,3.1H75.4c-1.7,0-3.1-1.4-3.1-3.1v-70.4c0-1.7,1.4-3.1,3.1-3.1h35.7c1.7,0,3.1,1.4,3.1,3.1V305.9z"/>
			<linearGradient id="SVGID_3_" gradientUnits="userSpaceOnUse" x1="68.5494" y1="270.0277" x2="114.4004" y2="270.0277">
				<stop  offset="0" style="stop-color:#0083CA"/>
				<stop  offset="0.2727" style="stop-color:#00AEEF"/>
				<stop  offset="1" style="stop-color:#6DCFF6"/>
			</linearGradient>
			<path class="st2" d="M109.8,230.7H73.2c-2.6,0-4.6,2.1-4.6,4.6v69.5c0,2.6,2.1,4.6,4.6,4.6h36.6c0.7,0,1.4-0.2,2-0.5
				c-0.2,0-0.4,0.1-0.6,0.1H75.4c-1.7,0-3.1-1.4-3.1-3.1v-70.4c0-1.7,1.4-3.1,3.1-3.1h35.7c1.7,0,3.1,1.4,3.1,3.1v70.4
				c0,0.1,0,0.2,0,0.2c0.1-0.4,0.2-0.9,0.2-1.4v-69.5C114.4,232.7,112.3,230.7,109.8,230.7z"/>
			<linearGradient id="SVGID_4_" gradientUnits="userSpaceOnUse" x1="48.3257" y1="216.23" x2="115.708" y2="259.0903">
				<stop  offset="0" style="stop-color:#FFFFFF"/>
				<stop  offset="0.8641" style="stop-color:#38C6F4"/>
			</linearGradient>
			<path class="st3" d="M141.9,214.2H56.7c-7.3,0-13.3,5.3-13.3,11.9v48.6c0.4-0.2,0.8-0.4,1.2-0.6v-47.9c0-5.9,5.4-10.7,12.1-10.7
				h85.2V214.2z"/>
			<linearGradient id="SVGID_5_" gradientUnits="userSpaceOnUse" x1="48.8942" y1="272.162" x2="63.9327" y2="303.8101">
				<stop  offset="9.909910e-02" style="stop-color:#8ED8F8"/>
				<stop  offset="0.2546" style="stop-color:#74D1F6"/>
				<stop  offset="0.5749" style="stop-color:#00C1F3"/>
				<stop  offset="1" style="stop-color:#00AEEF"/>
			</linearGradient>
			<path class="st4" d="M72.3,305.9v-43c-9.1,2.6-20.9,7.5-30.5,12.5v40.3l32.5-6.9C73.1,308.4,72.3,307.3,72.3,305.9z"/>
			<linearGradient id="SVGID_6_" gradientUnits="userSpaceOnUse" x1="68.5494" y1="286.1642" x2="111.7237" y2="286.1642">
				<stop  offset="0" style="stop-color:#0083CA"/>
				<stop  offset="0.2727" style="stop-color:#00AEEF"/>
				<stop  offset="1" style="stop-color:#6DCFF6"/>
			</linearGradient>
			<path class="st5" d="M75.4,309c-1.7,0-3.1-1.4-3.1-3.1v-43c-1.2,0.3-2.5,0.7-3.8,1.1v40.7c0,2.6,2.1,4.6,4.6,4.6h36.6
				c0.7,0,1.4-0.2,2-0.5c-0.2,0-0.4,0.1-0.6,0.1H75.4z"/>
			<linearGradient id="SVGID_7_" gradientUnits="userSpaceOnUse" x1="158.4508" y1="262.7321" x2="170.3291" y2="263.014">
				<stop  offset="0" style="stop-color:#6CBE45"/>
				<stop  offset="1" style="stop-color:#96CB64"/>
			</linearGradient>
			<path class="st6" d="M170.6,298.9v-77.2c0-2.3-1.2-2.6-1.9-2.6c-0.2,0-8-1.3-11.6-1.9L156,217c0.6,0.1,1.4,0.7,1.4,2.5v4v1v72.2
				c0,0,0.2,4.4-2.8,4.4l-41.5,5.7l-0.7,0.1l1.8,0.1c3.6,0.2,10.1,0.6,10.7,0.6c0.8,0,1.3,0,1.3,0l41.5-4.4
				C170.8,303.2,170.6,298.9,170.6,298.9z"/>
			<linearGradient id="SVGID_8_" gradientUnits="userSpaceOnUse" x1="142.5442" y1="296.7323" x2="139.6179" y2="311.2461">
				<stop  offset="0" style="stop-color:#28903B"/>
				<stop  offset="1" style="stop-color:#39B54A"/>
			</linearGradient>
			<path class="st7" d="M157.1,298.9c-0.3,1.1-1,2.2-2.5,2.2l-42.2,5.7l1.7,0.1c3.6,0.2,10.1,0.6,10.7,0.6c0.8,0,1.3,0,1.3,0
				l41.5-4.4c0.7,0,1.1-0.2,1.5-0.6L157.1,298.9z"/>
			<linearGradient id="SVGID_9_" gradientUnits="userSpaceOnUse" x1="167.0657" y1="258.5691" x2="160.4962" y2="296.5262">
				<stop  offset="0" style="stop-color:#B9D989"/>
				<stop  offset="0.6909" style="stop-color:#72BF44"/>
				<stop  offset="0.8783" style="stop-color:#72BF44"/>
				<stop  offset="0.9091" style="stop-color:#72BF44"/>
				<stop  offset="0.9872" style="stop-color:#72BF44"/>
				<stop  offset="1" style="stop-color:#72BF44"/>
			</linearGradient>
			<path class="st8" d="M170.6,298.9v-40.1c-4.6-2.1-9.2-3.8-13.1-4.9v42.9L170.6,298.9z"/>
			<linearGradient id="SVGID_10_" gradientUnits="userSpaceOnUse" x1="162.295" y1="302.2789" x2="163.0509" y2="297.9324">
				<stop  offset="0" style="stop-color:#28903B"/>
				<stop  offset="0.6242" style="stop-color:#72BF44"/>
				<stop  offset="1" style="stop-color:#72BF44"/>
			</linearGradient>
			<path class="st9" d="M157.4,296.7c0,0,0.2,4.4-2.8,4.4l13.1,2.1c3,0,2.8-4.4,2.8-4.4L157.4,296.7z"/>
			<path class="st10" d="M114.4,234.2l41.5-17.3c0,0,0.8,0.1,1.2,0.2c0.7,0.1,1.6,0.6,1.6,2.5V297c0,0,0.2,4.1-2.5,4.4
				c-0.1,0-41.9,5.4-41.9,5.4s-0.8,0.1-1.2,0.1l-0.7-0.1c-0.3,0-0.2-0.8-0.2-1.9v-68C112.2,237,112.1,235.1,114.4,234.2z"/>
			<linearGradient id="SVGID_11_" gradientUnits="userSpaceOnUse" x1="110.9712" y1="261.912" x2="157.4204" y2="261.912">
				<stop  offset="0" style="stop-color:#75C044"/>
				<stop  offset="0.2061" style="stop-color:#77C043"/>
				<stop  offset="1" style="stop-color:#A3CF62"/>
			</linearGradient>
			<path class="st11" d="M113.1,233.9l42-16.9c0,0,2.3-0.6,2.3,2.5v77.2c0,0,0.2,4.4-2.8,4.4l-41.5,5.7c0,0-2.1,0.8-2.1-2.1v-68
				C111,236.7,110.9,234.8,113.1,233.9z"/>
			<linearGradient id="SVGID_12_" gradientUnits="userSpaceOnUse" x1="112.575" y1="306.863" x2="112.575" y2="272.6903">
				<stop  offset="0" style="stop-color:#B9D989"/>
				<stop  offset="1" style="stop-color:#DAEBC1"/>
			</linearGradient>
			<path class="st12" d="M111,304.7c0,1.8,0.8,2.1,1.5,2.2c0.1,0,0.2,0,0.3,0c0.2,0,1.4-0.2,1.4-0.2c0.1-0.2,0.1-0.5,0.1-0.7v-33.3
				c-1.2,0.8-2.3,1.6-3.2,2.4V304.7z"/>
			<linearGradient id="SVGID_13_" gradientUnits="userSpaceOnUse" x1="143.5879" y1="237.6393" x2="157.4118" y2="237.6393">
				<stop  offset="0" style="stop-color:#C4DF9B"/>
				<stop  offset="1" style="stop-color:#AED477"/>
			</linearGradient>
			<path class="st13" d="M157.4,254.1v-34.6c0-3.1-2.3-2.5-2.3-2.5l-11,4.4l0,0l0,36.8C148.8,256.6,153.4,255.1,157.4,254.1z"/>
			<linearGradient id="SVGID_14_" gradientUnits="userSpaceOnUse" x1="148.453" y1="230.9829" x2="152.679" y2="216.1917">
				<stop  offset="0" style="stop-color:#C6DD7F"/>
				<stop  offset="5.495751e-02" style="stop-color:#C8DE83"/>
				<stop  offset="0.6948" style="stop-color:#D5E7AF"/>
				<stop  offset="1" style="stop-color:#DAEBC1"/>
			</linearGradient>
			<path class="st14" d="M157.4,224.5v-5c0-3.1-2.3-2.5-2.3-2.5l-11,4.4l0,0l0,6.9L157.4,224.5z"/>
			<linearGradient id="SVGID_15_" gradientUnits="userSpaceOnUse" x1="129.366" y1="235.0432" x2="129.0006" y2="221.9672">
				<stop  offset="0" style="stop-color:#70BF54"/>
				<stop  offset="0.4061" style="stop-color:#A2D06D"/>
				<stop  offset="0.5394" style="stop-color:#A3D072"/>
				<stop  offset="0.7151" style="stop-color:#A5D27F"/>
				<stop  offset="0.9136" style="stop-color:#A9D592"/>
				<stop  offset="1" style="stop-color:#AAD69C"/>
			</linearGradient>
			<polygon class="st15" points="144,228.5 144,221.5 114.3,233.5 126.5,233.5 144,228.4 			"/>
			<linearGradient id="SVGID_16_" gradientUnits="userSpaceOnUse" x1="112.5747" y1="275.0692" x2="112.5747" y2="233.7533">
				<stop  offset="0" style="stop-color:#AED477"/>
				<stop  offset="1" style="stop-color:#CFE5AE"/>
			</linearGradient>
			<path class="st16" d="M111,236.7v38.4c0.9-0.8,2-1.6,3.2-2.4v-37.1c0-0.7-0.2-1.3-0.6-1.8l-0.5,0.2
				C110.9,234.8,111,236.7,111,236.7z"/>
			<linearGradient id="SVGID_17_" gradientUnits="userSpaceOnUse" x1="162.0036" y1="302.5731" x2="140.6228" y2="256.6667">
				<stop  offset="0" style="stop-color:#84C448"/>
				<stop  offset="0.1023" style="stop-color:#87C54C"/>
				<stop  offset="0.23" style="stop-color:#8FC856"/>
				<stop  offset="0.3712" style="stop-color:#9BCD6A"/>
				<stop  offset="0.5222" style="stop-color:#ACD585"/>
				<stop  offset="0.6809" style="stop-color:#C3DFA4"/>
				<stop  offset="0.8435" style="stop-color:#DEEDCE"/>
				<stop  offset="1" style="stop-color:#FFFFFF"/>
			</linearGradient>
			<path class="st17" d="M155,301.1c2.6-0.3,2.4-4.4,2.4-4.4v-42.6c-4,1-8.6,2.4-13.4,4.2v44.2C144,302.6,154.9,301.1,155,301.1z"/>
			<linearGradient id="SVGID_18_" gradientUnits="userSpaceOnUse" x1="140.2014" y1="306.4028" x2="120.8877" y2="264.9345">
				<stop  offset="0" style="stop-color:#72BF44"/>
				<stop  offset="9.998590e-02" style="stop-color:#77C147"/>
				<stop  offset="0.2589" style="stop-color:#85C556"/>
				<stop  offset="0.457" style="stop-color:#9ACD72"/>
				<stop  offset="0.6864" style="stop-color:#B7DA97"/>
				<stop  offset="0.9393" style="stop-color:#DCECC8"/>
				<stop  offset="1" style="stop-color:#E5F1D4"/>
			</linearGradient>
			<path class="st18" d="M144,258.3c-10.9,4-22.8,9.6-29.8,14.4v33.3c0,0.2,0,0.5-0.1,0.7l29.9-4.1V258.3z"/>
			<linearGradient id="SVGID_19_" gradientUnits="userSpaceOnUse" x1="43.9615" y1="276.2689" x2="43.9615" y2="323.6297">
				<stop  offset="0" style="stop-color:#EFF9FE"/>
				<stop  offset="1" style="stop-color:#00AEEF"/>
			</linearGradient>
			<path class="st19" d="M43.3,325.1v-50.4c0.4-0.2,0.8-0.4,1.2-0.6v51H43.3z"/>
		</g>
	</g>
	<linearGradient id="SVGID_20_" gradientUnits="userSpaceOnUse" x1="481.4558" y1="604.735" x2="188.8236" y2="312.1028">
		<stop  offset="0" style="stop-color:#0678BE"/>
		<stop  offset="0.1486" style="stop-color:#077AC0"/>
		<stop  offset="0.3214" style="stop-color:#0882C6"/>
		<stop  offset="0.5064" style="stop-color:#0A90CF"/>
		<stop  offset="0.6986" style="stop-color:#10A3DD"/>
		<stop  offset="0.7697" style="stop-color:#14ACE3"/>
	</linearGradient>
	<path class="st20" d="M523.4,359.6h-19.9h-2.2l-460,42.1v23.4v26.4v2.2h2.2h452h2.2c15.3,0,27.8-11.5,27.8-25.5V426v-64.2v-2.2
		H523.4z"/>
	<linearGradient id="SVGID_21_" gradientUnits="userSpaceOnUse" x1="327.695" y1="509.3558" x2="242.006" y2="315.9776">
		<stop  offset="0" style="stop-color:#1284C7"/>
		<stop  offset="0.4126" style="stop-color:#12A4DD"/>
		<stop  offset="0.5152" style="stop-color:#14ACE3"/>
		<stop  offset="1" style="stop-color:#5ECBF1"/>
	</linearGradient>
	<path class="st21" d="M64.7,359.6c-12.9,0-23.4,9.5-23.4,21.1v6.6v55.4v6.6h456.4c12.9,0,23.4-9.5,23.4-21.1v-27.8v-40.8H64.7z"/>
	<linearGradient id="SVGID_22_" gradientUnits="userSpaceOnUse" x1="49.1578" y1="397.0634" x2="476.2797" y2="397.0634">
		<stop  offset="0" style="stop-color:#DFF3FA"/>
		<stop  offset="0.676" style="stop-color:#71BFEA"/>
		<stop  offset="1" style="stop-color:#14ACE3"/>
	</linearGradient>
	<path class="st22" d="M475.3,367.5H64.7c-8.6,0-15.6,6-15.6,13.3v45.8l1.9-0.6v-45.2c0-6.3,6.1-11.3,13.6-11.3h410.6
		c0.5,0,1-0.4,1-1C476.3,367.9,475.8,367.5,475.3,367.5z"/>
	<linearGradient id="SVGID_23_" gradientUnits="userSpaceOnUse" x1="50.1308" y1="394.7995" x2="50.1308" y2="435.8756">
		<stop  offset="0" style="stop-color:#DFF3FA"/>
		<stop  offset="0.4366" style="stop-color:#B0E2F7"/>
		<stop  offset="1" style="stop-color:#65CDF3"/>
	</linearGradient>
	<path class="st23" d="M49.2,394.8v40.1c0,0.5,0.4,1,1,1c0.5,0,1-0.4,1-1v-40.1H49.2z"/>
</g>
<g id="ua">
	<g>
		<g>
			<path class="st10" d="M66.5,385.3h6.6v43.3h-6.6V385.3z"/>
			<path class="st10" d="M84.5,428.7h-6.6v-43.3h6.6v18.6H92v-18.6h6.7v43.3H92v-18.6h-7.5V428.7z"/>
			<path class="st10" d="M123.2,395.3v1.5c0,4.5-1.3,7.3-4.3,8.7c3.5,1.4,4.9,4.7,4.9,9.3v3.5c0,6.7-3.4,10.3-10,10.3h-10.4v-43.3
				h9.9C120.3,385.3,123.2,388.6,123.2,395.3z M110.1,391.5V403h2.6c2.5,0,4-1.1,4-4.6V396c0-3.1-1-4.5-3.4-4.5H110.1z M110.1,409.1
				v13.3h3.8c2.2,0,3.4-1.1,3.4-4.3v-3.8c0-4-1.3-5.3-4.3-5.3H110.1z"/>
			<path class="st10" d="M134.4,403.6h9v6.2h-9v12.7h11.4v6.2h-18v-43.3h18v6.2h-11.4V403.6z"/>
			<path class="st10" d="M169,412.5v5.8c0,6.9-3.4,10.9-9.8,10.9c-6.5,0-9.8-4-9.8-10.9v-22.5c0-6.9,3.4-10.9,9.8-10.9
				c6.5,0,9.8,4,9.8,10.9v4.2h-6.2v-4.6c0-3.1-1.3-4.3-3.4-4.3c-2.1,0-3.4,1.2-3.4,4.3v23.4c0,3.1,1.3,4.2,3.4,4.2
				c2.1,0,3.4-1.1,3.4-4.2v-6.2H169z"/>
			<path class="st10" d="M171.1,385.3h20.4v6.2h-6.9v37.2H178v-37.2h-6.9V385.3z"/>
			<path class="st10" d="M201.1,428.7h-6.8v-43.3h5.9v27.4l2.4-9.5l5.4-17.9h7.3v43.3h-5.9v-30.5l-2.7,10.7L201.1,428.7z"/>
			<path class="st10" d="M219.9,385.3h6.6v37.2h7.5v-37.2h6.7v37.3h2.9v11.9h-6.4v-5.8h-17.3V385.3z"/>
			<path class="st10" d="M247.2,385.3h6.6v43.3h-6.6V385.3z"/>
			<path class="st10" d="M257.4,428.7c0.7-1.6,0.7-3.2,0.7-5.3v-6.7c0-4.5,1.1-7.8,4.4-9.2c-2.9-1.4-4.3-4.3-4.3-8.8v-3.4
				c0-6.7,2.9-10,9.8-10h9.9v43.3h-6.6V411H269c-3,0-4.3,1.5-4.3,5.5v6.8c0,3.5-0.2,4.2-0.6,5.3H257.4z M268.1,391.5
				c-2.3,0-3.4,1.4-3.4,4.5v4.3c0,3.5,1.5,4.6,4,4.6h2.6v-13.3H268.1z"/>
			<path class="st10" d="M306.6,417.6c-1.6,7.8-4.1,11.7-13.3,11.1v-6.1c3.4,0.2,5.3-0.4,5.8-3.5l0.1-0.4l-9.1-33.4h6.5l3.6,14.8
				l2,10.2l1.6-10.1l3-14.9h6.9L306.6,417.6z"/>
			<path class="st10" d="M334.3,411.4l-2,4v13.3h-6.6v-43.3h6.6v18.9l8.6-18.9h6.6l-9.2,19.3l9.2,24h-6.8L334.3,411.4z"/>
			<path class="st10" d="M350,395.7c0-6.9,3.5-10.9,10-10.9s10,4,10,10.9v22.5c0,6.9-3.5,10.9-10,10.9s-10-4-10-10.9V395.7z
				 M356.6,418.7c0,3.1,1.3,4.3,3.4,4.3c2.1,0,3.4-1.2,3.4-4.3v-23.4c0-3.1-1.3-4.3-3.4-4.3c-2.1,0-3.4,1.2-3.4,4.3V418.7z"/>
			<path class="st10" d="M388.2,416.1l4.5-30.8h9.2v43.3h-6.2v-31.1l-4.6,31.1h-6.2l-4.9-30.7v30.7h-5.8v-43.3h9.2L388.2,416.1z"/>
			<path class="st10" d="M418.4,423.8h-2.5c-6.6,0-9.8-3.8-9.8-10.7v-11.8c0-6.9,3.2-10.7,9.8-10.7h2.5v-5.2h6.5v5.2h2.5
				c6.6,0,9.8,3.8,9.8,10.7V413c0,6.9-3.2,10.7-9.8,10.7h-2.5v4.9h-6.5V423.8z M418.4,396.5h-2.5c-2.1,0-3.3,1.2-3.3,4.3v12.7
				c0,3.1,1.2,4.3,3.3,4.3h2.5V396.5z M424.9,396.5v21.3h2.5c2.1,0,3.3-1.2,3.3-4.3v-12.7c0-3.1-1.2-4.3-3.3-4.3H424.9z"/>
			<path class="st10" d="M441.1,395.7c0-6.9,3.5-10.9,10-10.9c6.5,0,10,4,10,10.9v22.5c0,6.9-3.5,10.9-10,10.9c-6.5,0-10-4-10-10.9
				V395.7z M447.6,418.7c0,3.1,1.3,4.3,3.4,4.3c2.1,0,3.4-1.2,3.4-4.3v-23.4c0-3.1-1.3-4.3-3.4-4.3c-2.1,0-3.4,1.2-3.4,4.3V418.7z"
				/>
			<path class="st10" d="M484.9,396v5.6c0,6.9-3.2,10.7-9.8,10.7h-3.1v16.3h-6.6v-43.3h9.7C481.6,385.3,484.9,389.1,484.9,396z
				 M471.9,391.5v14.7h3.1c2.1,0,3.2-1,3.2-4.1v-6.5c0-3.1-1.1-4.1-3.2-4.1H471.9z"/>
			<path class="st10" d="M486,385.3h20.4v6.2h-6.9v37.2h-6.6v-37.2H486V385.3z"/>
		</g>
	</g>
	<g>
		<path class="st24" d="M264.7,117h28.6c12.2,0,18.4,7.5,18.4,16.4c0,4.3-1.5,10.2-8.7,13.6c4.3,1.7,11.8,4.7,11.8,15.8
			c0,10.5-7.7,19.3-22.2,19.3h-28V117z M273.5,144.5h15.9c8.4,0,13.5-2.5,13.5-10.5c0-6-3.7-9.5-13.5-9.5h-16V144.5z M273.5,174.6
			h18.8c9.1,0,13.8-4.7,13.8-11.9c0-9.1-8.1-10.9-15.2-10.9h-17.3V174.6z"/>
		<path class="st24" d="M334.4,182.1h-8.8V117h8.8V182.1z"/>
		<path class="st24" d="M356.4,148.6L388,117h12.1L373,143.3l27.8,38.8h-11.4l-22.8-32.6l-10.2,9.8v22.9h-8.8V117h8.8V148.6z"/>
		<path class="st24" d="M417,143.9h34V117h8.8v65.1H451v-30.4h-34v30.4h-8.8V117h8.8V143.9z"/>
		<path class="st24" d="M483.6,163.1l-6.8,19h-9.1l24.5-65.1h10l23.5,65.1H516l-6.5-19H483.6z M506.4,155.4l-9.6-28.7h-0.2
			l-10.4,28.7H506.4z"/>
	</g>
</g>
<g id="ru" class="st25">
	<g class="st26">
		<g>
			<path class="st10" d="M63.3,428.7h-6.6v-43.3h5.8v27.4l2.4-9.5l5.3-17.9h7.1v43.3h-5.8v-30.5l-2.6,10.7L63.3,428.7z"/>
			<path class="st10" d="M88.3,428.7h-6.5v-43.3h6.5v18.6h7.4v-18.6h6.6v43.3h-6.6v-18.6h-7.4V428.7z"/>
			<path class="st10" d="M126.3,395.3v1.5c0,4.5-1.3,7.3-4.2,8.7c3.5,1.4,4.8,4.7,4.8,9.3v3.5c0,6.7-3.4,10.3-9.8,10.3h-10.2v-43.3
				h9.8C123.4,385.3,126.3,388.6,126.3,395.3z M113.4,391.5V403h2.5c2.4,0,3.9-1.1,3.9-4.6V396c0-3.1-1-4.5-3.3-4.5H113.4z
				 M113.4,409.2v13.3h3.7c2.2,0,3.4-1.1,3.4-4.3v-3.8c0-4-1.2-5.3-4.2-5.3H113.4z"/>
			<path class="st10" d="M137.3,403.6h8.9v6.2h-8.9v12.7h11.2v6.2h-17.6v-43.3h17.6v6.2h-11.2V403.6z"/>
			<path class="st10" d="M171.2,412.5v5.8c0,6.9-3.3,10.9-9.6,10.9c-6.4,0-9.6-4-9.6-10.9v-22.5c0-6.9,3.3-10.9,9.6-10.9
				c6.4,0,9.6,4,9.6,10.9v4.2h-6.1v-4.6c0-3.1-1.3-4.3-3.4-4.3c-2.1,0-3.4,1.2-3.4,4.3v23.4c0,3.1,1.3,4.2,3.4,4.2
				c2.1,0,3.4-1.1,3.4-4.2v-6.2H171.2z"/>
			<path class="st10" d="M173.3,385.3h20v6.2h-6.8v37.2H180v-37.2h-6.8V385.3z"/>
			<path class="st10" d="M202.7,428.7h-6.6v-43.3h5.8v27.4l2.4-9.5l5.3-17.9h7.1v43.3h-5.8v-30.5l-2.6,10.7L202.7,428.7z"/>
			<path class="st10" d="M221.2,385.3h6.5v37.2h7.4v-37.2h6.6v37.3h2.8v11.9h-6.3v-5.8h-16.9V385.3z"/>
			<path class="st10" d="M254.6,428.7H248v-43.3h5.8v27.4l2.4-9.5l5.3-17.9h7.1v43.3h-5.8v-30.5l-2.6,10.7L254.6,428.7z"/>
			<path class="st10" d="M271.9,428.7c0.6-1.6,0.7-3.2,0.7-5.3v-6.7c0-4.5,1.1-7.8,4.3-9.2c-2.9-1.4-4.2-4.3-4.2-8.8v-3.4
				c0-6.7,2.9-10,9.6-10h9.8v43.3h-6.5V411h-2.2c-2.9,0-4.2,1.5-4.2,5.5v6.8c0,3.5-0.2,4.2-0.6,5.3H271.9z M282.4,391.5
				c-2.3,0-3.3,1.4-3.3,4.5v4.3c0,3.5,1.5,4.6,3.9,4.6h2.5v-13.3H282.4z"/>
			<path class="st10" d="M325.2,395.3v1.5c0,4.5-1.3,7.3-4.2,8.7c3.5,1.4,4.8,4.7,4.8,9.3v3.5c0,6.7-3.4,10.3-9.8,10.3h-10.2v-43.3
				h9.8C322.3,385.3,325.2,388.6,325.2,395.3z M312.3,391.5V403h2.5c2.4,0,3.9-1.1,3.9-4.6V396c0-3.1-1-4.5-3.3-4.5H312.3z
				 M312.3,409.2v13.3h3.7c2.2,0,3.4-1.1,3.4-4.3v-3.8c0-4-1.2-5.3-4.2-5.3H312.3z"/>
			<path class="st10" d="M347.3,411.4l-2,4v13.3h-6.5v-43.3h6.5v18.9l8.5-18.9h6.5l-9,19.3l9,24h-6.6L347.3,411.4z"/>
			<path class="st10" d="M362.7,395.7c0-6.9,3.5-10.9,9.8-10.9c6.4,0,9.8,4,9.8,10.9v22.5c0,6.9-3.5,10.9-9.8,10.9
				c-6.4,0-9.8-4-9.8-10.9V395.7z M369.2,418.7c0,3.1,1.3,4.3,3.4,4.3c2.1,0,3.4-1.2,3.4-4.3v-23.4c0-3.1-1.3-4.3-3.4-4.3
				c-2.1,0-3.4,1.2-3.4,4.3V418.7z"/>
			<path class="st10" d="M400.2,416.1l4.4-30.8h9v43.3h-6.1v-31.1l-4.5,31.1h-6.1l-4.8-30.7v30.7h-5.6v-43.3h9L400.2,416.1z"/>
			<path class="st10" d="M429.9,423.8h-2.4c-6.5,0-9.6-3.8-9.6-10.7v-11.8c0-6.9,3.2-10.7,9.6-10.7h2.4v-5.2h6.4v5.2h2.4
				c6.5,0,9.6,3.8,9.6,10.7v11.8c0,6.9-3.2,10.7-9.6,10.7h-2.4v4.9h-6.4V423.8z M429.9,396.5h-2.4c-2.1,0-3.2,1.2-3.2,4.3v12.7
				c0,3.1,1.2,4.3,3.2,4.3h2.4V396.5z M436.2,396.5v21.3h2.4c2.1,0,3.2-1.2,3.2-4.3v-12.7c0-3.1-1.2-4.3-3.2-4.3H436.2z"/>
			<path class="st10" d="M452.1,395.7c0-6.9,3.5-10.9,9.8-10.9c6.4,0,9.8,4,9.8,10.9v22.5c0,6.9-3.5,10.9-9.8,10.9
				c-6.4,0-9.8-4-9.8-10.9V395.7z M458.6,418.7c0,3.1,1.3,4.3,3.4,4.3c2.1,0,3.4-1.2,3.4-4.3v-23.4c0-3.1-1.3-4.3-3.4-4.3
				c-2.1,0-3.4,1.2-3.4,4.3V418.7z"/>
			<path class="st10" d="M495.1,396v5.6c0,6.9-3.2,10.7-9.6,10.7h-3.1v16.3h-6.5v-43.3h9.5C491.9,385.3,495.1,389.1,495.1,396z
				 M482.4,391.5v14.7h3.1c2.1,0,3.2-1,3.2-4.1v-6.5c0-3.1-1.1-4.1-3.2-4.1H482.4z"/>
			<path class="st10" d="M496.2,385.3h20v6.2h-6.8v37.2H503v-37.2h-6.8V385.3z"/>
		</g>
	</g>
	<g class="st26">
		<path class="st24" d="M305.5,183.8c-24.3,0-31.6-20.2-31.6-34.2c0-14.1,7.3-34.2,31.6-34.2c24.3,0,31.6,20.2,31.6,34.2
			C337.2,163.7,329.8,183.8,305.5,183.8z M305.5,123.2c-14.2,0-22.6,10.9-22.6,26.3s8.4,26.6,22.6,26.6s22.6-11.1,22.6-26.4
			S319.7,123.2,305.5,123.2z"/>
		<path class="st24" d="M356.6,148.6l31.5-31.5h12.1l-27.1,26.3l27.8,38.8h-11.4l-22.8-32.6l-10.2,9.8v22.9h-8.8v-65.1h8.8V148.6z"
			/>
		<path class="st24" d="M417.1,143.9h34v-26.9h8.8v65.1h-8.8v-30.4h-34v30.4h-8.8v-65.1h8.8V143.9z"/>
		<path class="st24" d="M483.6,163.1l-6.8,19h-9.1l24.5-65.1h9.9l23.5,65.1H516l-6.5-19H483.6z M506.4,155.4l-9.6-28.7h-0.2
			l-10.4,28.7H506.4z"/>
	</g>
</g>
</svg>
